<svg id="レイヤー_1" data-name="レイヤー 1" xmlns="http://www.w3.org/2000/svg" viewBox="0 0 276.14 262.88"><defs><style>.cls-1{fill:#98b5c2;opacity:1;}.cls-1,.cls-101,.cls-103,.cls-17,.cls-18,.cls-3,.cls-4,.cls-42,.cls-46,.cls-63,.cls-68{isolation:isolate;}.cls-2{fill:#fff;}.cls-101,.cls-103,.cls-17,.cls-18,.cls-4,.cls-63,.cls-68{font-size:8.1px;fill:#5c5d5d;}.cls-101,.cls-18,.cls-4,.cls-68{font-family:VDL-V7Gothic-Medium-83pv-RKSJ-H, VDL-V7Gothic;}.cls-5{letter-spacing:-0.2em;}.cls-6{letter-spacing:-0.36em;}.cls-7{letter-spacing:-0.12em;}.cls-8{letter-spacing:-0.1em;}.cls-9{letter-spacing:-0.14em;}.cls-10{letter-spacing:-0.12em;}.cls-11{letter-spacing:0.01em;}.cls-12{letter-spacing:-0.35em;}.cls-13{letter-spacing:-0.12em;}.cls-14{letter-spacing:-0.06em;}.cls-15{letter-spacing:-0.11em;}.cls-16{letter-spacing:-0.06em;}.cls-103,.cls-17,.cls-42,.cls-46,.cls-63{font-family:VDL-V7Gothic-Bold-83pv-RKSJ-H, VDL-V7Gothic;}.cls-18{letter-spacing:-0.03em;}.cls-19{letter-spacing:-0.28em;}.cls-20{letter-spacing:-0.25em;}.cls-21{letter-spacing:-0.03em;}.cls-22{letter-spacing:-0.06em;}.cls-23{letter-spacing:-0.08em;}.cls-24{letter-spacing:-0.1em;}.cls-25{letter-spacing:-0.02em;}.cls-26,.cls-63{letter-spacing:-0.07em;}.cls-27{letter-spacing:-0.16em;}.cls-28{letter-spacing:-0.08em;}.cls-29{letter-spacing:-0.09em;}.cls-30{letter-spacing:-0.05em;}.cls-31{letter-spacing:-0.3em;}.cls-32{letter-spacing:-0.16em;}.cls-33{letter-spacing:-0.13em;}.cls-34{letter-spacing:-0.06em;}.cls-35{letter-spacing:-0.07em;}.cls-36{letter-spacing:-0.2em;}.cls-37{letter-spacing:-0.27em;}.cls-38{letter-spacing:-0.3em;}.cls-39{letter-spacing:-0.27em;}.cls-40{letter-spacing:-0.11em;}.cls-41{letter-spacing:-0.34em;}.cls-42{font-size:14.73px;}.cls-42,.cls-59{fill:#ea5514;}.cls-43{letter-spacing:-0.04em;}.cls-44{letter-spacing:-0.09em;}.cls-45{letter-spacing:-0.1em;}.cls-46{font-size:10.31px;fill:#040000;letter-spacing:0.1em;}.cls-47{letter-spacing:0.05em;}.cls-48{letter-spacing:0.05em;}.cls-49{letter-spacing:0.07em;}.cls-50{letter-spacing:-0.07em;}.cls-51{letter-spacing:-0.12em;}.cls-52{letter-spacing:0.04em;}.cls-53{letter-spacing:0.08em;}.cls-54{letter-spacing:-0.02em;}.cls-55{letter-spacing:0.03em;}.cls-56{letter-spacing:-0.25em;}.cls-57,.cls-60,.cls-62{fill:none;}.cls-57{stroke:#ea5514;stroke-width:1.46px;}.cls-58{fill:#b9b9b9;}.cls-61{fill:#e1684b;}.cls-62{stroke:#e1684b;stroke-linecap:round;stroke-width:0.74px;}.cls-64{letter-spacing:-0.08em;}.cls-65{letter-spacing:-0.16em;}.cls-66{letter-spacing:-0.22em;}.cls-67{letter-spacing:0.02em;}.cls-68{letter-spacing:-0.1em;}.cls-69{letter-spacing:-0.08em;}.cls-70{letter-spacing:0.06em;}.cls-71{letter-spacing:-0.1em;}.cls-72{letter-spacing:-0.07em;}.cls-73{letter-spacing:-0.25em;}.cls-74{letter-spacing:-0.16em;}.cls-75{letter-spacing:0.02em;}.cls-76{letter-spacing:-0.03em;}.cls-77{letter-spacing:-0.01em;}.cls-78{letter-spacing:0em;}.cls-79{letter-spacing:-0.12em;}.cls-80{letter-spacing:-0.11em;}.cls-81{letter-spacing:-0.23em;}.cls-82{letter-spacing:-0.03em;}.cls-83{letter-spacing:-0.24em;}.cls-84{letter-spacing:-0.09em;}.cls-85{letter-spacing:-0.1em;}.cls-86{letter-spacing:-0.1em;}.cls-87{letter-spacing:-0.28em;}.cls-88{letter-spacing:-0.24em;}.cls-89{letter-spacing:-0.18em;}.cls-90{letter-spacing:-0.17em;}.cls-91{letter-spacing:-0.23em;}.cls-92{letter-spacing:-0.31em;}.cls-93{letter-spacing:-0.26em;}.cls-94{letter-spacing:-0.32em;}.cls-95{letter-spacing:-0.03em;}.cls-96{letter-spacing:-0.12em;}.cls-97{letter-spacing:-0.18em;}.cls-98{letter-spacing:-0.17em;}.cls-99{letter-spacing:-0.29em;}.cls-100{letter-spacing:-0.05em;}.cls-101{letter-spacing:-0.15em;}.cls-102{letter-spacing:-0.04em;}.cls-103{letter-spacing:0.02em;}.cls-104{letter-spacing:-0.01em;}.cls-105{letter-spacing:-0.04em;}.cls-106{letter-spacing:-0.14em;}.cls-107{letter-spacing:-0.2em;}.cls-108{letter-spacing:-0.05em;}.cls-109{letter-spacing:0em;}.cls-110{letter-spacing:0.03em;}.cls-111{letter-spacing:-0.3em;}.cls-112{letter-spacing:-0.04em;}.cls-113{letter-spacing:-0.05em;}.cls-114{letter-spacing:-0.02em;}.cls-115{letter-spacing:0.06em;}.cls-116{letter-spacing:-0.05em;}.cls-117{letter-spacing:-0.14em;}.cls-118{letter-spacing:-0.13em;}.cls-119{letter-spacing:-0.14em;}.cls-120{letter-spacing:-0.05em;}.cls-121{letter-spacing:-0.04em;}.cls-122{letter-spacing:-0.07em;}.cls-123{letter-spacing:-0.03em;}.cls-124{letter-spacing:-0.19em;}.cls-125{letter-spacing:-0.03em;}.cls-126{letter-spacing:-0.23em;}.cls-127{letter-spacing:-0.25em;}</style></defs><title>explain_tab2</title><rect id="長方形_425-2" data-name="長方形 425-2" class="cls-1" y="69.95" width="276.13" height="165.68"/><rect id="長方形_485" data-name="長方形 485" class="cls-2" y="75.11" width="276.13" height="155.37"/><g id="深掘りしたものは_あなたの思考回路です_なかなか記録にはできないもの_保存しておきましょう_" data-name="深掘りしたものは あなたの思考回路です なかなか記録にはできないもの 保存しておきましょう " class="cls-3"><text class="cls-4" transform="translate(67.65 128.86)">深<tspan class="cls-5" x="8.1" y="0">掘</tspan><tspan class="cls-6" x="14.57" y="0">り</tspan><tspan class="cls-7" x="19.79" y="0">し</tspan><tspan class="cls-8" x="26.92" y="0">た</tspan><tspan class="cls-9" x="34.19" y="0">も</tspan><tspan class="cls-10" x="41.18" y="0">の</tspan><tspan class="cls-11" x="48.32" y="0">は</tspan><tspan class="cls-12" x="56.51" y="0">、</tspan><tspan class="cls-13" x="61.74" y="0">あ</tspan><tspan class="cls-14" x="68.91" y="0">な</tspan><tspan class="cls-15" x="76.55" y="0">た</tspan><tspan class="cls-16" x="83.79" y="0">の</tspan></text><text class="cls-17" transform="translate(160.37 128.86)">思考回路</text><text class="cls-18" transform="translate(193.57 128.86)">で<tspan class="cls-19" x="7.87" y="0">す</tspan><tspan class="cls-20" x="13.71" y="0">！</tspan></text><text class="cls-4" transform="translate(42.86 143.59)"><tspan class="cls-21">な</tspan><tspan class="cls-22" x="7.87" y="0">か</tspan><tspan class="cls-21" x="15.49" y="0">な</tspan><tspan x="23.36" y="0">か記</tspan><tspan class="cls-23" x="39.56" y="0">録</tspan><tspan class="cls-24" x="46.97" y="0">に</tspan><tspan class="cls-25" x="54.25" y="0">は</tspan><tspan class="cls-26" x="62.17" y="0">で</tspan><tspan class="cls-27" x="69.72" y="0">き</tspan><tspan class="cls-28" x="76.52" y="0">な</tspan><tspan class="cls-29" x="83.98" y="0">い</tspan><tspan class="cls-9" x="91.35" y="0">も</tspan><tspan class="cls-30" x="98.34" y="0">の</tspan><tspan class="cls-31" x="106" y="0">、</tspan><tspan x="111.65" y="0">保</tspan><tspan class="cls-32" x="119.75" y="0">存</tspan><tspan class="cls-33" x="126.59" y="0">し</tspan><tspan class="cls-34" x="133.67" y="0">て</tspan><tspan class="cls-35" x="141.33" y="0">お</tspan><tspan class="cls-36" x="148.82" y="0">き</tspan><tspan class="cls-37" x="155.3" y="0">ま</tspan><tspan class="cls-38" x="161.17" y="0">し</tspan><tspan class="cls-39" x="166.85" y="0">ょ</tspan><tspan class="cls-40" x="172.74" y="0">う</tspan><tspan class="cls-41" x="179.95" y="0">。</tspan></text></g><g id="記録する" class="cls-3"><text class="cls-42" transform="translate(109.98 53.02)">記<tspan class="cls-43" x="14.73" y="0">録</tspan><tspan class="cls-44" x="28.9" y="0">す</tspan><tspan class="cls-45" x="42.33" y="0">る</tspan></text></g><g id="思考の足あとを残そう_" data-name="思考の足あとを残そう " class="cls-3"><text class="cls-46" transform="translate(83.29 100.15)">思<tspan class="cls-47" x="11.34" y="0">考</tspan><tspan class="cls-48" x="22.16" y="0">の</tspan><tspan class="cls-49" x="33" y="0">足</tspan><tspan class="cls-50" x="43.99" y="0">あ</tspan><tspan class="cls-51" x="53.54" y="0">と</tspan><tspan class="cls-52" x="62.61" y="0">を</tspan><tspan class="cls-53" x="73.33" y="0">残</tspan><tspan class="cls-54" x="84.5" y="0">そ</tspan><tspan class="cls-55" x="94.56" y="0">う</tspan><tspan class="cls-56" x="105.13" y="0">。</tspan></text></g><line id="線_101" data-name="線 101" class="cls-57" x1="83.11" y1="105.67" x2="192.28" y2="105.67"/><circle id="楕円形_97" data-name="楕円形 97" class="cls-58" cx="131.55" cy="259.2" r="3.68"/><circle id="楕円形_96" data-name="楕円形 96" class="cls-59" cx="142.59" cy="259.2" r="3.68"/><g id="グループ_726" data-name="グループ 726"><g id="グループ_521" data-name="グループ 521"><g id="パス_220" data-name="パス 220"><path class="cls-60" d="M-318.32,570.06v28h20.77l.07-20.34-5.82-7.67Z" transform="translate(447.45 -568.59)"/><path class="cls-61" d="M-318.32,570.06v28h20.77l.07-20.34-5.82-7.67h-15m0-1.47h15a1.49,1.49,0,0,1,1.17.58l5.82,7.67a1.51,1.51,0,0,1,.3.89l-.06,20.34a1.47,1.47,0,0,1-1.48,1.47h-20.77a1.47,1.47,0,0,1-1.47-1.47v-28A1.47,1.47,0,0,1-318.32,568.59Z" transform="translate(447.45 -568.59)"/></g><g id="パス_221" data-name="パス 221"><path class="cls-60" d="M-303.47,570.16v7.61h5.85Z" transform="translate(447.45 -568.59)"/><path class="cls-61" d="M-303.47,570.16v7.61h5.85l-5.85-7.61m0-1.47a1.46,1.46,0,0,1,1.17.57l5.85,7.61a1.48,1.48,0,0,1,.15,1.55,1.46,1.46,0,0,1-1.32.82h-5.85a1.47,1.47,0,0,1-1.47-1.47v-7.61a1.46,1.46,0,0,1,1-1.39A1.33,1.33,0,0,1-303.47,568.69Z" transform="translate(447.45 -568.59)"/></g></g><line id="線_121" data-name="線 121" class="cls-62" x1="133.3" y1="14.56" x2="145.24" y2="14.56"/><line id="線_122" data-name="線 122" class="cls-62" x1="133.3" y1="18.14" x2="145.24" y2="18.14"/><line id="線_123" data-name="線 123" class="cls-62" x1="133.3" y1="21.72" x2="145.24" y2="21.72"/></g><g id="アーカイブから見返してさらに自分を深めるもよし_何かをするときにヒントとして役立てるもよし_また_SNSでシェアして客観的な視点をとりこむのも_" data-name="アーカイブから見返してさらに自分を深めるもよし 何かをするときにヒントとして役立てるもよし また SNSでシェアして客観的な視点をとりこむのも " class="cls-3"><text class="cls-63" transform="translate(46.26 162.73)">ア<tspan class="cls-64" x="7.55" y="0">ー</tspan><tspan class="cls-65" x="14.97" y="0">カ</tspan><tspan class="cls-66" x="21.74" y="0">イ</tspan><tspan class="cls-67" x="28.08" y="0">ブ</tspan></text><text class="cls-68" transform="translate(83.85 162.74)">か<tspan class="cls-69" x="7.3" y="0">ら</tspan><tspan class="cls-70" x="14.77" y="0">見</tspan><tspan class="cls-71" x="23.35" y="0">返</tspan><tspan class="cls-72" x="30.68" y="0">し</tspan><tspan class="cls-26" x="38.25" y="0">て</tspan><tspan class="cls-73" x="45.8" y="0">さ</tspan><tspan class="cls-74" x="51.9" y="0">ら</tspan><tspan class="cls-75" x="58.68" y="0">に</tspan><tspan class="cls-70" x="66.95" y="0">自</tspan><tspan class="cls-76" x="75.54" y="0">分</tspan><tspan class="cls-77" x="83.39" y="0">を</tspan><tspan class="cls-70" x="91.42" y="0">深</tspan><tspan class="cls-78" x="100.01" y="0">め</tspan><tspan class="cls-79" x="108.09" y="0">る</tspan><tspan class="cls-80" x="115.23" y="0">も</tspan><tspan class="cls-81" x="122.46" y="0">よ</tspan><tspan class="cls-82" x="128.7" y="0">し</tspan><tspan class="cls-83" x="136.57" y="0">、</tspan></text><text class="cls-4" transform="translate(57.34 177.46)">何<tspan class="cls-84" x="8.1" y="0">か</tspan><tspan class="cls-85" x="15.46" y="0">を</tspan><tspan class="cls-86" x="22.73" y="0">す</tspan><tspan class="cls-87" x="30.04" y="0">る</tspan><tspan class="cls-88" x="35.92" y="0">と</tspan><tspan class="cls-89" x="42.09" y="0">き</tspan><tspan class="cls-90" x="48.69" y="0">に</tspan><tspan class="cls-91" x="55.41" y="0">ヒ</tspan><tspan class="cls-92" x="61.66" y="0">ン</tspan><tspan class="cls-93" x="67.21" y="0">ト</tspan><tspan class="cls-94" x="73.23" y="0">と</tspan><tspan class="cls-33" x="78.76" y="0">し</tspan><tspan class="cls-34" x="85.84" y="0">て</tspan><tspan x="93.49" y="0">役</tspan><tspan class="cls-95" x="101.59" y="0">立</tspan><tspan class="cls-96" x="109.41" y="0">て</tspan><tspan class="cls-97" x="116.56" y="0">る</tspan><tspan class="cls-98" x="123.22" y="0">も</tspan><tspan class="cls-99" x="129.96" y="0">よ</tspan><tspan class="cls-100" x="135.72" y="0">し</tspan><tspan class="cls-41" x="143.38" y="0">。</tspan></text><text class="cls-101" transform="translate(38.6 192.19)">ま<tspan class="cls-102" x="6.9" y="0">た</tspan><tspan class="cls-31" x="14.65" y="0">、</tspan></text><text class="cls-103" transform="translate(63.71 192.19)">SN<tspan class="cls-104" x="12.64" y="0">S</tspan><tspan class="cls-105" x="18.65" y="0">で</tspan><tspan class="cls-106" x="26.43" y="0">シ</tspan><tspan class="cls-107" x="33.4" y="0">ェ</tspan><tspan class="cls-108" x="39.88" y="0">ア</tspan></text><text class="cls-4" transform="translate(111.05 192.19)"><tspan class="cls-72">し</tspan><tspan class="cls-109" x="7.57" y="0">て</tspan><tspan class="cls-70" x="15.71" y="0">客観</tspan><tspan x="32.88" y="0">的</tspan><tspan class="cls-110" x="40.98" y="0">な</tspan><tspan class="cls-70" x="49.34" y="0">視</tspan><tspan class="cls-76" x="57.92" y="0">点</tspan><tspan class="cls-27" x="65.77" y="0">を</tspan><tspan class="cls-111" x="72.58" y="0">と</tspan><tspan class="cls-83" x="78.21" y="0">り</tspan><tspan class="cls-112" x="84.34" y="0">こ</tspan><tspan x="92.15" y="0">む</tspan><tspan class="cls-113" x="100.25" y="0">の</tspan><tspan class="cls-114" x="107.92" y="0">も</tspan><tspan class="cls-115" x="115.89" y="0">◎</tspan></text></g><g id="あなた次第でいろいろな使い道があるはず_" data-name="あなた次第でいろいろな使い道があるはず " class="cls-3"><text class="cls-4" transform="translate(57.02 212.81)"><tspan class="cls-13">あ</tspan><tspan class="cls-14" x="7.17" y="0">な</tspan><tspan class="cls-116" x="14.81" y="0">た</tspan><tspan x="22.53" y="0">次</tspan><tspan class="cls-76" x="30.63" y="0">第</tspan><tspan class="cls-102" x="38.48" y="0">で</tspan><tspan class="cls-117" x="46.23" y="0">い</tspan><tspan class="cls-118" x="53.23" y="0">ろ</tspan><tspan class="cls-117" x="60.26" y="0">い</tspan><tspan class="cls-119" x="67.26" y="0">ろ</tspan><tspan class="cls-21" x="74.23" y="0">な</tspan><tspan class="cls-120" x="82.1" y="0">使</tspan><tspan class="cls-121" x="89.79" y="0">い</tspan><tspan class="cls-122" x="97.6" y="0">道</tspan><tspan class="cls-123" x="105.14" y="0">が</tspan><tspan class="cls-79" x="113.02" y="0">あ</tspan><tspan class="cls-124" x="120.16" y="0">る</tspan><tspan class="cls-125" x="126.76" y="0">は</tspan><tspan class="cls-126" x="134.65" y="0">ず</tspan><tspan class="cls-127" x="140.86" y="0">！</tspan></text></g></svg>