<svg id="レイヤー_1" data-name="レイヤー 1" xmlns="http://www.w3.org/2000/svg" viewBox="0 0 375 355"><defs><style>.cls-1{fill:#9bb9c7;opacity:1;}.cls-1,.cls-3{isolation:isolate;}.cls-2{fill:#fff;}.cls-4{fill:#5d5d5d;}.cls-5{fill:#ed6a4c;}.cls-6{fill:#2e2e2e;}.cls-7,.cls-8{fill:none;stroke-width:2px;}.cls-7{stroke:#ed6a4c;}.cls-8{stroke:#ec6a4c;}.cls-9{fill:#b9b9b9;}</style></defs><rect id="長方形_423" data-name="長方形 423" class="cls-1" y="93" width="375" height="225"/><rect id="長方形_484" data-name="長方形 484" class="cls-2" y="100" width="375" height="211"/><g id="_あなたが取り組みたいことや叶えたいことについて_なぜ_と繰り返し自分に問いかけてみよう_" data-name=" あなたが取り組みたいことや叶えたいことについて なぜ と繰り返し自分に問いかけてみよう " class="cls-3"><g class="cls-3"><path class="cls-4" d="M182.91,374.36l-.66-1.09c2.31-1.06,2.79-1.69,2.79-2.25a1.71,1.71,0,0,0-1.16-1.59,11.26,11.26,0,0,1-2.06,3,2.53,2.53,0,0,0,.4.67l-1.17.83a3.88,3.88,0,0,1-.39-.6,4,4,0,0,1-2,.54,1.82,1.82,0,0,1-1.66-1.81,4,4,0,0,1,3-3.68c0-.38,0-.77,0-1.19-.7.07-1.37.11-2,.11h-.48l0-1.5a3.32,3.32,0,0,0,1,.09,15.59,15.59,0,0,0,1.58-.08c0-.46.05-.94.09-1.46l1.66,0c-.23.12-.3,1-.34,1.3a27.56,27.56,0,0,0,3.1-.52l.09,1.36c-.75.16-2,.38-3.33.55,0,.35,0,.69-.05,1,.31,0,.61-.06.93-.06s.66,0,1,.06c.1-.24.19-.48.27-.73l1.16.35-.26.63a2.74,2.74,0,0,1,2.08,2.71C186.48,372.29,185.62,373.2,182.91,374.36ZM180,369.68a2.68,2.68,0,0,0-1.69,2.17.62.62,0,0,0,.68.66,2.44,2.44,0,0,0,1.26-.39A14.13,14.13,0,0,1,180,369.68Zm2.23-.55a5.15,5.15,0,0,0-.94.09,14.28,14.28,0,0,0,.15,1.85,10.51,10.51,0,0,0,1.28-1.92Z" transform="translate(-116.97 -198.36)"/><path class="cls-4" d="M191.44,367.32a56.62,56.62,0,0,1-1.71,5.55l-1.38-.54a26.57,26.57,0,0,0,1.67-4.76c-.53.08-1,.12-1.52.15l-.14-1.5a3.84,3.84,0,0,0,.52,0,10.81,10.81,0,0,0,1.48-.12,16.35,16.35,0,0,0,.33-1.94l1.65.35c-.26.12-.45,1.08-.52,1.34.51-.11,1-.23,1.53-.37l.08,1.35C192.77,367,192.1,367.19,191.44,367.32Zm5.76,6.1c-.63-.37-1.31-.72-1.95-1v.09a1.79,1.79,0,0,1-2,1.69c-1.59,0-2.14-.91-2.14-1.85a1.78,1.78,0,0,1,2-1.65,7.73,7.73,0,0,1,.84.05c0-.39,0-.81,0-1.18a3.81,3.81,0,0,1,0-.84,2,2,0,0,1,1.1-1.12c-.4-.19-.78-.35-1.1-.47l.56-1.13a16.26,16.26,0,0,1,3.27,1.53l-.68,1.18a8.6,8.6,0,0,0-.9-.53c-.59.24-1,.59-1,1,0,.17,0,1.07,0,1.91a21.16,21.16,0,0,1,2.63,1.07ZM194,371.91a3.31,3.31,0,0,0-1-.17c-.62,0-.85.37-.85.69s.38.67.89.67a.93.93,0,0,0,.93-1Z" transform="translate(-116.97 -198.36)"/><path class="cls-4" d="M202.86,367.9c-.52,2.35-1.18,5.22-1.53,6.35l-1.45-.43a34,34,0,0,0,1.59-5.78c-.51,0-1.06,0-1.64,0l-.11-1.42a8.42,8.42,0,0,0,.9.05c.37,0,.74,0,1.11-.05.18-1,.31-1.89.35-2.39l1.71.26a.77.77,0,0,0-.27.46c-.09.36-.21.89-.34,1.51a9.56,9.56,0,0,0,1.76-.37l.14,1.38C204.59,367.62,203.84,367.77,202.86,367.9Zm3,5.91c-1.8,0-2.17-1-2.17-1.68a5.43,5.43,0,0,1,.36-1.67l1.18.18a3.68,3.68,0,0,0-.25,1.05c0,.58.23.78,1.57.78a16.21,16.21,0,0,0,2.68-.26v1.49C207.69,373.79,206.64,373.81,205.82,373.81Zm3-4.84a12.34,12.34,0,0,0-2.93-.41,4.53,4.53,0,0,0-.77.05l.1-1.25a8.35,8.35,0,0,1,1-.06,17.43,17.43,0,0,1,2.83.31Z" transform="translate(-116.97 -198.36)"/><path class="cls-4" d="M214.07,374l-.27-1.38c2-.28,2.19-.46,2.19-2.26,0-2-.23-2.25-.74-2.25h-1c-.55,2.09-1.23,4.64-1.7,6l-1.42-.54a35.71,35.71,0,0,0,1.75-5.45,12.81,12.81,0,0,0-1.78.18l-.05-1.5h2.15a17.24,17.24,0,0,0,.43-2.37l1.66.37c-.29.11-.63,1.71-.7,2h1c1.31,0,1.75.42,1.75,3.57C217.33,373,217.1,373.4,214.07,374Zm5.18-3c-.83-2.22-1.08-2.89-1.73-3.42l.86-.65c.75.62,1,1,2.15,3.41Zm.22-3.89-1-1.16.53-.45,1,1.16Zm.86-.71-1-1.15.52-.46,1,1.15Z" transform="translate(-116.97 -198.36)"/><path class="cls-4" d="M232.19,374.26a11.06,11.06,0,0,1-1.8-2.07,11.21,11.21,0,0,1-1.83,2l-.9-1a8.14,8.14,0,0,0,2-2.16,14.27,14.27,0,0,1-1.26-3.33l1.1-.3a12,12,0,0,0,.85,2.38,11.6,11.6,0,0,0,.94-3.12h-3v-.86h-.76v8.56h-1.23v-1.58c-.68.2-1.49.4-2.36.59a1.41,1.41,0,0,0-.83.34l-.31-1.45.73-.1v-6.36h-.72v-1.19h5.5v.74h4.32v1.22a12.45,12.45,0,0,1-1.49,4.54,9.86,9.86,0,0,0,1.93,2.2Zm-5.91-8.51h-1.52V367h1.52Zm0,2.37h-1.52v1.23h1.52Zm0,2.33h-1.52v1.44c.55-.12,1.05-.24,1.52-.37Z" transform="translate(-116.97 -198.36)"/><path class="cls-4" d="M236.22,371.66c-.7,0-1.4-1.85-1.4-3.71a21.34,21.34,0,0,1,.39-3.18l1.61.19a.92.92,0,0,0-.33.58,12.75,12.75,0,0,0-.34,2.39,4.68,4.68,0,0,0,.23,1.68,12.45,12.45,0,0,0,1-1.76l.84.7C237.27,370.48,236.6,371.66,236.22,371.66Zm2,2.69-1-1c2.17-1.73,2.79-3.06,2.79-4.45,0-.69-.07-3.56-.2-4.35l1.53-.13a.36.36,0,0,0-.1.29c0,.08,0,.17,0,.27.1,1,.11,2.88.11,3.67V369C241.38,370.57,240.6,372.41,238.19,374.35Z" transform="translate(-116.97 -198.36)"/><path class="cls-4" d="M244.68,371.45a14.69,14.69,0,0,1-.6,2.41l-.84-.4a10.06,10.06,0,0,0,.65-2.78l1,.14C244.78,370.86,244.74,371,244.68,371.45Zm2.56-1.2-.2-.62a6.77,6.77,0,0,1-.89.21v4.41h-1V370a5.43,5.43,0,0,0-1.74.33l-.14-1.31h.8l.85-1.19-1.6-1.14.54-.92.31.21,1-1.74,1.05.46a1.53,1.53,0,0,0-.53.55l-.79,1.25.62.43,1-1.46,1,.61a1.12,1.12,0,0,0-.62.49l-1.66,2.32c.48,0,1-.13,1.37-.21l-.19-.6.73-.22L248,370Zm.09,3.84v-1.22l-.26.09-.72-2.17.76-.26.76,2.13-.49.18h.72v-8.3h4.57v8.3h.77v1.25Zm4.07-8.35h-2.05v1.55h2.05Zm0,2.76h-2.05v1.55h2.05Zm0,2.74h-2.05v1.6h2.05Z" transform="translate(-116.97 -198.36)"/><path class="cls-4" d="M265.22,372.1l-1.51-.52a22.35,22.35,0,0,1-1.69,2.55l-1.18-.77a15.83,15.83,0,0,0,1.55-2.21,23.56,23.56,0,0,0-2.32-.63c-.83,1.51-1.74,2.73-2.86,2.73s-1.69-.68-1.69-1.9a2.54,2.54,0,0,1,2.59-2.33,10.79,10.79,0,0,1,1.21.07c.46-.93.9-1.92,1.24-2.68a18,18,0,0,1-3.34.44l-.09-1.43c2.95,0,4-.31,4.25-.54l1.14.82a35.27,35.27,0,0,0-1.85,3.62c.66.15,1.42.33,2.29.56a5.29,5.29,0,0,0,.27-1.73V368l1.38.2a8.78,8.78,0,0,1-.34,2.06l1.45.44Zm-7.13-1.83a1.37,1.37,0,0,0-1.48,1.08c0,.38.21.61.52.61s1-.7,1.55-1.66Z" transform="translate(-116.97 -198.36)"/><path class="cls-4" d="M270.58,367.9c-.51,2.35-1.17,5.22-1.53,6.35l-1.45-.43a33.93,33.93,0,0,0,1.6-5.78c-.51,0-1.06,0-1.64,0l-.11-1.42a8.27,8.27,0,0,0,.9.05c.36,0,.74,0,1.11-.05.18-1,.31-1.89.34-2.39l1.72.26a.83.83,0,0,0-.28.46c-.08.36-.21.89-.34,1.51a9.36,9.36,0,0,0,1.76-.37l.15,1.38C272.32,367.62,271.56,367.77,270.58,367.9Zm3,5.91c-1.79,0-2.16-1-2.16-1.68a5.14,5.14,0,0,1,.36-1.67l1.18.18a3.87,3.87,0,0,0-.26,1.05c0,.58.23.78,1.58.78a16.43,16.43,0,0,0,2.68-.26v1.49C275.41,373.79,274.37,373.81,273.54,373.81Zm3-4.84a12.27,12.27,0,0,0-2.92-.41,4.53,4.53,0,0,0-.77.05l.1-1.25a8.35,8.35,0,0,1,1-.06,17.54,17.54,0,0,1,2.83.31Z" transform="translate(-116.97 -198.36)"/><path class="cls-4" d="M281.4,373.85c-.8,0-2.1-1.55-2.25-4,0-.27,0-.6,0-1,0-1.1.07-2.55.18-3.62l1.5,0c-.33.3-.35,3.08-.35,3.62,0,.34,0,.61,0,.77.1,1.48.59,2.3.85,2.3s.51-.62,1.17-1.86l1.08.64C282.18,373,281.64,373.85,281.4,373.85Zm5.55-2.37a19.52,19.52,0,0,0-1.54-4.29l1.23-.51a21.6,21.6,0,0,1,1.75,4.3Z" transform="translate(-116.97 -198.36)"/><path class="cls-4" d="M294.64,373.53c-2.85,0-4.26-.8-4.27-2.07a6.34,6.34,0,0,1,.84-2.11l1.09.46a3.45,3.45,0,0,0-.63,1.38c0,.5.76,1,2.91,1a31.9,31.9,0,0,0,3.92-.34l.06,1.46C297.07,373.43,295.82,373.53,294.64,373.53Zm.14-6.26c-.85,0-1.92,0-3.27-.14v-1.4c1.25.12,2.31.17,3.18.17a7.89,7.89,0,0,0,3-.38l.2,1.37A8.18,8.18,0,0,1,294.78,367.27Z" transform="translate(-116.97 -198.36)"/><path class="cls-4" d="M307.4,373.91c-1.8.1-2.81.17-3.61.17-1.83,0-3.36-.75-3.36-2.75,0-1.28.69-2.16,2.42-2.86a21.72,21.72,0,0,1-.22-4.17l1.53-.07a1,1,0,0,0-.16.6,22.59,22.59,0,0,0,.13,3.19c.79-.21,1.7-.43,2.77-.63l.14,1.41c-4.13.58-5.22,1.32-5.22,2.45,0,1,.68,1.48,2,1.48,1,0,2.78-.18,3.68-.29Z" transform="translate(-116.97 -198.36)"/><path class="cls-4" d="M316.66,370.74a9.13,9.13,0,0,1-1.87-.21l.13-1.31a10.09,10.09,0,0,0,1.56.19c1.2,0,1.71-.65,1.71-1.32A1.08,1.08,0,0,0,317,367a3.82,3.82,0,0,0-.87.12l.36.95-1.18.46c-.14-.4-.27-.74-.39-1-.56.19-1.2.46-1.88.75.63,1.49,1.39,3.32,2.14,5.3l-1.29.56c-.61-1.82-1.37-3.72-2.08-5.32l-1.6.75-.59-1.31,1.63-.7c-.43-.93-.8-1.67-1.06-2.14l1.44-.63v.06a10.25,10.25,0,0,0,.86,2.19c.67-.27,1.32-.54,1.94-.75a15.43,15.43,0,0,0-.7-1.46l1.34-.53v.1a6.19,6.19,0,0,0,.57,1.53,6.61,6.61,0,0,1,1.54-.23,2.45,2.45,0,0,1,2.37,2.34A2.7,2.7,0,0,1,316.66,370.74Z" transform="translate(-116.97 -198.36)"/><path class="cls-4" d="M329.36,368.85v5.38h-1.44v-5.38h-2.41v3.39H323v.59h-1.19V365h3.73v2.49h2.41v-3.37h1.64c-.15.18-.2.41-.2,1.17v2.2h2.29v1.36Zm-5.05-2.62H323V371h1.34Z" transform="translate(-116.97 -198.36)"/><path class="cls-4" d="M342.75,374c-.71,0-1.36,0-1.93,0h-.29c-1.15,0-1.84,0-1.82-1.61v-.7c0-.65-.14-.91-.82-.91h-.19c-1.55,1.58-3.07,3.21-3.14,3.29l-1-1.09a64.06,64.06,0,0,0,5-4.71c-1.06,0-3.06.21-3.84.3v-1.47c4.51,0,5.14-.16,5.47-.45l.81,1.09a18.56,18.56,0,0,0-2.36,2.15h.27c.85,0,1.1.45,1.1,1.61v.15c0,.87.19,1,.51,1a16.45,16.45,0,0,0,2.32-.17Zm-3.08-7.63c-2.91-.36-3.46-.52-4.09-.91l.45-1.19c.48.31.86.46,3.89.79Z" transform="translate(-116.97 -198.36)"/><path class="cls-4" d="M347.79,367.9c-.51,2.35-1.17,5.22-1.53,6.35l-1.45-.43a33.93,33.93,0,0,0,1.6-5.78c-.51,0-1.06,0-1.64,0l-.11-1.42a8.27,8.27,0,0,0,.9.05c.36,0,.74,0,1.11-.05.18-1,.31-1.89.34-2.39l1.72.26a.83.83,0,0,0-.28.46l-.34,1.51a9.36,9.36,0,0,0,1.76-.37l.15,1.38C349.53,367.62,348.77,367.77,347.79,367.9Zm3,5.91c-1.79,0-2.16-1-2.16-1.68a5.14,5.14,0,0,1,.36-1.67l1.18.18a3.87,3.87,0,0,0-.26,1.05c0,.58.23.78,1.58.78a16.43,16.43,0,0,0,2.68-.26v1.49C352.62,373.79,351.58,373.81,350.75,373.81Zm3-4.84a12.27,12.27,0,0,0-2.92-.41,4.53,4.53,0,0,0-.77.05l.1-1.25a8.35,8.35,0,0,1,1-.06,17.54,17.54,0,0,1,2.83.31Z" transform="translate(-116.97 -198.36)"/><path class="cls-4" d="M358.61,373.85c-.8,0-2.11-1.55-2.25-4,0-.27,0-.6,0-1,0-1.1.07-2.55.18-3.62l1.5,0c-.33.3-.35,3.08-.35,3.62,0,.34,0,.61,0,.77.1,1.48.59,2.3.85,2.3s.51-.62,1.17-1.86l1.08.64C359.39,373,358.85,373.85,358.61,373.85Zm5.55-2.37a19.52,19.52,0,0,0-1.54-4.29l1.23-.51a21.6,21.6,0,0,1,1.75,4.3Z" transform="translate(-116.97 -198.36)"/><path class="cls-4" d="M371.85,373.53c-2.85,0-4.26-.8-4.27-2.07a6.34,6.34,0,0,1,.84-2.11l1.09.46a3.45,3.45,0,0,0-.63,1.38c0,.5.76,1,2.91,1a31.9,31.9,0,0,0,3.92-.34l.06,1.46C374.28,373.43,373,373.53,371.85,373.53Zm.14-6.26c-.85,0-1.92,0-3.27-.14v-1.4c1.25.12,2.31.17,3.18.17a7.89,7.89,0,0,0,3-.38l.2,1.37A8.18,8.18,0,0,1,372,367.27Z" transform="translate(-116.97 -198.36)"/><path class="cls-4" d="M384.61,373.91c-1.8.1-2.81.17-3.61.17-1.83,0-3.36-.75-3.36-2.75,0-1.28.69-2.16,2.42-2.86a20.86,20.86,0,0,1-.22-4.17l1.53-.07a1,1,0,0,0-.16.6,21.11,21.11,0,0,0,.13,3.19c.79-.21,1.7-.43,2.77-.63l.14,1.41c-4.13.58-5.22,1.32-5.22,2.45,0,1,.68,1.48,2,1.48,1,0,2.78-.18,3.68-.29Z" transform="translate(-116.97 -198.36)"/></g><g class="cls-3"><path class="cls-4" d="M389.11,373.91l-.78-.18A30.92,30.92,0,0,1,388,369a30.61,30.61,0,0,1,.46-4.24l1.09.2c-.44.28-.68,3.49-.68,4,0,3.05.09,3.5.13,3.5a11.77,11.77,0,0,0,.68-1.47l.49.44A21.12,21.12,0,0,0,389.11,373.91Zm4.29-.84c-1.42,0-2.21-.78-2.21-1.71a3.92,3.92,0,0,1,.33-1.5l.79.2a3.63,3.63,0,0,0-.25,1.11c0,.6.37,1,1.92,1a17.74,17.74,0,0,0,2.8-.24l.08,1A25.54,25.54,0,0,1,393.4,373.07Zm3-6.3a12.75,12.75,0,0,0-1.73-.09c-.93,0-2,.06-3.1.13l-.06-.94c.69-.05,2-.08,3.38-.08l1.6,0Z" transform="translate(-116.97 -198.36)"/><path class="cls-4" d="M401.68,373.4l-.27-.92c4.43-1,5.68-1.68,5.68-3.25a2,2,0,0,0-2.15-2.06c-1.33,0-2.37.37-5.95,1.25l-.21-1h.1a1.35,1.35,0,0,0,.35-.06c3.93-.91,4.64-1.1,5.71-1.1a2.78,2.78,0,0,1,3.12,3C408.06,371.38,406.85,372.21,401.68,373.4Z" transform="translate(-116.97 -198.36)"/><path class="cls-4" d="M412.29,373.65c-.74,0-1.77-1.49-1.91-3.8,0-.38,0-.91,0-1.5a29.55,29.55,0,0,1,.13-3l1,.06a8.62,8.62,0,0,0-.28,2.73c0,.75,0,1.37,0,1.65.1,1.62.63,2.6,1,2.6a7.84,7.84,0,0,0,1.28-2.07l.75.45C413,372.79,412.6,373.65,412.29,373.65Zm5.94-2.24a18.69,18.69,0,0,0-1.61-4.23l.85-.35a22.36,22.36,0,0,1,1.75,4.24Z" transform="translate(-116.97 -198.36)"/><path class="cls-4" d="M428.47,366.23c-1.89,1.13-3.45,2.87-3.45,4.38s1.08,2.35,4,2.35h.34l-.07,1h-.15c-3.49,0-5.1-1.08-5.1-3.29,0-1.49,1.23-3,2.93-4.22-2.22.27-4.73.56-5.74.67l-.11-1.08a1.83,1.83,0,0,0,.35,0h.22c2.39-.17,6.23-.56,8.55-1l.09,1Z" transform="translate(-116.97 -198.36)"/><path class="cls-4" d="M434.69,373.77a10.39,10.39,0,0,0-1.75-2.74l.71-.46a12.54,12.54,0,0,1,1.82,2.72Z" transform="translate(-116.97 -198.36)"/></g><g class="cls-3"><path class="cls-4" d="M186.85,389.43v-1.07a1.6,1.6,0,0,1,.38-1.12h.7a1.48,1.48,0,0,0-.47,1.12H188v1.07Zm1.48,0v-1.07a1.65,1.65,0,0,1,.39-1.12h.71a1.43,1.43,0,0,0-.5,1.12h.54v1.07Z" transform="translate(-116.97 -198.36)"/><path class="cls-4" d="M194.93,390.07a48.52,48.52,0,0,1-1.8,5.65l-.94-.38a27.19,27.19,0,0,0,1.76-5.1,15.17,15.17,0,0,1-1.8.2l-.07-1h.28a13.82,13.82,0,0,0,1.82-.17c.16-.75.28-1.44.35-2l1.2.24c-.28.14-.48,1.27-.55,1.55.58-.12,1.18-.27,1.73-.42l.07.93C196.35,389.76,195.63,389.93,194.93,390.07Zm5.91,6.12a21.15,21.15,0,0,0-2.18-1.05v.32a1.67,1.67,0,0,1-1.81,1.59c-1.48,0-2-.84-2-1.67a1.63,1.63,0,0,1,1.81-1.51,5.86,5.86,0,0,1,1.1.11c0-.36,0-.74,0-1.11a7.26,7.26,0,0,1,.05-1.17,2.18,2.18,0,0,1,1.23-1.17,13,13,0,0,0-1.38-.56l.38-.76a16.63,16.63,0,0,1,3.16,1.45l-.48.81a10.24,10.24,0,0,0-.88-.53c-.71.27-1.2.68-1.2,1.1,0,.18,0,1.26,0,2.18a25,25,0,0,1,2.66,1.06Zm-3.06-1.36a4.39,4.39,0,0,0-1.17-.18c-.76,0-1,.41-1,.82s.48.8,1.12.8a1.05,1.05,0,0,0,1-1.12Z" transform="translate(-116.97 -198.36)"/><path class="cls-4" d="M210.46,391.24v1.83c0,.76-.43,1-2.56,1.48l-.24-.85c1.64-.3,1.89-.47,1.89-1.1v-1.28c-1.09.1-2.32.18-3.45.22v3.56a.74.74,0,0,0,.67.74,41.22,41.22,0,0,0,4.84-.26v1c-.94.1-2.84.18-4.12.18-.5,0-.92,0-1.14,0a1.32,1.32,0,0,1-1.16-1.35v-3.77c-.33,0-.65,0-1,0s-.7,0-1,0v-1a9.45,9.45,0,0,0,1.57.09h.39c0-1,0-1.92,0-2.31h1.1a1.36,1.36,0,0,0-.13.62v1.68c1.1-.05,2.32-.12,3.43-.22,0-1,0-2-.07-2.91l1,0a.94.94,0,0,0-.11.51l0,2.28a20.06,20.06,0,0,0,2.31-.34l0,1A21.55,21.55,0,0,1,210.46,391.24Zm1.31-2.1L211,388l.49-.35.81,1.19Zm1-.6-.82-1.19.48-.34.82,1.19Z" transform="translate(-116.97 -198.36)"/><path class="cls-4" d="M220.88,392.66c-1,.39-1.13.92-1.13,2.32h-1c0-2,.33-2.59,1.51-3,1.75-.66,2.11-1,2.11-1.93s-.65-1.8-2.31-1.8h-1.6a2,2,0,0,0-2.19,2.13v.6h-1v-.6a2.92,2.92,0,0,1,3.16-3.08h1.6c2,0,3.26,1,3.26,2.75C223.33,391.51,222.64,392,220.88,392.66Zm-2.2,4.48V396h1.16v1.11Z" transform="translate(-116.97 -198.36)"/><path class="cls-4" d="M227.07,389.42h-.72a1.49,1.49,0,0,0,.49-1.12h-.53v-1.06h1.13v1.06A1.73,1.73,0,0,1,227.07,389.42Zm1.47,0h-.7a1.51,1.51,0,0,0,.47-1.12h-.52v-1.06h1.13v1.06A1.62,1.62,0,0,1,228.54,389.42Z" transform="translate(-116.97 -198.36)"/><path class="cls-4" d="M240,396.83c-1.79.1-2.69.16-3.49.16-1.79,0-3.18-.8-3.19-2.69,0-1.24.68-2.07,2.42-2.71a16,16,0,0,1-.22-3.78v-.45l1,0a.83.83,0,0,0-.12.49,15.67,15.67,0,0,0,.17,3.48c.79-.23,1.75-.44,2.88-.65l.11,1c-4.26.6-5.34,1.35-5.34,2.69,0,1.12.76,1.8,2.18,1.8,1,0,2.7-.17,3.59-.27Z" transform="translate(-116.97 -198.36)"/><path class="cls-4" d="M243.24,394.36a11.77,11.77,0,0,1-.57,2.33l-.63-.29a10.22,10.22,0,0,0,.62-2.77l.83.17C243.35,393.83,243.28,394,243.24,394.36Zm2.4-1.19-.28-.66c-.26.07-.55.12-.82.18v4.5h-.73v-4.36c-.36.05-1.45.11-1.68.37l-.08-1c.15,0,.36,0,.61,0l.91-1.52-1.42-1.16.43-.64.28.23.94-1.77.81.37a.92.92,0,0,0-.44.44l-.76,1.41.57.45.89-1.47.72.46a.9.9,0,0,0-.45.41l-1.6,2.71a14.92,14.92,0,0,0,1.56-.26l-.29-.68.55-.22.83,2Zm-.23,2.72-.62-2.14.59-.19.65,2.12Zm6.27,1.14a7.83,7.83,0,0,1-2.21-2.07v2.23h-.86V395a7.8,7.8,0,0,1-2.25,2.05l-.45-.69a6.94,6.94,0,0,0,2.31-1.95h-2.17v-.74h2.56V393h1c-.11.08-.17.3-.17.69H252v.74h-2.14a7,7,0,0,0,2.26,1.94Zm-5.5-4.33v-2.41h2.55v2.41Zm1.89-1.77h-1.23v1.12h1.23Zm-.92-1.25v-2.3h3.77v2.3Zm2.95-1.63H248v1h2.13Zm-.76,4.65v-2.41h2.56v2.41Zm1.9-1.77H250v1.12h1.24Z" transform="translate(-116.97 -198.36)"/><path class="cls-4" d="M255.14,394.47c-.64,0-1.09-2.19-1.09-3.57a25,25,0,0,1,.36-3l1.18.13c-.47.33-.63,2.34-.63,2.87a6.25,6.25,0,0,0,.3,2.14c.24,0,.78-1.44,1-1.92l.57.5C255.89,393.65,255.51,394.47,255.14,394.47Zm1.63,2.79-.64-.7c2.25-1.65,2.8-3.19,2.8-4.53a36.31,36.31,0,0,0-.19-4.43l1.08-.08a.4.4,0,0,0-.11.34c0,1.42.11,2.85.11,4.27C259.82,393.74,259.27,395.32,256.77,397.26Z" transform="translate(-116.97 -198.36)"/><path class="cls-4" d="M271.48,397H266a2.75,2.75,0,0,1-2.34-1.13l-1.06.83a1,1,0,0,0-.35.45l-.48-.83,1.47-1.13v-2.94h-1.35v-.89h2.2v3.72a2,2,0,0,0,2,1.06c3.62,0,5,0,5.81-.08Zm-7.87-7.49L262,388.4l.49-.64,1.6,1.1Zm7.82,5.87a8.62,8.62,0,0,1-2.58-1.51,8.33,8.33,0,0,1-2.39,1.5l-.44-.72a7.29,7.29,0,0,0,2.24-1.32,9.19,9.19,0,0,1-1.47-1.94l.64-.35a7.4,7.4,0,0,0,1.37,1.76,5.89,5.89,0,0,0,1.35-2.26h-3.91a9.64,9.64,0,0,1-1.21,4.65l-.73-.44a8.38,8.38,0,0,0,1.1-4.57v-2.6h5.92v.81h-5.08v1.36H271v.77a6.79,6.79,0,0,1-1.55,2.79,8.56,8.56,0,0,0,2.42,1.33Z" transform="translate(-116.97 -198.36)"/><path class="cls-4" d="M276.59,396.93c-1.5,0-2.27-.72-2.27-2,0-.4.05-3.73.05-5.78,0-.77,0-1.35,0-1.54l1.14,0c-.27.39-.29,3.78-.29,4.73v.18c0,1.24,0,2.25,0,2.34,0,.6.3,1.12,1.26,1.12a10.51,10.51,0,0,0,4.4-1.62l.41.85A11.78,11.78,0,0,1,276.59,396.93Z" transform="translate(-116.97 -198.36)"/><path class="cls-4" d="M291.31,397.14v-.31h-6v.31h-.92V388.3h2.93l.4-1.15,1.06.22c-.13,0-.22.16-.34.48l-.18.45h4v8.84Zm0-8h-6v1.77h6Zm0,2.57h-6v1.76h6Zm0,2.57h-6V396h6Z" transform="translate(-116.97 -198.36)"/><path class="cls-4" d="M299.18,388.05a10.47,10.47,0,0,1-3.36,3.94l-.64-.8a8.38,8.38,0,0,0,3.33-4l1.1.35C299.43,387.58,299.34,387.75,299.18,388.05Zm3,9.11h-1.65l-.35-1a11.31,11.31,0,0,0,1.85.1.71.71,0,0,0,.72-.75v-3.34h-2.82a7,7,0,0,1-3.42,5.15l-.62-.83a5.67,5.67,0,0,0,3.1-4.32h-1.9v-.9h6.57v4.37A1.41,1.41,0,0,1,302.14,397.16Zm2.93-5.12a10.55,10.55,0,0,1-3.74-4.51l.86-.31a8.78,8.78,0,0,0,3.4,4Z" transform="translate(-116.97 -198.36)"/><path class="cls-4" d="M308.48,396.91l-.78-.18a30.92,30.92,0,0,1-.29-4.77,30.61,30.61,0,0,1,.46-4.24l1.09.2c-.44.28-.68,3.49-.68,4,0,3.05.09,3.5.13,3.5a11.77,11.77,0,0,0,.68-1.47l.49.44A21.12,21.12,0,0,0,308.48,396.91Zm4.29-.84c-1.42,0-2.21-.78-2.21-1.71a3.92,3.92,0,0,1,.33-1.5l.79.2a3.63,3.63,0,0,0-.25,1.11c0,.6.37,1,1.92,1a17.74,17.74,0,0,0,2.8-.24l.09,1A25.74,25.74,0,0,1,312.77,396.07Zm3-6.3a12.65,12.65,0,0,0-1.73-.09c-.93,0-2,.06-3.1.13l-.05-.94c.68-.05,2-.08,3.37-.08l1.6,0Z" transform="translate(-116.97 -198.36)"/><path class="cls-4" d="M319.52,391.28v5.91h-.91v-9.67h4.09v3.76Zm2.32-3.07h-2.32v.89h2.32Zm0,1.54h-2.32v.86h2.32Zm.07,6.07v.41h-.8v-3.85h4.28v3.44Zm2.67-2.65h-2.67V395h2.67Zm2.13,4h-1.3l-.35-1a9.1,9.1,0,0,0,1.47.1.5.5,0,0,0,.43-.5v-4.54h-3.17v-3.76h4.07V396A1.1,1.1,0,0,1,326.71,397.19Zm.25-9h-2.31v.89H327Zm0,1.54h-2.31v.86H327Z" transform="translate(-116.97 -198.36)"/><path class="cls-4" d="M332.56,396.65c-.74,0-1.76-1.49-1.9-3.8,0-.38,0-.91,0-1.5,0-1,0-2.13.13-3l1,.06c-.29.29-.29,2.3-.29,2.73,0,.75,0,1.37.06,1.65.1,1.62.62,2.6,1,2.6a7.69,7.69,0,0,0,1.27-2.07l.75.45C333.28,395.79,332.88,396.65,332.56,396.65Zm5.94-2.24a18.69,18.69,0,0,0-1.61-4.23l.85-.35a21.13,21.13,0,0,1,1.75,4.24Z" transform="translate(-116.97 -198.36)"/><path class="cls-4" d="M345.07,396.78l-.19-1c2-.24,2.22-.41,2.22-2.48s-.24-2.5-.77-2.5h-1.21c-.52,2-1.18,4.46-1.73,6.1l-1-.38a42.9,42.9,0,0,0,1.77-5.71,14.19,14.19,0,0,0-2.05.16l-.05-1h2.32a20,20,0,0,0,.45-2.4l1.18.28c-.26.07-.63,1.86-.69,2.11l1.21,0c1,0,1.48.43,1.48,3.42C348,395.93,347.84,396.31,345.07,396.78Zm5.56-3c-.8-2.25-1.11-2.81-1.72-3.29l.67-.5c.72.6.9,1,2,3.35Z" transform="translate(-116.97 -198.36)"/><path class="cls-4" d="M354.7,397l-.8-.18a26.17,26.17,0,0,1-.4-4.88,42.87,42.87,0,0,1,.45-4.29l1.09.17c-.42.3-.64,3.56-.64,4.09,0,3.05.14,3.58.19,3.58a11.19,11.19,0,0,0,.78-1.57l.57.49A18.06,18.06,0,0,0,354.7,397ZM361,391c0,.52,0,1.13,0,1.84,0,1.49-.3,2.52-2,4.47l-.75-.55c1.57-1.86,1.79-2.63,1.79-4.06,0-.38,0-1,0-1.6-.81.06-1.66.1-2.42.1a11.92,11.92,0,0,1-1.26-.05l-.05-1a5.12,5.12,0,0,0,1.43.13c.67,0,1.47,0,2.28-.11a24.57,24.57,0,0,0-.2-2.84h1.09a.89.89,0,0,0-.09.41v.06c0,.65.09,1.31.12,2.26a17.2,17.2,0,0,0,1.73-.29v1C362.28,390.88,361.68,391,361,391Z" transform="translate(-116.97 -198.36)"/><path class="cls-4" d="M371.94,389.23c-1.88,1.13-3.44,2.87-3.44,4.38s1.07,2.35,4,2.35h.34l-.06,1h-.16c-3.49,0-5.09-1.08-5.09-3.29,0-1.49,1.22-3,2.92-4.22-2.22.27-4.73.56-5.74.67L364.6,389a1.83,1.83,0,0,0,.35,0h.22c2.39-.17,6.23-.56,8.55-1l.09,1Z" transform="translate(-116.97 -198.36)"/><path class="cls-4" d="M385.65,394.85l-1.69-.57a20.36,20.36,0,0,1-1.78,2.71l-.79-.54a16.43,16.43,0,0,0,1.68-2.45,22.52,22.52,0,0,0-2.85-.71c-.8,1.49-1.69,2.7-2.73,2.7s-1.47-.55-1.47-1.63a2.34,2.34,0,0,1,2.49-2.09,9,9,0,0,1,1.2.08c.58-1.11,1.12-2.33,1.51-3.21a18,18,0,0,1-3.47.42h-.07l-.07-1h.15c2.68,0,3.77-.29,4.07-.56l.79.61a39.79,39.79,0,0,0-2,3.86c.8.14,1.74.35,2.82.65a5.26,5.26,0,0,0,.32-1.85v-.13l1,.14a7.75,7.75,0,0,1-.37,2.1c.52.16,1.06.32,1.63.51Zm-7.17-1.72a1.59,1.59,0,0,0-1.67,1.23.65.65,0,0,0,.66.74c.52,0,1.17-.84,1.79-1.94Z" transform="translate(-116.97 -198.36)"/><path class="cls-4" d="M395,396.87c-.89-.54-1.86-1.08-2.73-1.51a1.84,1.84,0,0,1-1.9,1.74c-1.5,0-2.59-.7-2.59-1.82s.93-1.67,2-1.67a4.69,4.69,0,0,1,1.59.36c0-1.35-.23-3.71-.26-6.55h1.22a1.1,1.1,0,0,0-.23.7c0,.6,0,1.34,0,2.13a22.56,22.56,0,0,0,3.07-.39l.09,1c-.6.11-1.88.26-3.12.34,0,1.24.08,2.45.11,3.2.81.37,1.83.9,3.16,1.59Zm-5.18-2.38c-.74,0-1.12.34-1.12.79s.77,1,1.64,1c.58,0,.94-.28,1-1.29A4.88,4.88,0,0,0,389.86,394.49Z" transform="translate(-116.97 -198.36)"/><path class="cls-4" d="M399.43,397.32l-.47-.84c3.68-1.33,5.13-2.52,5.13-3.73s-.88-1.79-2.34-1.79a14.73,14.73,0,0,0-3.91,1.23l-.39-.93c.84-.11,3.21-1.19,4.31-1.19,1.84,0,3.29.93,3.29,2.7S403.15,396,399.43,397.32Zm3.42-8.12c-2.61-.52-3.27-.83-3.79-1.22l.42-.77c.51.36.95.61,3.59,1.1Z" transform="translate(-116.97 -198.36)"/><path class="cls-4" d="M409.47,396.66a1.79,1.79,0,0,1-1.81-1.8,1.82,1.82,0,1,1,1.81,1.8Zm0-3a1.2,1.2,0,0,0-1.2,1.16,1.18,1.18,0,1,0,2.35,0A1.15,1.15,0,0,0,409.48,393.68Z" transform="translate(-116.97 -198.36)"/></g></g><g id="分析する" class="cls-3"><g class="cls-3"><path class="cls-5" d="M283.07,260.94a13.94,13.94,0,0,1-1.94-1.54V267a2.66,2.66,0,0,1-2.94,3h-2.92l-.84-2.68a17.67,17.67,0,0,0,3.24.22,1,1,0,0,0,1-1.08v-5.26h-4.3a12.39,12.39,0,0,1-6.4,9.06l-1.62-2.28a9,9,0,0,0,5.48-6.78H269v-1.88a14.55,14.55,0,0,1-1.84,1.52l-1.74-2.22a14.63,14.63,0,0,0,5.8-7l2.86.88c-.38.06-.56.4-1,1.2a23.1,23.1,0,0,1-3.6,5.06h11a20.48,20.48,0,0,1-4.22-6.3l2.34-.78a15.42,15.42,0,0,0,5.9,6.9Z" transform="translate(-116.97 -198.36)"/><path class="cls-5" d="M292.57,262.32,291,260.58v9.36h-2.34v-7.4a18.42,18.42,0,0,1-2,3.14l-1.1-2.36a15.72,15.72,0,0,0,3.06-6.14v-.06h-2.7V254.9h2.7v-3.34h2.76c-.3.18-.42.56-.42,1.88v1.46h2.46v2.22H291v.72l2.76,2.6Zm9.5-2.52v10.14h-2.26V259.8H297v.14a19.08,19.08,0,0,1-2.38,9.64l-2.12-1.42a14.67,14.67,0,0,0,2.2-8.16v-6.72h1.44a27.53,27.53,0,0,0,6.44-1.4l1.36,2.38a1.65,1.65,0,0,0-.56-.08,2.78,2.78,0,0,0-.78.1,42,42,0,0,1-5.6,1.1v2.1h7.16v2.32Z" transform="translate(-116.97 -198.36)"/><path class="cls-5" d="M317.51,256.8v3.08a4.76,4.76,0,0,1,.86,2.86c0,3.18-.78,5-6.2,7.7l-1.46-2.18c3.88-1.64,4.84-2.26,5.06-4a3.8,3.8,0,0,1-2.48,1.24c-1.56,0-2.84-1.16-2.84-3.64a3.45,3.45,0,0,1,3.28-3.68,5.91,5.91,0,0,1,1.5.2c0-.48,0-1,0-1.52-1.3,0-2.64,0-4,0-1.52,0-3,0-4.36-.06v-2.62a58.88,58.88,0,0,0,6.1.26c.7,0,1.42,0,2.14,0a23.77,23.77,0,0,0-.22-2.84h2.92a2.2,2.2,0,0,0-.3,1.3v1.48a39.58,39.58,0,0,0,6.42-.6l.08,2.54A52.55,52.55,0,0,1,317.51,256.8ZM314,260.28a1.46,1.46,0,0,0-1.32,1.56c0,.88.52,1.44,1.18,1.44.9,0,1.3-.82,1.38-2.32A1.58,1.58,0,0,0,314,260.28Z" transform="translate(-116.97 -198.36)"/><path class="cls-5" d="M333.69,269.82c-3.16,0-4.54-1.8-4.54-3.34a3,3,0,0,1,3.12-2.88c.88,0,1.92.62,3.1,2l-1.4,1.2c-.64-.9-1.3-1.42-1.72-1.42h0a1,1,0,0,0-1.06,1c0,.48.72,1.22,2.12,1.22,3,0,4.9-1.8,4.9-3.4a3.49,3.49,0,0,0-3.62-3.16,10.26,10.26,0,0,0-7.34,4l-1.8-1.84a19.4,19.4,0,0,1,2-1.7c3.18-3.08,5.76-5.42,7.08-6.54-1.06.08-4.58.66-6.26.94l-.36-2.72c4.56-.14,8.8-.64,9.24-1.08l1.7,1.82c-1.06.44-3.76,3-5.78,5a12.19,12.19,0,0,1,2.14-.18c3.28,0,5.76,2.3,5.76,5.18C340.91,267.44,337.41,269.82,333.69,269.82Z" transform="translate(-116.97 -198.36)"/></g></g><g id="_なぜ_を考えることで自分を見つめよう_" data-name=" なぜ を考えることで自分を見つめよう " class="cls-3"><g class="cls-3"><path class="cls-6" d="M166.23,323v-1.77a2.34,2.34,0,0,1,.5-1.55h1.19a2.22,2.22,0,0,0-.64,1.55H168V323Zm2.23,0v-1.77a2.34,2.34,0,0,1,.51-1.55h1.2a2.12,2.12,0,0,0-.66,1.55h.74V323Z" transform="translate(-116.97 -198.36)"/><path class="cls-6" d="M176.43,323.67a67,67,0,0,1-2.17,7.06L172.5,330a33.78,33.78,0,0,0,2.13-6.05c-.68.1-1.32.16-1.94.19l-.18-1.91a4.24,4.24,0,0,0,.66,0,14,14,0,0,0,1.89-.15,25.11,25.11,0,0,0,.42-2.48l2.1.45c-.33.15-.57,1.37-.66,1.71.65-.14,1.32-.3,2-.48l.1,1.72C178.13,323.31,177.27,323.5,176.43,323.67Zm7.34,7.76c-.81-.46-1.66-.91-2.49-1.29v.11c0,1.28-1.05,2.15-2.56,2.15-2,0-2.74-1.15-2.74-2.36a2.29,2.29,0,0,1,2.54-2.1,9.63,9.63,0,0,1,1.08.07c0-.5,0-1,0-1.5a5,5,0,0,1,.06-1.07A2.57,2.57,0,0,1,181,324c-.51-.24-1-.44-1.4-.59l.71-1.44a21.53,21.53,0,0,1,4.16,1.94l-.85,1.5c-.31-.21-.72-.43-1.15-.67-.76.31-1.28.76-1.28,1.22,0,.22,0,1.37,0,2.43a30.33,30.33,0,0,1,3.35,1.36Zm-4.13-1.92a4.23,4.23,0,0,0-1.23-.21c-.79,0-1.08.46-1.08.87s.48.85,1.13.85a1.17,1.17,0,0,0,1.18-1.27Z" transform="translate(-116.97 -198.36)"/><path class="cls-6" d="M196.78,325.07c0,.66,0,1.25,0,1.65s0,.49,0,.56c-.1.93-.71,1.25-3.54,1.85l-.41-1.57c2-.35,2.24-.53,2.24-1.23v-1.1c-1.19.09-2.49.18-3.79.23v4a.85.85,0,0,0,.78.91,49.53,49.53,0,0,0,6-.36l0,1.84c-1.09.11-3.28.19-4.94.19-.88,0-1.61,0-2-.07a1.76,1.76,0,0,1-1.59-1.71l0-1.43c0-.88,0-2.07,0-3.26h-2.29l0-1.85c.66.06,1.45.08,2.29.08,0-1.17,0-2.17,0-2.63h2a1.52,1.52,0,0,0-.16.77v1.84c1.26,0,2.57-.12,3.76-.21,0-1.31-.05-2.52-.11-3.62l2,.07a1.56,1.56,0,0,0-.21,1c0,.65,0,1.52,0,2.42a21.26,21.26,0,0,0,2.79-.45l.05,1.79A26.45,26.45,0,0,1,196.78,325.07Zm1.38-2.81-1.07-1.57.72-.51,1.08,1.56Zm1.32-.76-1.09-1.58.71-.51,1.11,1.59Z" transform="translate(-116.97 -198.36)"/><path class="cls-6" d="M211.63,327c-1.27.45-1.39,1-1.39,2.47h-1.89c0-2.3.47-3.22,2.24-3.85s2.33-1.06,2.33-2.11-.74-1.89-2.54-1.89h-2a2.16,2.16,0,0,0-2.38,2.24v.69h-1.8v-.69a3.88,3.88,0,0,1,4.18-4h2c2.72,0,4.33,1.43,4.33,3.68C214.71,325.52,213.73,326.21,211.63,327Zm-3.35,5.45v-1.86h2.05v1.86Z" transform="translate(-116.97 -198.36)"/><path class="cls-6" d="M218.84,323h-1.18a2.2,2.2,0,0,0,.65-1.55h-.75v-1.77h1.8v1.77A2.39,2.39,0,0,1,218.84,323Zm2.22,0h-1.19a2.17,2.17,0,0,0,.66-1.55h-.74v-1.77h1.79v1.77A2.39,2.39,0,0,1,221.06,323Z" transform="translate(-116.97 -198.36)"/><path class="cls-6" d="M231.88,327.51c0,.67,0,1.48,0,1.88l-1.75.22c0-.32,0-.95,0-1.53-1.75.68-2.18,1.24-2.18,1.81v0c0,.56.51.85,1.87.85a25.16,25.16,0,0,0,4-.47l0,1.8c-1.75,0-3.49.23-4.26.23-1.64,0-3.25-.56-3.25-2.34,0-1.44,1.11-2.48,3.82-3.6-.12-.73-.51-1-1.06-1-1,0-2.54,1.09-3.38,2l-.71,1-1.39-.89a33.55,33.55,0,0,0,3.17-4.49l-1.12,0c-.48,0-.9,0-1.22-.05l-.15-1.79a8.11,8.11,0,0,0,1.89.18c.43,0,.91,0,1.41-.05a7.47,7.47,0,0,0,.52-1.88l1.78.27a14.3,14.3,0,0,1-.44,1.44,29.74,29.74,0,0,0,3.25-.56v1.72a33.94,33.94,0,0,1-4,.56c-.34.63-.79,1.35-1.36,2.22l0,0a5.4,5.4,0,0,1,2.7-1,1.67,1.67,0,0,1,1.75,1.57c.77-.28,1.63-.56,2.59-.85l.47,1.79C233.65,327,232.69,327.26,231.88,327.51Z" transform="translate(-116.97 -198.36)"/><path class="cls-6" d="M250.41,320.72c-.22,0-.37.11-.82.63a20.71,20.71,0,0,1-2.16,2.11h3v1.36h-4.78a25.69,25.69,0,0,1-2.23,1.41,40.37,40.37,0,0,0,5.61-.81l.64,1.47a1,1,0,0,0-.57-.15,2.32,2.32,0,0,0-.44,0,54.69,54.69,0,0,1-5.73.76l-.25.67h6.5v1.9c0,1.49-.62,2.19-2.07,2.19h-3.06l-.54-1.5a19.94,19.94,0,0,0,3.08.14c.63,0,.81-.27.81-1v-.51h-5.17l-.35.94-1.62-.42.92-2.55a29.6,29.6,0,0,1-2.83,1.19l-.87-1.48a25.93,25.93,0,0,0,5.37-2.3h-5.3v-1.36h4.66v-1.32h-3.27V320.8h3.27v-1.21h2c-.24.13-.27.31-.27,1.08v.13h3v1a12.5,12.5,0,0,0,1.82-2.12l1.66,1.07ZM244,322.14v1.32h1c.59-.43,1.13-.87,1.64-1.32Z" transform="translate(-116.97 -198.36)"/><path class="cls-6" d="M264.65,332.13c-.9,0-1.72.07-2.45.07h-.36c-1.47,0-2.36-.07-2.33-2v-.9c0-.83-.18-1.16-1-1.16h-.25c-2,2-3.91,4.09-4,4.19l-1.31-1.39a80.62,80.62,0,0,0,6.31-6c-1.34.05-3.89.26-4.88.38v-1.87c5.74,0,6.54-.21,7-.57l1,1.38a22.47,22.47,0,0,0-3,2.74,2.06,2.06,0,0,1,.35,0c1.08,0,1.4.58,1.4,2.06v.18c0,1.11.24,1.31.64,1.31a24.11,24.11,0,0,0,3-.21Zm-3.92-9.71c-3.7-.46-4.4-.65-5.2-1.16l.58-1.51c.6.39,1.09.59,4.94,1Z" transform="translate(-116.97 -198.36)"/><path class="cls-6" d="M272.29,332.38c-2.21,0-3.18-1.26-3.18-2.34a2.11,2.11,0,0,1,2.19-2c.61,0,1.34.43,2.17,1.43l-1,.84c-.45-.63-.91-1-1.21-1h0a.67.67,0,0,0-.75.67c0,.34.51.86,1.49.86,2.13,0,3.43-1.26,3.43-2.38a2.44,2.44,0,0,0-2.54-2.22,7.26,7.26,0,0,0-5.14,2.83l-1.26-1.29a13.91,13.91,0,0,1,1.39-1.19c2.23-2.15,4-3.79,5-4.58-.74.06-3.21.47-4.39.66l-.25-1.9c3.2-.1,6.17-.45,6.47-.76l1.19,1.27a23.45,23.45,0,0,0-4,3.49,8.82,8.82,0,0,1,1.49-.12,3.8,3.8,0,0,1,4,3.63C277.35,330.72,274.9,332.38,272.29,332.38Z" transform="translate(-116.97 -198.36)"/><path class="cls-6" d="M285.4,331.57c-3.63,0-5.42-1-5.44-2.63a8.12,8.12,0,0,1,1.07-2.69l1.38.59a4.39,4.39,0,0,0-.8,1.76c0,.63,1,1.23,3.7,1.23a42.77,42.77,0,0,0,5-.43l.07,1.86C288.49,331.44,286.9,331.57,285.4,331.57Zm.18-8c-1.09,0-2.45-.06-4.18-.17l0-1.79c1.59.15,2.94.22,4.05.22a9.64,9.64,0,0,0,3.82-.49l.25,1.75A10.41,10.41,0,0,1,285.58,323.6Z" transform="translate(-116.97 -198.36)"/><path class="cls-6" d="M302.91,332.06c-2.29.13-3.58.21-4.59.21-2.34,0-4.29-.95-4.29-3.5,0-1.62.88-2.75,3.08-3.64a27.44,27.44,0,0,1-.28-5.31l1.95-.09a1.4,1.4,0,0,0-.2.78,26.84,26.84,0,0,0,.17,4.06c1-.28,2.16-.56,3.52-.82l.18,1.8c-5.25.74-6.64,1.68-6.64,3.12,0,1.23.86,1.89,2.51,1.89,1.27,0,3.53-.24,4.68-.38Z" transform="translate(-116.97 -198.36)"/><path class="cls-6" d="M315,322.59c-2.16,1.42-3.9,3.5-3.9,5.16,0,1.82,1.14,2.71,5.23,2.71l-.19,1.78c-4.73,0-6.92-1.38-6.92-4.44,0-1.57,1.22-3.36,3.17-4.9l-6.6.8-.18-2a1.9,1.9,0,0,0,.35,0h.44a110.83,110.83,0,0,0,11-1.3l.17,1.87Zm1.44,3.31-1.29-1.49.7-.56,1.26,1.47Zm1.25-.94-1.29-1.49.7-.54,1.26,1.46Z" transform="translate(-116.97 -198.36)"/><path class="cls-6" d="M330.94,332.45v-.36h-6.75v.36h-1.71V320.94h3.59l.44-1.37,1.95.33c-.22.07-.31.3-.5.79l-.1.25h4.8v11.51Zm0-10.07h-6.75v1.78h6.75Zm0,3.22h-6.75v1.77h6.75Zm0,3.21h-6.75v1.81h6.75Z" transform="translate(-116.97 -198.36)"/><path class="cls-6" d="M348.92,326.16a9.13,9.13,0,0,1-1.36-1.07v5.3a1.87,1.87,0,0,1-2.06,2.08h-2l-.59-1.88a12,12,0,0,0,2.27.15.68.68,0,0,0,.71-.75V326.3h-3a8.69,8.69,0,0,1-4.48,6.35l-1.14-1.6a6.31,6.31,0,0,0,3.84-4.75h-2V325a10,10,0,0,1-1.29,1.06l-1.21-1.55a10.32,10.32,0,0,0,4.06-4.88l2,.62c-.27,0-.39.28-.69.84a15.92,15.92,0,0,1-2.52,3.54h7.69a14.44,14.44,0,0,1-2.95-4.41l1.64-.55a10.74,10.74,0,0,0,4.13,4.84Z" transform="translate(-116.97 -198.36)"/><path class="cls-6" d="M360.7,327.51c0,.67,0,1.48.05,1.88l-1.75.22c0-.32,0-.95,0-1.53-1.75.68-2.19,1.24-2.19,1.81v0c0,.56.52.85,1.88.85a25.16,25.16,0,0,0,4-.47l0,1.8c-1.75,0-3.49.23-4.26.23-1.64,0-3.25-.56-3.25-2.34,0-1.44,1.11-2.48,3.82-3.6a1,1,0,0,0-1.06-1c-1,0-2.54,1.09-3.38,2l-.71,1-1.39-.89a33.55,33.55,0,0,0,3.17-4.49l-1.12,0c-.48,0-.9,0-1.22-.05l-.16-1.79a8.21,8.21,0,0,0,1.9.18c.43,0,.91,0,1.41-.05a8.42,8.42,0,0,0,.52-1.88l1.78.27a14.3,14.3,0,0,1-.44,1.44,29.74,29.74,0,0,0,3.25-.56v1.72a33.83,33.83,0,0,1-4.05.56c-.33.63-.78,1.35-1.35,2.22l0,0a5.4,5.4,0,0,1,2.7-1,1.67,1.67,0,0,1,1.75,1.57c.77-.28,1.63-.56,2.59-.85l.47,1.79C362.48,327,361.52,327.26,360.7,327.51Z" transform="translate(-116.97 -198.36)"/><path class="cls-6" d="M377.46,332.3h-2.7a1.34,1.34,0,0,1-1.5-1.49v-2.63h-2.83L372,329c-.25,0-.41.13-.66.51a8.59,8.59,0,0,1-3.86,3.18l-1.06-1.5a6.75,6.75,0,0,0,3.75-3h-2.12v-8.12h9.53v8.12H375v2.07a.4.4,0,0,0,.41.44h1.75c.51,0,.7-.31.83-1.47l1.54.67C379.24,331.68,378.67,332.3,377.46,332.3Zm-1.64-11h-6v1.19h6Zm0,2.23h-6v1.2h6Zm0,2.25h-6V327h6Z" transform="translate(-116.97 -198.36)"/><path class="cls-6" d="M385.75,331.65l-.52-1.8c5.71-1.16,7-2,7-3.71a2.27,2.27,0,0,0-2.48-2.37c-1.7,0-2.86.41-7.4,1.68l-.42-1.91a4.6,4.6,0,0,0,.74-.14c4.76-1.13,5.68-1.37,7.09-1.37,2.65,0,4.29,1.49,4.29,4.06C394.1,329,392.6,330.13,385.75,331.65Z" transform="translate(-116.97 -198.36)"/><path class="cls-6" d="M405.49,332.3l-1.16-1.36c3.32-1.82,3.58-2.79,3.58-3.85,0-1.33-1.47-2.58-3-2.83a23,23,0,0,1-2.09,4.76c.26.35.56.73.88,1.14l-1.39,1.16c-.21-.3-.42-.56-.61-.83a3.7,3.7,0,0,1-2.72,1.25c-.87,0-1.95-.95-1.95-2.63a6,6,0,0,1,1.77-4.22,17.66,17.66,0,0,1-.34-3.83l1.91-.08a1.64,1.64,0,0,0-.2.72,15.65,15.65,0,0,0,.1,2,8.41,8.41,0,0,1,3.42-1.15c.22-.77.43-1.58.61-2.45l1.88.39c-.32.18-.64,1.68-.74,2.06a4.86,4.86,0,0,1,4.27,4.59C409.72,328.85,409,330.14,405.49,332.3Zm-6.16-5.79a3.9,3.9,0,0,0-.9,2.41,1,1,0,0,0,.85,1.08,2.08,2.08,0,0,0,1.46-.89A15,15,0,0,1,399.33,326.51Zm1.31-1.21a10.62,10.62,0,0,0,1.15,2.24,21.12,21.12,0,0,0,1.38-3.23A6.77,6.77,0,0,0,400.64,325.3Z" transform="translate(-116.97 -198.36)"/><path class="cls-6" d="M421.8,332.08c-1.13-.69-2.23-1.32-3.19-1.81a2.65,2.65,0,0,1-2.71,2.17c-2.08,0-3.47-1-3.47-2.58s1.33-2.44,2.93-2.44a5.18,5.18,0,0,1,1.62.3c0-1.7-.24-4.47-.31-7.8l2.16,0a1.69,1.69,0,0,0-.32,1c0,.67,0,1.47,0,2.31a27.5,27.5,0,0,0,3.78-.49l.17,1.76a37.56,37.56,0,0,1-3.91.44c.05,1.32.09,2.58.12,3.44,1,.48,2.33,1.15,4,2Zm-6.47-3c-.79,0-1.19.35-1.19.83s.69,1,1.68,1c.6,0,1-.26,1.12-1.36A4.76,4.76,0,0,0,415.33,329.05Z" transform="translate(-116.97 -198.36)"/><path class="cls-6" d="M428.18,332.68l-.91-1.6c4.83-1.67,6.54-3,6.54-4.23s-.84-2-2.72-2.06a17.59,17.59,0,0,0-5,1.63l-.74-1.73c1.23-.14,4.2-1.54,5.74-1.54,2.55,0,4.51,1.25,4.51,3.71S433.29,330.8,428.18,332.68Zm4.57-10.14c-3.43-.61-4.65-1-5.31-1.54l.76-1.45c.64.47,1.38.76,4.91,1.36Z" transform="translate(-116.97 -198.36)"/><path class="cls-6" d="M441.61,331.86a2.4,2.4,0,0,1-2.41-2.4,2.42,2.42,0,1,1,2.41,2.4Zm0-3.78a1.39,1.39,0,1,0,1.36,1.38A1.37,1.37,0,0,0,441.62,328.08Z" transform="translate(-116.97 -198.36)"/></g></g><g id="グループ_598" data-name="グループ 598"><g id="グループ_350" data-name="グループ 350"><path id="パス_204" data-name="パス 204" class="cls-7" d="M282,200.76c0-.6.78-1.11,1.48-1.32a2.67,2.67,0,0,1,1.09,0c11.45,2.63,20,6.51,25.49,11.38,4.75,4.17,7.34,10.13,6.89,15.34-.54,6.27-4.75,11.19-11.17,10.72s-9.17-5-10.49-11.56c-1.9-9.18-4.66-17.05-12.83-23.67A.92.92,0,0,1,282,200.76Z" transform="translate(-116.97 -198.36)"/></g></g><line id="線_100" data-name="線 100" class="cls-8" x1="49.5" y1="140.5" x2="325.5" y2="140.5"/><circle id="楕円形_92" data-name="楕円形 92" class="cls-5" cx="184" cy="350" r="5"/><circle id="楕円形_93" data-name="楕円形 93" class="cls-9" cx="199" cy="350" r="5"/><g id="HOW_やWHAT_ではなくWHY_を深掘りすることで_あなたの本当の気持ちや今まで知らなかった自分の側面_今後につながる新たな発見に出会えるかも_" data-name="HOW やWHAT ではなくWHY を深掘りすることで あなたの本当の気持ちや今まで知らなかった自分の側面 今後につながる新たな発見に出会えるかも " class="cls-3"><g class="cls-3"><path class="cls-4" d="M179.69,432.36v-4.05h-5.2v4.05h-1v-8.61h1v3.63h5.2v-3.63h1v8.61Z" transform="translate(-116.97 -198.36)"/><path class="cls-4" d="M186.14,432.57h-.29c-2.31,0-3.52-1.86-3.52-4.23v-.58c0-2.34,1.2-4.22,3.53-4.22h.28c2.32,0,3.56,1.81,3.56,4.22v.58C189.7,430.75,188.45,432.57,186.14,432.57Zm2.54-4.8c0-2-.93-3.3-2.55-3.3h-.26c-1.62,0-2.53,1.37-2.53,3.3v.55c0,2,1,3.3,2.54,3.3h.25c1.62,0,2.55-1.31,2.55-3.3Z" transform="translate(-116.97 -198.36)"/><path class="cls-4" d="M198.45,432.36h-1.31l-1.66-7.57-1.67,7.57h-1.3l-1.63-8.62h1l1.37,7.84,1.73-7.84h.93l1.75,7.84,1.35-7.84h1.05Z" transform="translate(-116.97 -198.36)"/><path class="cls-4" d="M206.81,428.51c-1,.37-1.08.89-1.08,2.24h-.95c0-1.89.31-2.5,1.43-2.92,1.71-.64,2.06-.95,2.06-1.86,0-1.07-.62-1.75-2.23-1.75h-1.55a1.93,1.93,0,0,0-2.12,2.07v.58h-.92v-.58a2.81,2.81,0,0,1,3-3H206c2,0,3.14.95,3.14,2.65C209.18,427.41,208.5,427.87,206.81,428.51Zm-2.12,4.32v-1.05h1.13v1.05Z" transform="translate(-116.97 -198.36)"/><path class="cls-4" d="M218.14,429.51a9.21,9.21,0,0,1-1.87-.19l.07-.89a11.61,11.61,0,0,0,1.58.18c1.43,0,2.06-.73,2.06-1.55a1.26,1.26,0,0,0-1.38-1.27,5.54,5.54,0,0,0-1.18.2c.13.32.28.69.44,1.12l-.81.33c-.18-.47-.32-.87-.45-1.21-.72.24-1.53.54-2.35.88.75,1.72,1.63,3.78,2.29,5.5l-.89.38c-.53-1.55-1.4-3.69-2.22-5.53-.63.27-1.23.54-1.77.81l-.41-.88c.54-.23,1.15-.5,1.79-.76-.44-1-.83-1.77-1.14-2.31l1-.48v.06a13.12,13.12,0,0,0,.95,2.38c.8-.32,1.62-.64,2.39-.89a14.65,14.65,0,0,0-.8-1.67l1-.38a8.18,8.18,0,0,0,.66,1.8,6.83,6.83,0,0,1,1.67-.27,2.21,2.21,0,0,1,2.16,2.13A2.55,2.55,0,0,1,218.14,429.51Z" transform="translate(-116.97 -198.36)"/><path class="cls-4" d="M229.62,432.36h-1.31l-1.66-7.57L225,432.36h-1.31l-1.63-8.62h1l1.36,7.84,1.74-7.84h.92l1.75,7.84,1.35-7.84h1Z" transform="translate(-116.97 -198.36)"/><path class="cls-4" d="M238.93,432.36v-4.05h-5.21v4.05h-1v-8.61h1v3.63h5.21v-3.63h1v8.61Z" transform="translate(-116.97 -198.36)"/><path class="cls-4" d="M248.23,432.36l-.68-1.91h-4.49l-.68,1.91h-1l3.13-8.68h1.67l3.15,8.68Zm-2.92-8.21-1.93,5.42h3.86Z" transform="translate(-116.97 -198.36)"/><path class="cls-4" d="M254.4,424.67v7.7h-1v-7.7h-3v-.92h7.19v.92Z" transform="translate(-116.97 -198.36)"/><path class="cls-4" d="M264.27,428.51c-1,.37-1.08.89-1.08,2.24h-.94c0-1.89.3-2.5,1.43-2.92,1.7-.64,2.05-.95,2.05-1.86,0-1.07-.61-1.75-2.23-1.75H262a1.92,1.92,0,0,0-2.11,2.07v.58h-.93v-.58a2.81,2.81,0,0,1,3-3h1.55c2,0,3.15.95,3.15,2.65C266.65,427.41,266,427.87,264.27,428.51Zm-2.11,4.32v-1.05h1.12v1.05Z" transform="translate(-116.97 -198.36)"/><path class="cls-4" d="M275.6,425.23c-1.88,1.13-3.44,2.87-3.44,4.38s1.08,2.35,4,2.35h.34l-.06,1h-.16c-3.48,0-5.09-1.08-5.09-3.29,0-1.51,1.22-3,2.94-4.22l-5.8.67-.1-1.08a1.65,1.65,0,0,0,.34,0h.22c2.38-.17,6.34-.58,8.59-1l.09,1Zm1.17,2.55-1-1.07.45-.39,1,1.07Zm.94-.74-1-1.09.45-.39,1,1.08Z" transform="translate(-116.97 -198.36)"/><path class="cls-4" d="M280.48,433.08l-.81-.17a28.54,28.54,0,0,1-.26-4.92,39.33,39.33,0,0,1,.39-4.28l1.09.18c-.45.32-.58,3.51-.58,4.08,0,3,0,3.58.09,3.58a8.57,8.57,0,0,0,.83-1.58l.63.47C281.2,431.65,280.69,432.79,280.48,433.08Zm8.08-.85a12.21,12.21,0,0,0-1.77-.89v.07c0,.79-.57,1.57-2,1.57s-1.91-.84-1.91-1.5A1.72,1.72,0,0,1,284.7,430a5.78,5.78,0,0,1,1.12.12c0-.78-.1-2-.17-3.16-.61.06-1.25.08-1.81.08-.41,0-.78,0-1.1,0l0-1.05a4.58,4.58,0,0,0,1.46.15c.44,0,.92,0,1.43-.05-.07-1.21-.12-2.23-.13-2.52h1.19a1,1,0,0,0-.2.59c0,.61,0,1.24.08,1.84.69-.08,1.37-.19,1.92-.31l.07,1c-.49.09-1.18.19-2,.27.05,1.26.12,2.6.15,3.49a21.1,21.1,0,0,1,2.26.93Zm-2.71-1.2a4.93,4.93,0,0,0-1.21-.18c-.67,0-1,.39-1,.65,0,.45.52.68,1,.68.69,0,1.14-.16,1.14-1.14Z" transform="translate(-116.97 -198.36)"/><path class="cls-4" d="M293.1,426.07a46.67,46.67,0,0,1-1.79,5.65l-.95-.38a26.49,26.49,0,0,0,1.76-5.1,15.25,15.25,0,0,1-1.79.2l-.08-1h.29a12.35,12.35,0,0,0,1.81-.18c.17-.74.29-1.43.36-2l1.19.25c-.27.14-.48,1.27-.55,1.55.59-.12,1.18-.27,1.73-.42l.08.92C294.52,425.76,293.81,425.92,293.1,426.07Zm5.92,6.11a23.27,23.27,0,0,0-2.19-1v.32a1.67,1.67,0,0,1-1.8,1.59c-1.49,0-2-.84-2-1.67a1.63,1.63,0,0,1,1.82-1.51,6,6,0,0,1,1.1.11c0-.36,0-.74,0-1.11a9.46,9.46,0,0,1,0-1.17,2.21,2.21,0,0,1,1.23-1.17,12.9,12.9,0,0,0-1.37-.56l.37-.76a16.08,16.08,0,0,1,3.16,1.45l-.47.8c-.27-.17-.57-.35-.88-.52-.72.27-1.2.68-1.2,1.1,0,.18,0,1.26,0,2.17a26.74,26.74,0,0,1,2.65,1.07ZM296,430.83a4.37,4.37,0,0,0-1.17-.19c-.75,0-1,.42-1,.83s.49.8,1.13.8a1,1,0,0,0,1-1.12Z" transform="translate(-116.97 -198.36)"/><path class="cls-4" d="M306.3,433.26c-3.9-3.91-5.46-4.61-5.46-5.09,0-.66,2.18-2.15,4.79-5l.92.77a1.13,1.13,0,0,0-.48.28c-2.88,2.63-4,3.65-4,3.86s1.1,1,5,4.46Z" transform="translate(-116.97 -198.36)"/></g><g class="cls-3"><path class="cls-4" d="M318.43,432.36h-1.86l-1.29-7.08-1.3,7.08h-1.86l-1.5-8.65h1.52l1.07,7.55,1.43-7.55h1.27l1.43,7.55,1.07-7.55h1.52Z" transform="translate(-116.97 -198.36)"/><path class="cls-4" d="M327.24,432.37v-3.85h-4.47v3.85h-1.49v-8.65h1.49v3.45h4.47v-3.45h1.48v8.65Z" transform="translate(-116.97 -198.36)"/><path class="cls-4" d="M334.54,429.28v3.1h-1.49v-3.1L330,423.72h1.69l2.12,4.07,2.11-4.07h1.68Z" transform="translate(-116.97 -198.36)"/><path class="cls-4" d="M344.47,428.73c-1,.34-1.05.77-1.05,1.88H342c0-1.74.34-2.44,1.67-2.91s1.76-.8,1.76-1.59-.56-1.44-1.91-1.44H342a1.65,1.65,0,0,0-1.81,1.71v.51h-1.35v-.51a2.93,2.93,0,0,1,3.16-3.05h1.53c2,0,3.25,1.08,3.25,2.78C346.79,427.65,346.05,428.17,344.47,428.73ZM342,432.86v-1.41h1.54v1.41Z" transform="translate(-116.97 -198.36)"/></g><g class="cls-3"><path class="cls-4" d="M355.56,429.14c0,.61,0,1.54,0,1.72l-1,.14c0-.16,0-.95,0-1.53-1.64.64-2.11,1.21-2.12,1.81s.48.86,1.64.86a22.25,22.25,0,0,0,3.17-.31l0,1c-1.26,0-2.68.17-3.38.17-1.17,0-2.31-.43-2.31-1.71,0-1.11.93-1.89,3-2.73-.06-.72-.46-1-1-1a5.6,5.6,0,0,0-2.9,1.78c-.13.19-.27.38-.4.58l-.75-.49a26.32,26.32,0,0,0,2.71-3.86l-1.2,0c-.41,0-.78,0-1.07,0l-.11-1a4.94,4.94,0,0,0,1.42.14c.42,0,.89,0,1.39-.05a6,6,0,0,0,.4-1.53l.95.16a9.23,9.23,0,0,1-.41,1.29,24.08,24.08,0,0,0,2.69-.43v1c-.82.16-2,.31-3.14.41-.34.62-.79,1.34-1.43,2.28l0,0a4.39,4.39,0,0,1,2.2-.95,1.34,1.34,0,0,1,1.47,1.35c.67-.23,1.42-.48,2.27-.74l.25,1C357.05,428.69,356.24,428.92,355.56,429.14Z" transform="translate(-116.97 -198.36)"/><path class="cls-4" d="M361.2,428l-1.9-1.3.49-.66,1.93,1.31Zm-.73,4.62a1.32,1.32,0,0,0-.22.63l-.83-.63a18.14,18.14,0,0,0,2-3.63l.71.39A27.19,27.19,0,0,1,360.47,432.65Zm1-7.24-1.82-1.29.51-.64,1.83,1.28Zm7.7,7.42a9,9,0,0,1-2.9-3v3.28h-.88v-3.27a9,9,0,0,1-2.88,2.94l-.61-.64a8.36,8.36,0,0,0,2.85-2.7h-2.41v-.84h3.05v-1h1c-.11.08-.15.2-.15.62v.36h3.08v.84h-2.43a8.14,8.14,0,0,0,2.84,2.7Zm-4.2-7.33a5.23,5.23,0,0,1-2.07,2.34l-.53-.65a3.76,3.76,0,0,0,2-2.34l1,.25C365.14,425.13,365.07,425.21,364.94,425.5Zm3.27,2h-1.1a.91.91,0,0,1-1-1v-2.13h-2.86v1.09h-.8v-1.9h6.8v1.9h-.8v-1.09h-1.5v2c0,.28.14.37.38.37h.75c.23,0,.38-.17.49-.81l.71.36C369.05,427.15,368.78,427.48,368.21,427.48Z" transform="translate(-116.97 -198.36)"/><path class="cls-4" d="M373,429.41v2.8a1,1,0,0,1-1,1h-.93l-.26-.93a4.12,4.12,0,0,0,1,.07.38.38,0,0,0,.38-.34v-2.3c-.33.11-1,.25-1.2.51l-.24-1c.35-.06.87-.19,1.44-.35v-2.38h-1.25v-.85h1.25v-2.26h1a2,2,0,0,0-.17,1v1.22h1.17v.85H373v2.11a10.42,10.42,0,0,0,1.2-.47l.08.85C373.92,429.07,373.47,429.25,373,429.41Zm2.51-3v1.35a14,14,0,0,1-1.13,5.52l-.75-.43a11,11,0,0,0,1.07-5.1v-4.14h6.1v2.8Zm4.5-2h-4.5v1.21H380Zm.69,6.77v2.07H380v-.36h-3.48v.36h-.68V430.6h.84c-.11.07-.16.26-.16.55v1h1.39V429.7h-1.2v.3h-.68v-2.68h.84c-.11.06-.16.25-.16.55V429h1.2v-2.29h.85c-.11.08-.16.28-.16.57V429h1.19v-1.64h.84c-.12.06-.16.25-.16.55V430h-.68v-.3h-1.19v2.41H380V430.6h.84C380.75,430.67,380.7,430.86,380.7,431.15Z" transform="translate(-116.97 -198.36)"/><path class="cls-4" d="M383.25,430.47c-.63,0-1.08-2.19-1.08-3.57a23.14,23.14,0,0,1,.36-3l1.18.13c-.48.33-.63,2.34-.63,2.87a6.17,6.17,0,0,0,.3,2.13c.24,0,.78-1.43,1-1.91l.57.5C384,429.65,383.63,430.47,383.25,430.47Zm1.63,2.79-.63-.7c2.24-1.65,2.79-3.19,2.79-4.53a36.31,36.31,0,0,0-.19-4.43l1.08-.09a.44.44,0,0,0-.11.35c0,1.42.11,2.85.11,4.26C387.93,429.74,387.38,431.32,384.88,433.26Z" transform="translate(-116.97 -198.36)"/><path class="cls-4" d="M394.85,425.88c0,.68,0,1.34,0,1.84a3.36,3.36,0,0,1,.33,1.58c0,1.28-.18,2.57-3.15,4.16l-.52-.8c1.92-1,2.57-1.61,2.71-2.81a1.76,1.76,0,0,1-1.32.73c-.75,0-1.39-.72-1.39-1.87s.74-2,1.52-2a2.35,2.35,0,0,1,1,.18v-1c-.7,0-1.42,0-2.1,0-1,0-2,0-2.7-.05v-1a23.42,23.42,0,0,0,3.37.16H394a14.6,14.6,0,0,0-.1-1.8H395a1,1,0,0,0-.13.59V425a22.93,22.93,0,0,0,3.75-.37v1A25.41,25.41,0,0,1,394.85,425.88Zm-1.72,1.72c-.4,0-.77.5-.77,1.12s.28,1,.72,1,.86-.54.9-1.52A1,1,0,0,0,393.13,427.6Z" transform="translate(-116.97 -198.36)"/><path class="cls-4" d="M404.25,433c-1.63,0-2.36-.92-2.36-1.64a1.46,1.46,0,0,1,1.52-1.38c.43,0,1,.35,1.63,1.15l-.58.47c-.4-.58-.8-.9-1.06-.9a.64.64,0,0,0-.72.65c0,.33.52.8,1.36.8,1.74,0,3-1,3-2.1a2.1,2.1,0,0,0-2.17-1.86,6,6,0,0,0-4.27,2.3l-.7-.71a13.84,13.84,0,0,1,1.1-.95c1.76-1.75,3.36-3.31,4.14-4-.58.07-2.69.4-3.74.53l-.13-1c1.77-.05,4.61-.35,4.84-.61l.73.72a25.53,25.53,0,0,0-3.42,3.17,5.21,5.21,0,0,1,1.58-.23A2.84,2.84,0,0,1,408,430C408,431.9,406,433,404.25,433Z" transform="translate(-116.97 -198.36)"/><path class="cls-4" d="M413.4,432.39c-2.79,0-4-.81-4-1.95a6,6,0,0,1,.71-1.86l.77.33a3.35,3.35,0,0,0-.59,1.39c0,.61.81,1.16,3.06,1.16a33.29,33.29,0,0,0,3.87-.29l.06,1C415.77,432.32,414.57,432.39,413.4,432.39Zm.17-6.4c-.82,0-1.88,0-3.22-.12v-1a31.46,31.46,0,0,0,3.19.18,7.54,7.54,0,0,0,2.76-.33l.21.92A8.18,8.18,0,0,1,413.57,426Z" transform="translate(-116.97 -198.36)"/><path class="cls-4" d="M425.2,432.83c-1.79.1-2.7.16-3.5.16-1.78,0-3.18-.81-3.19-2.69,0-1.24.68-2.07,2.42-2.71a16.68,16.68,0,0,1-.22-3.78v-.45l1.06,0a.83.83,0,0,0-.12.49,16.72,16.72,0,0,0,.16,3.48c.79-.23,1.75-.44,2.88-.65l.11,1c-4.26.6-5.33,1.35-5.33,2.69,0,1.12.76,1.79,2.18,1.79,1,0,2.69-.16,3.58-.26Z" transform="translate(-116.97 -198.36)"/><path class="cls-4" d="M433.86,425.23c-1.89,1.13-3.45,2.87-3.45,4.38s1.08,2.35,4,2.35h.34l-.07,1h-.15c-3.49,0-5.1-1.08-5.1-3.29,0-1.51,1.23-3,2.94-4.22l-5.8.67-.1-1.08a1.69,1.69,0,0,0,.35,0h.22c2.37-.17,6.33-.58,8.59-1l.09,1Zm1.16,2.55-1-1.07.45-.39,1,1.07Zm1-.74L435,426l.45-.39,1,1.08Z" transform="translate(-116.97 -198.36)"/><path class="cls-4" d="M440.1,432.77a10.39,10.39,0,0,0-1.75-2.74l.71-.46a12.54,12.54,0,0,1,1.82,2.72Z" transform="translate(-116.97 -198.36)"/></g><g class="cls-3"><path class="cls-4" d="M173.91,456.36l-.66-1.09c2.31-1.06,2.79-1.69,2.79-2.25a1.71,1.71,0,0,0-1.16-1.59,11.2,11.2,0,0,1-2.06,3,2.44,2.44,0,0,0,.4.68l-1.17.83a3.88,3.88,0,0,1-.39-.6,4,4,0,0,1-2,.54,1.82,1.82,0,0,1-1.66-1.81,4,4,0,0,1,3-3.68c0-.38,0-.77,0-1.19-.7.06-1.37.11-2,.11h-.48l0-1.5a3.32,3.32,0,0,0,1,.09,15.59,15.59,0,0,0,1.58-.08c0-.46.05-.94.09-1.46l1.66,0c-.23.12-.3,1-.34,1.3a30.08,30.08,0,0,0,3.1-.52l.09,1.36c-.75.16-2,.38-3.33.55,0,.35,0,.69-.05,1,.31,0,.61-.06.93-.06s.66,0,1,.06c.1-.24.19-.49.27-.73l1.16.35-.26.63a2.74,2.74,0,0,1,2.08,2.71C177.48,454.29,176.62,455.2,173.91,456.36ZM171,451.67a2.7,2.7,0,0,0-1.69,2.18.62.62,0,0,0,.68.66,2.44,2.44,0,0,0,1.26-.39A14.15,14.15,0,0,1,171,451.67Zm2.23-.55a5.18,5.18,0,0,0-.94.1,14.43,14.43,0,0,0,.15,1.85,10.51,10.51,0,0,0,1.28-1.92C173.57,451.14,173.42,451.12,173.25,451.12Z" transform="translate(-116.97 -198.36)"/><path class="cls-4" d="M182,449.32a56.62,56.62,0,0,1-1.71,5.55l-1.38-.54a26.57,26.57,0,0,0,1.67-4.76c-.53.08-1,.12-1.52.15l-.14-1.5a3.84,3.84,0,0,0,.52,0,10.81,10.81,0,0,0,1.48-.12,16.13,16.13,0,0,0,.33-1.95l1.65.36c-.26.12-.45,1.08-.52,1.34.51-.11,1-.23,1.53-.38l.08,1.36C183.33,449,182.66,449.19,182,449.32Zm5.76,6.1c-.63-.37-1.31-.72-1.95-1v.09c0,1-.83,1.68-2,1.68-1.59,0-2.14-.9-2.14-1.84a1.78,1.78,0,0,1,2-1.65,7.73,7.73,0,0,1,.84.05c0-.4,0-.81,0-1.18a3.81,3.81,0,0,1,0-.84,2.05,2.05,0,0,1,1.1-1.13c-.4-.18-.78-.34-1.1-.46l.56-1.13a16.26,16.26,0,0,1,3.27,1.53l-.68,1.18a8.6,8.6,0,0,0-.9-.53c-.59.24-1,.59-1,.95,0,.18,0,1.08,0,1.92a21.16,21.16,0,0,1,2.63,1.07Zm-3.24-1.51a3.31,3.31,0,0,0-1-.17c-.62,0-.85.37-.85.68s.38.68.89.68a.93.93,0,0,0,.93-1Z" transform="translate(-116.97 -198.36)"/><path class="cls-4" d="M193,449.9c-.52,2.35-1.18,5.22-1.53,6.35l-1.45-.43a34,34,0,0,0,1.59-5.78c-.51,0-1.06,0-1.64,0l-.11-1.42a8.42,8.42,0,0,0,.9.05c.37,0,.74,0,1.11-.05.18-1,.31-1.89.35-2.39l1.71.26a.74.74,0,0,0-.27.46c-.09.36-.21.89-.34,1.51a9.56,9.56,0,0,0,1.76-.37l.14,1.38C194.71,449.62,194,449.77,193,449.9Zm3,5.91c-1.8,0-2.17-1-2.17-1.68a5.43,5.43,0,0,1,.36-1.67l1.18.18a3.68,3.68,0,0,0-.25,1.05c0,.58.23.78,1.57.78a16.21,16.21,0,0,0,2.68-.26v1.49C197.81,455.79,196.76,455.81,195.94,455.81Zm3-4.84a12.34,12.34,0,0,0-2.93-.41,4.6,4.6,0,0,0-.77.05l.1-1.25a8.35,8.35,0,0,1,1-.06,17.43,17.43,0,0,1,2.83.31Z" transform="translate(-116.97 -198.36)"/><path class="cls-4" d="M206.16,455.91l-.63-1.24c2.37-1,3-2.05,3-3.31a2.83,2.83,0,0,0-2.36-3.05c-.43,3.73-1.53,7-3.23,7-1.17,0-2.21-1.52-2.21-3.62a4.81,4.81,0,0,1,4.81-4.77,4.28,4.28,0,0,1,4.33,4.49C209.88,453.35,209.16,454.55,206.16,455.91Zm-4.1-4.2c0,1.14.44,2,.86,2,.88,0,1.75-3,1.94-5.38A3.45,3.45,0,0,0,202.06,451.71Z" transform="translate(-116.97 -198.36)"/><path class="cls-4" d="M220.68,454.52a15,15,0,0,1-3.56-4.43v3h1.75v1.3h-1.75v1.88h-1.37v-1.88H214v-1.3h1.76v-2.9a14.08,14.08,0,0,1-3.53,4.37l-1-1.11a11.41,11.41,0,0,0,3.64-4.33h-3.26v-1.3h4.13v-1.66h1.59c-.18.13-.22.43-.22,1v.68h4.13v1.3H218a12.24,12.24,0,0,0,3.64,4.33Z" transform="translate(-116.97 -198.36)"/><path class="cls-4" d="M225.28,449.74a11.88,11.88,0,0,0-1.66-2.3l1.12-.68a12.68,12.68,0,0,1,1.7,2.3Zm5.88,6.48v-.42h-7.53v-1.13h7.53V453.4h-7.24v-1.13h7.24V451h-7.53v-1.14h3.73v-3.75H229c-.14.12-.19.29-.19.88v2.87h3.73v6.35Zm.91-8.16-1.21,1.67-1.16-.64,1.63-2.35,1.41.79C232.5,447.54,232.36,447.66,232.07,448.06Z" transform="translate(-116.97 -198.36)"/><path class="cls-4" d="M240.05,455.91l-.63-1.24c2.38-1,3-2.05,3-3.31a2.83,2.83,0,0,0-2.36-3.05c-.43,3.73-1.53,7-3.23,7-1.17,0-2.21-1.52-2.21-3.62a4.82,4.82,0,0,1,4.81-4.77,4.29,4.29,0,0,1,4.34,4.49C243.78,453.35,243.05,454.55,240.05,455.91Zm-4.1-4.2c0,1.14.44,2,.86,2,.88,0,1.75-3,1.94-5.38A3.45,3.45,0,0,0,236,451.71Z" transform="translate(-116.97 -198.36)"/><path class="cls-4" d="M247.92,447.92a11.31,11.31,0,0,1-1.6,2.35l-1-.85a7.86,7.86,0,0,0,2-3.37l1.57.2c-.19,0-.28.13-.46.58h6.46v1.09Zm3.58,8.35c-.56-.47-1.21-1-1.9-1.47a12.12,12.12,0,0,1-3.58,1.52l-.52-1.14a10.11,10.11,0,0,0,3.07-1.13c-.76-.52-1.52-1-2.19-1.38l.88-.68c.67.37,1.49.86,2.32,1.41a8.06,8.06,0,0,0,1.7-1.61l1.21.74h-.06c-.18,0-.32.1-.72.53a12.26,12.26,0,0,1-1.1,1c.68.48,1.35,1,1.92,1.42Zm3-.1c-1.15,0-1.87-2.31-2-4.52H245.8v-1.08h8v.71c0,1.72.43,3.37.83,3.37.2,0,.33-.13.5-.39l.48,1.18A1.55,1.55,0,0,1,254.46,456.17Zm-6.85-6.39V448.7h6.68v1.08Z" transform="translate(-116.97 -198.36)"/><path class="cls-4" d="M259.5,452.49v2.62a1.09,1.09,0,0,1-1.13,1.11h-1.08l-.33-1.31a5.59,5.59,0,0,0,1,.07.3.3,0,0,0,.3-.28v-1.82a2.68,2.68,0,0,0-1.19.5l-.23-1.49a12.83,12.83,0,0,0,1.42-.29v-2.15h-1.32v-1.22h1.32v-2h1.49a2.47,2.47,0,0,0-.2,1.35v.68h1.15v1.22H259.5v1.77c.42-.13.8-.26,1.09-.38l.06,1.26Zm6.39-1.72v1.14h1v1.17h-1V455a1.15,1.15,0,0,1-1.27,1.24h-1.19l-.31-1.07-.81.51a23.06,23.06,0,0,0-1.28-1.93l1-.53c.18.21,1,1.31,1.24,1.74a5.57,5.57,0,0,0,.95.07.35.35,0,0,0,.37-.34v-1.6H261v-1.17h3.54v-1.14h-3.83V449.6h2.47v-1.2h-1.92v-1.19h1.92v-1.09h1.48c-.16.13-.18.37-.18,1v0h1.93v1.19h-1.93v1.2H267v1.17Z" transform="translate(-116.97 -198.36)"/><path class="cls-4" d="M271.42,456.1c-.36,0-.74,0-1.14,0l0-1.43a13.62,13.62,0,0,0,1.49.09c2.37,0,3.5-.77,3.5-1.58,0-.63-.42-1.27-1.66-1.27h0a5.67,5.67,0,0,0-3.84,1.71l-.86-1c.66-.52.85-.75,1-1.1.21-.57.47-1.32.72-2.13H270c-.58,0-1.1,0-1.51,0l0-1.49a8.39,8.39,0,0,0,2.37.2c.19-.67.34-1.33.45-1.91l1.64.25c-.34.17-.55,1.25-.64,1.62a25.11,25.11,0,0,0,3.56-.39l0,1.37c-.93.13-2.48.27-4,.35-.3.91-.56,1.61-.74,2.1a5,5,0,0,1,2.57-.76,2.61,2.61,0,0,1,2.85,2.46C276.64,455,275,456.1,271.42,456.1Z" transform="translate(-116.97 -198.36)"/><path class="cls-4" d="M285.51,452.74a9.13,9.13,0,0,1-1.87-.21l.12-1.31a11.73,11.73,0,0,0,1.56.19c1.2,0,1.72-.65,1.72-1.32a1.09,1.09,0,0,0-1.18-1.1,3.9,3.9,0,0,0-.87.12c.11.29.23.61.37.95l-1.18.46c-.14-.4-.28-.74-.4-1-.56.2-1.2.47-1.88.76.64,1.49,1.4,3.31,2.15,5.3l-1.29.56c-.62-1.82-1.38-3.72-2.08-5.32-.52.23-1.06.49-1.61.75l-.58-1.31,1.63-.7c-.43-.93-.8-1.68-1.07-2.14l1.44-.63v.06a10.25,10.25,0,0,0,.86,2.19c.67-.27,1.32-.54,1.95-.75a15.37,15.37,0,0,0-.71-1.46l1.35-.53v.1a5.82,5.82,0,0,0,.57,1.53,6.61,6.61,0,0,1,1.54-.23,2.44,2.44,0,0,1,2.36,2.34A2.69,2.69,0,0,1,285.51,452.74Z" transform="translate(-116.97 -198.36)"/><path class="cls-4" d="M299.52,450.81a12.45,12.45,0,0,1-2-1.08v1h-5.13v-1a17.8,17.8,0,0,1-1.91,1.06l-.62-1.33a8.46,8.46,0,0,0,4.4-3.4l1.81.06a1.11,1.11,0,0,0-.28.31,8.93,8.93,0,0,0,4.38,3.06Zm-5.38,5.54-.66-1.14a8.73,8.73,0,0,0,4.07-2.46h-6.93v-1.26H299V453A11.72,11.72,0,0,1,294.14,456.35Zm.78-8.78a11.7,11.7,0,0,1-2.29,1.95h4.54A13.32,13.32,0,0,1,294.92,447.57Z" transform="translate(-116.97 -198.36)"/><path class="cls-4" d="M308.9,455.69a23.06,23.06,0,0,0-2.14-1.12,1.92,1.92,0,0,1-2.15,1.64c-1.77,0-2.65-.9-2.65-1.83s.94-1.66,2.4-1.66a4.67,4.67,0,0,1,1,.12c0-.35,0-.76,0-1.19-.59,0-1.18,0-1.73,0-.82,0-1.56,0-2.08-.09l.07-1.4a7.7,7.7,0,0,0,2.08.17c.49,0,1,0,1.6,0q0-.69-.06-1.35c-.63,0-1.26,0-1.82,0s-1,0-1.42,0l.05-1.4a6.76,6.76,0,0,0,1.69.13l1.44,0c0-.65-.05-1.14-.07-1.36h1.64a.81.81,0,0,0-.21.6l0,.67a18.75,18.75,0,0,0,2.35-.28l0,1.36a22.51,22.51,0,0,1-2.35.24c0,.43,0,.89.05,1.36a24.65,24.65,0,0,0,2.69-.32l.08,1.38c-.64.11-1.63.2-2.72.27,0,.6,0,1.16.06,1.64a26.62,26.62,0,0,1,2.86,1.17Zm-3.5-1.64a4.11,4.11,0,0,0-1-.16c-.74,0-1.11.29-1.11.61s.59.65,1.22.65.92-.47.92-1Z" transform="translate(-116.97 -198.36)"/><path class="cls-4" d="M318.37,448.47c-1.7,1.11-3.06,2.75-3.06,4s.89,2.14,4.1,2.14l-.14,1.39c-3.72,0-5.44-1.09-5.44-3.48,0-1.24,1-2.64,2.49-3.85l-5.18.62-.14-1.55.27,0h.34a83.8,83.8,0,0,0,8.67-1l.13,1.47Zm1.13,2.6-1-1.17.55-.44,1,1.16Zm1-.74-1-1.16.55-.43,1,1.14Z" transform="translate(-116.97 -198.36)"/><path class="cls-4" d="M327.23,455.34l-1.57-1.82a6.93,6.93,0,0,1-2.28,2.73l-.92-1.11a5.27,5.27,0,0,0,2.35-3.21h-2.28v-1.34H325v-1.8h-.69a7.15,7.15,0,0,1-.82,1.33l-1-.81a9.92,9.92,0,0,0,1.62-3.15l1.41.26c-.36.05-.5.78-.63,1.1h2.77v1.27h-1.39v1.8h1.55v1.34h-1.65c0,.1,0,.2-.05.29l2,2.15Zm3.85.63v-.61h-1.62V456h-1.24v-9h4.11v9Zm0-7.75h-1.62v5.85h1.62Z" transform="translate(-116.97 -198.36)"/><path class="cls-4" d="M336.59,456.26l-.39-1.3c3.22-.71,3.79-1.33,3.79-2s-.47-.93-1.37-.93a3.88,3.88,0,0,0-3.35,2.1L334.1,454a18.05,18.05,0,0,1,.46-5.45l1.55.29c-.57.36-.61,2.16-.61,3v.45a4.66,4.66,0,0,1,3.27-1.53,2.43,2.43,0,0,1,2.71,2.34C341.48,454.28,340.59,455.33,336.59,456.26Zm2.75-7.65a11.81,11.81,0,0,0-3.43-1.44l.6-1.09a18.59,18.59,0,0,1,3.43,1.27Z" transform="translate(-116.97 -198.36)"/><path class="cls-4" d="M346,449.32a56.62,56.62,0,0,1-1.71,5.55l-1.38-.54a26.57,26.57,0,0,0,1.67-4.76c-.53.08-1,.12-1.52.15l-.14-1.5a3.78,3.78,0,0,0,.51,0,10.83,10.83,0,0,0,1.49-.12,18.41,18.41,0,0,0,.33-1.95l1.65.36c-.26.12-.45,1.08-.52,1.34.51-.11,1-.23,1.53-.38l.08,1.36C347.33,449,346.66,449.19,346,449.32Zm5.76,6.1c-.64-.37-1.31-.72-2-1v.09c0,1-.82,1.68-2,1.68-1.59,0-2.14-.9-2.14-1.84a1.78,1.78,0,0,1,2-1.65,7.73,7.73,0,0,1,.84.05c0-.4,0-.81,0-1.18a3.81,3.81,0,0,1,.05-.84,2.05,2.05,0,0,1,1.1-1.13c-.4-.18-.78-.34-1.1-.46l.56-1.13a16.15,16.15,0,0,1,3.26,1.53l-.67,1.18a8.6,8.6,0,0,0-.9-.53c-.59.24-1,.59-1,.95,0,.18,0,1.08,0,1.92a21.16,21.16,0,0,1,2.63,1.07Zm-3.24-1.51a3.31,3.31,0,0,0-1-.17c-.62,0-.85.37-.85.68s.38.68.89.68a.93.93,0,0,0,.93-1Z" transform="translate(-116.97 -198.36)"/><path class="cls-4" d="M357.49,456l-.26-1.37c2-.29,2.19-.46,2.19-2.28,0-2-.23-2.24-.74-2.24h-1c-.55,2.1-1.23,4.65-1.69,6l-1.43-.55a38.48,38.48,0,0,0,1.75-5.45,11.71,11.71,0,0,0-1.78.18l0-1.5h2.13a15.71,15.71,0,0,0,.43-2.36l1.66.37c-.29.12-.61,1.68-.69,2h1c1.31,0,1.77.42,1.77,3.55C360.78,455,360.53,455.37,357.49,456Zm5.35-3c-.88-2.42-1.13-2.89-1.74-3.37l1-.74c.76.61.9,1,2.06,3.44Z" transform="translate(-116.97 -198.36)"/><path class="cls-4" d="M367.76,455.43l-.33-1.11c3.37-.73,4.17-1.16,4.17-2.19a1.36,1.36,0,0,0-1.49-1.4c-1,0-1.68.24-4.36,1l-.25-1.18a2,2,0,0,0,.41-.08,18.88,18.88,0,0,1,4.2-.81,2.34,2.34,0,0,1,2.58,2.44C372.69,453.73,371.86,454.47,367.76,455.43Z" transform="translate(-116.97 -198.36)"/><path class="cls-4" d="M377.25,449.9c-.52,2.35-1.18,5.22-1.53,6.35l-1.45-.43a34,34,0,0,0,1.59-5.78c-.5,0-1.05,0-1.64,0l-.11-1.42a8.61,8.61,0,0,0,.91.05c.36,0,.73,0,1.11-.05.17-1,.31-1.89.34-2.39l1.71.26a.74.74,0,0,0-.27.46c-.09.36-.21.89-.34,1.51a9.36,9.36,0,0,0,1.76-.37l.14,1.38C379,449.62,378.23,449.77,377.25,449.9Zm3,5.91c-1.79,0-2.17-1-2.17-1.68a5.43,5.43,0,0,1,.36-1.67l1.18.18a3.68,3.68,0,0,0-.25,1.05c0,.58.23.78,1.57.78a16.44,16.44,0,0,0,2.69-.26v1.49C382.08,455.79,381,455.81,380.21,455.81Zm3-4.84a12.34,12.34,0,0,0-2.93-.41,4.6,4.6,0,0,0-.77.05l.1-1.25a8.4,8.4,0,0,1,1-.06,17.44,17.44,0,0,1,2.82.31Z" transform="translate(-116.97 -198.36)"/><path class="cls-4" d="M392.78,456.22v-.29h-5.3v.29h-1.34v-9.05H389l.36-1.07,1.52.26c-.17.06-.24.23-.39.62l-.08.19h3.78v9.05Zm0-7.91h-5.3v1.4h5.3Zm0,2.53h-5.3v1.38h5.3Zm0,2.52h-5.3v1.42h5.3Z" transform="translate(-116.97 -198.36)"/><path class="cls-4" d="M406.25,451.28a7.13,7.13,0,0,1-1.07-.85v4.17a1.46,1.46,0,0,1-1.62,1.63H402l-.47-1.48a9.69,9.69,0,0,0,1.79.13.54.54,0,0,0,.56-.6v-2.89h-2.37a6.8,6.8,0,0,1-3.52,5l-.89-1.25a5,5,0,0,0,3-3.73h-1.59v-1a7.89,7.89,0,0,1-1,.84l-1-1.22a8,8,0,0,0,3.19-3.83l1.58.48c-.21,0-.31.22-.54.67a13.19,13.19,0,0,1-2,2.78h6a11.32,11.32,0,0,1-2.33-3.47l1.29-.43A8.49,8.49,0,0,0,407,450Z" transform="translate(-116.97 -198.36)"/><path class="cls-4" d="M413.75,455.91l-.63-1.24c2.38-1,3-2.05,3-3.31a2.83,2.83,0,0,0-2.37-3.05c-.43,3.73-1.53,7-3.22,7-1.18,0-2.22-1.52-2.22-3.62a4.82,4.82,0,0,1,4.81-4.77,4.29,4.29,0,0,1,4.34,4.49C417.48,453.35,416.75,454.55,413.75,455.91Zm-4.09-4.2c0,1.14.44,2,.85,2,.88,0,1.75-3,1.94-5.38A3.45,3.45,0,0,0,409.66,451.71Z" transform="translate(-116.97 -198.36)"/><path class="cls-4" d="M421.5,446.9a15.42,15.42,0,0,1-.89,3h.53c-.11.09-.14.26-.14.82v5.55h-1.1v-4.84a11.06,11.06,0,0,1-.62,1l-.61-1.28a12.34,12.34,0,0,0,1.73-4.95l1.36.21C421.61,446.39,421.57,446.5,421.5,446.9Zm1.55,7.89a8.39,8.39,0,0,1-1.15,1.66l-.83-.63a6.44,6.44,0,0,0,1.32-1.93l1,.47C423.27,454.39,423.21,454.48,423.05,454.79Zm-1.26-1v-7.41h3.42v7.41Zm2.39-6.41h-1.36v1.14h1.36Zm0,2.13h-1.36v1.14h1.36Zm0,2.14h-1.36v1.14h1.36Zm.82,4.66-1.19-1.92.8-.48,1.21,1.84Zm1.87-8.48v5.64h-.94V447H427A1.68,1.68,0,0,0,426.87,447.88Zm1.93-.85v7.87a1.16,1.16,0,0,1-1.24,1.26h-.9l-.37-1.41a4.15,4.15,0,0,0,1,.12.42.42,0,0,0,.43-.45v-8.3h1.16C428.83,446.27,428.8,446.47,428.8,447Z" transform="translate(-116.97 -198.36)"/><path class="cls-4" d="M436.21,447.63l-.45,1h4.38v7.57h-1.21v-.3h-6.48v.3h-1.22v-7.57h3.08l.45-1h-4.07v-1.15h10v1.15Zm-2.51,2h-1.25v5.26h1.25Zm2.82,0h-1.66v1.1h1.66Zm0,2.06h-1.66v1.1h1.66Zm0,2.05h-1.66v1.15h1.66Zm2.41-4.11h-1.26v5.26h1.26Z" transform="translate(-116.97 -198.36)"/><path class="cls-4" d="M444.72,455.89a12.61,12.61,0,0,0-1.78-2.84l1-.67a13.74,13.74,0,0,1,1.89,2.82Z" transform="translate(-116.97 -198.36)"/></g><g class="cls-3"><path class="cls-4" d="M208.63,473.81a12.45,12.45,0,0,1-2-1.08v1h-5.13v-1a17.8,17.8,0,0,1-1.91,1.06l-.62-1.33a8.46,8.46,0,0,0,4.4-3.4l1.81.06a1.11,1.11,0,0,0-.28.31,8.93,8.93,0,0,0,4.38,3.06Zm-5.38,5.54-.66-1.14a8.73,8.73,0,0,0,4.07-2.46h-6.93v-1.26h8.37V476A11.61,11.61,0,0,1,203.25,479.35Zm.78-8.78a11.5,11.5,0,0,1-2.3,1.95h4.55A13.32,13.32,0,0,1,204,470.57Z" transform="translate(-116.97 -198.36)"/><path class="cls-4" d="M213.87,472.66a16,16,0,0,1-1.06,1.72h.43c-.11.06-.16.2-.16.84v4h-1.21v-3.71a8.16,8.16,0,0,1-.75.71l-.6-1.15a8.21,8.21,0,0,0,2.4-3.19l1.29.46A.52.52,0,0,0,213.87,472.66Zm-.13-2.61a10.16,10.16,0,0,1-2.51,2.78l-.63-1a6.61,6.61,0,0,0,2.24-2.48l1.23.38A.67.67,0,0,0,213.74,470.05Zm6.72,9.22a8.93,8.93,0,0,1-3.08-1.06,10.73,10.73,0,0,1-3.2,1.11l-.52-1.11a9.88,9.88,0,0,0,2.68-.71,6.37,6.37,0,0,1-1.06-1.08,7.88,7.88,0,0,1-1.06.76l-.69-.88a6.62,6.62,0,0,0,2.06-1.8,3.29,3.29,0,0,0-1.45.33l-.32-1.32c.41,0,.91,0,1.43-.08l.72-.71-1.78-1.38.69-.84.38.29,1.36-1.65,1.15.57a1.56,1.56,0,0,0-.67.5l-1,1.2.69.51,1.6-1.58,1.16.65a1.44,1.44,0,0,0-.73.45l-1.88,1.82c.78-.1,1.52-.21,2.09-.31l-.33-.72.95-.32,1.09,2.29-1,.36-.32-.69c-.63.14-1.49.29-2.35.42l-.31.5H220v1.07a5.34,5.34,0,0,1-1.48,1.64,7.79,7.79,0,0,0,2.42.56Zm-4.41-3.49a4.86,4.86,0,0,0,1.34,1.16,5.27,5.27,0,0,0,1.3-1.16Z" transform="translate(-116.97 -198.36)"/><path class="cls-4" d="M223.67,479l-1.12-.25a36,36,0,0,1-.28-4.8,39.18,39.18,0,0,1,.47-4.35l1.56.23c-.48.33-.73,3.51-.73,4.09a14.46,14.46,0,0,0,.13,3.14c.18-.28.39-.79.62-1.23l.62.61A27.57,27.57,0,0,0,223.67,479Zm4.16-.73a2.11,2.11,0,0,1-2.28-1.81,4.07,4.07,0,0,1,.48-1.71l1.18.28a3.39,3.39,0,0,0-.34,1.11c0,.48.3.75,1.67.75a15.6,15.6,0,0,0,2.71-.24l.12,1.41A25.18,25.18,0,0,1,227.83,478.28Zm3-6.21a12.74,12.74,0,0,0-1.77-.1c-1,0-2.08.06-3.1.13l-.07-1.4c.66,0,2-.07,3.27-.07.63,0,1.24,0,1.79,0Z" transform="translate(-116.97 -198.36)"/><path class="cls-4" d="M235.76,478.59l-.41-1.42c4.49-.91,5.53-1.57,5.53-2.91a1.78,1.78,0,0,0-1.94-1.86c-1.33,0-2.25.32-5.81,1.32l-.33-1.5a3.71,3.71,0,0,0,.58-.11c3.74-.89,4.46-1.08,5.57-1.08,2.08,0,3.36,1.17,3.36,3.19C242.31,476.47,241.14,477.39,235.76,478.59Z" transform="translate(-116.97 -198.36)"/><path class="cls-4" d="M246.83,472.32a54.16,54.16,0,0,1-1.7,5.55l-1.39-.54a26.57,26.57,0,0,0,1.68-4.76c-.53.08-1,.12-1.52.15l-.15-1.5a3.94,3.94,0,0,0,.52,0,10.83,10.83,0,0,0,1.49-.12c.16-.78.28-1.46.33-1.95l1.65.36c-.27.12-.45,1.08-.52,1.34.51-.11,1-.23,1.53-.38l.08,1.36C248.17,472,247.5,472.19,246.83,472.32Zm5.77,6.1c-.64-.37-1.31-.72-2-1v.09c0,1-.82,1.68-2,1.68-1.6,0-2.15-.9-2.15-1.84a1.79,1.79,0,0,1,2-1.65,7.77,7.77,0,0,1,.85.05c0-.4,0-.81,0-1.18a5,5,0,0,1,0-.84,2.08,2.08,0,0,1,1.1-1.13c-.39-.18-.78-.34-1.1-.46l.56-1.13a16.26,16.26,0,0,1,3.27,1.53l-.67,1.18a8.6,8.6,0,0,0-.9-.53c-.6.24-1,.59-1,.95,0,.18,0,1.08,0,1.92a21.8,21.8,0,0,1,2.63,1.07Zm-3.25-1.51a3.3,3.3,0,0,0-1-.17c-.62,0-.85.37-.85.68s.37.68.89.68a.92.92,0,0,0,.92-1Z" transform="translate(-116.97 -198.36)"/><path class="cls-4" d="M257.68,479l-.26-1.38c2-.28,2.19-.46,2.19-2.27,0-2-.23-2.24-.74-2.24h-1c-.55,2.09-1.23,4.64-1.71,6l-1.42-.54a36.07,36.07,0,0,0,1.75-5.45,13.16,13.16,0,0,0-1.78.18l0-1.5h2.14a15.76,15.76,0,0,0,.43-2.37l1.66.37c-.28.11-.62,1.71-.69,2h1c1.31,0,1.75.42,1.75,3.56C261,478,260.72,478.4,257.68,479Zm5.18-3c-.82-2.22-1.08-2.89-1.72-3.42l.85-.65c.75.62,1,1,2.16,3.41Zm.22-3.89-1-1.16.53-.45,1,1.16Zm.86-.71-1-1.15.53-.46,1,1.15Z" transform="translate(-116.97 -198.36)"/><path class="cls-4" d="M270.45,479.16c-1.74,0-2.49-1-2.49-1.83a1.65,1.65,0,0,1,1.71-1.59c.49,0,1.06.34,1.71,1.12l-.77.66c-.36-.49-.72-.78-.95-.78h0a.52.52,0,0,0-.58.53c0,.27.39.67,1.16.67,1.67,0,2.7-1,2.7-1.87a1.92,1.92,0,0,0-2-1.74,5.63,5.63,0,0,0-4,2.23l-1-1a9.42,9.42,0,0,1,1.09-.93c1.75-1.69,3.17-3,3.89-3.6-.58.05-2.52.36-3.44.52l-.2-1.5c2.51-.07,4.84-.35,5.08-.59l.94,1a17.89,17.89,0,0,0-3.18,2.74,6.33,6.33,0,0,1,1.18-.1,3,3,0,0,1,3.16,2.85C274.42,477.85,272.5,479.16,270.45,479.16Z" transform="translate(-116.97 -198.36)"/><path class="cls-4" d="M279.05,473.6v.88h1.89v1.19h-1.67c.3.34,1.17,1.36,1.39,1.57l-.74.71c-.13-.15-.51-.66-.87-1.11v2.39h-1.16v-2.05a9.74,9.74,0,0,1-1.32,1.76l-.76-1a7.79,7.79,0,0,0,1.86-2.24H276v-1.19h1.92v-.88h-2v-1.15h1.14a7.18,7.18,0,0,0-.43-1.21l.49-.13h-1V470h1.72v-.84h1.36c-.17.14-.19.32-.19.81v0h1.69v1.15H280l.44.1c-.18,0-.19.1-.32.51l-.24.73H281v1.15Zm-1.39-2.49a10,10,0,0,1,.43,1.34h.76l.4-1.34Zm7.4,2.52v5.6H283.9v-5.6h-1.17v.13a12.47,12.47,0,0,1-1.18,5.35l-1.13-.61a8.66,8.66,0,0,0,1.12-4.75V470h.64a12.55,12.55,0,0,0,3-.79l.79,1.28a.8.8,0,0,0-.27,0,2.05,2.05,0,0,0-.5.08c-.59.17-1.56.38-2.47.54v1.33H286v1.27Z" transform="translate(-116.97 -198.36)"/><path class="cls-4" d="M290.65,472.9c-.52,2.35-1.18,5.22-1.53,6.35l-1.45-.43a34,34,0,0,0,1.59-5.78c-.5,0-1.05,0-1.64,0l-.11-1.42a8.57,8.57,0,0,0,.9.05c.37,0,.74,0,1.12-.05.17-1,.3-1.89.34-2.39l1.71.26a.74.74,0,0,0-.27.46c-.09.36-.21.89-.34,1.51a9.56,9.56,0,0,0,1.76-.37l.14,1.38C292.39,472.62,291.63,472.77,290.65,472.9Zm3,5.91c-1.8,0-2.17-1-2.17-1.68a5.43,5.43,0,0,1,.36-1.67l1.18.18a3.68,3.68,0,0,0-.25,1.05c0,.58.23.78,1.57.78a16.21,16.21,0,0,0,2.68-.26v1.49C295.48,478.79,294.43,478.81,293.61,478.81Zm3-4.84a12.34,12.34,0,0,0-2.93-.41,4.6,4.6,0,0,0-.77.05l.1-1.25a8.35,8.35,0,0,1,1-.06,17.43,17.43,0,0,1,2.83.31Z" transform="translate(-116.97 -198.36)"/><path class="cls-4" d="M301.51,472.32a56.62,56.62,0,0,1-1.71,5.55l-1.39-.54a26.57,26.57,0,0,0,1.68-4.76c-.53.08-1,.12-1.52.15l-.15-1.5a3.94,3.94,0,0,0,.52,0,10.83,10.83,0,0,0,1.49-.12c.16-.78.28-1.46.33-1.95l1.65.36c-.27.12-.45,1.08-.52,1.34.51-.11,1-.23,1.53-.38l.08,1.36C302.84,472,302.17,472.19,301.51,472.32Zm5.76,6.1c-.64-.37-1.31-.72-2-1v.09c0,1-.82,1.68-2,1.68-1.6,0-2.15-.9-2.15-1.84a1.79,1.79,0,0,1,2-1.65,7.77,7.77,0,0,1,.85.05c0-.4,0-.81,0-1.18a5,5,0,0,1,0-.84,2.08,2.08,0,0,1,1.1-1.13c-.39-.18-.78-.34-1.1-.46l.57-1.13a16.41,16.41,0,0,1,3.26,1.53l-.67,1.18a8.6,8.6,0,0,0-.9-.53c-.6.24-1,.59-1,.95,0,.18,0,1.08,0,1.92a21.8,21.8,0,0,1,2.63,1.07ZM304,476.91a3.42,3.42,0,0,0-1-.17c-.62,0-.85.37-.85.68s.37.68.89.68a.93.93,0,0,0,.93-1Z" transform="translate(-116.97 -198.36)"/><path class="cls-4" d="M319.08,474.37a9.47,9.47,0,0,1-1.89-1v.5h-.93v1.18h2.87v1.19h-2.87v1.23c0,.31.13.42.32.42h1.1c.29,0,.44-.16.54-1l1.18.37c-.24,1.43-.61,1.81-1.49,1.81h-1.85a1.07,1.07,0,0,1-1.11-1.22v-1.63h-1.39c-.31,1.42-1.29,2.47-3.25,3.17l-.77-1.14c1.58-.43,2.36-1.11,2.68-2H309.8v-1.19h2.58v-1.18h-.8v-.39a9.46,9.46,0,0,1-1.62.82l-.66-1.1a8,8,0,0,0,1.86-.86l-1.36-1.22.7-.75,1.57,1.31a4.35,4.35,0,0,0,1-1.19H310.7v-1.11h3.82V470l.89-.37a5.17,5.17,0,0,0,.61.91l1.15-1.19,1,.65h-.06c-.17,0-.29.11-.62.44l-.81.83c.2.19.41.36.63.54l1.22-1.26,1,.66h-.07c-.15,0-.26.1-.57.41l-.75.75a6.77,6.77,0,0,0,1.58.72Zm-4.56-3.93v.06a6.26,6.26,0,0,1-1.83,2.21h3.65A8.66,8.66,0,0,1,314.52,470.44Zm.43,3.44h-1.27v1.18H315Z" transform="translate(-116.97 -198.36)"/><path class="cls-4" d="M329.78,479.1h-2.13a1.05,1.05,0,0,1-1.17-1.17v-2.07h-2.23l1.24.64c-.2,0-.32.1-.52.4a6.82,6.82,0,0,1-3,2.49l-.82-1.17a5.28,5.28,0,0,0,2.93-2.36h-1.66v-6.38h7.48v6.38h-2v1.63a.31.31,0,0,0,.32.34h1.37c.4,0,.55-.24.65-1.15l1.21.53C331.17,478.61,330.72,479.1,329.78,479.1Zm-1.29-8.65h-4.73v.94h4.73Zm0,1.75h-4.73v.95h4.73Zm0,1.77h-4.73v.94h4.73Z" transform="translate(-116.97 -198.36)"/></g><g class="cls-3"><path class="cls-4" d="M334.72,478.91l-.78-.18a33.3,33.3,0,0,1-.28-4.77,30.61,30.61,0,0,1,.46-4.24l1.09.2c-.44.28-.68,3.49-.68,4,0,3.05.08,3.5.13,3.5a11.77,11.77,0,0,0,.68-1.47l.48.44A21.12,21.12,0,0,0,334.72,478.91Zm4.29-.84c-1.42,0-2.21-.78-2.21-1.71a3.92,3.92,0,0,1,.33-1.5l.79.2a3.63,3.63,0,0,0-.25,1.11c0,.59.38,1,1.93,1a17.72,17.72,0,0,0,2.79-.24l.09,1A25.59,25.59,0,0,1,339,478.07Zm3-6.3a12.5,12.5,0,0,0-1.72-.09c-.94,0-2,.06-3.11.13l0-.94c.68-.05,2-.08,3.38-.08l1.59,0Z" transform="translate(-116.97 -198.36)"/><path class="cls-4" d="M353.22,475.83v3.38h-.92v-.46h-6.94v.46h-.91v-4h1.09a.85.85,0,0,0-.18.63v2h3v-4.21h-2.69v.44h-.92v-4h1.09c-.12,0-.17.28-.17.64v2.05h2.69v-3.42h1.14c-.15.05-.2.31-.2.66v2.76H352V470.1h1.09c-.12,0-.17.28-.17.64v3.36H352v-.44h-2.69v4.21h3V475.2h1.08A.87.87,0,0,0,353.22,475.83Z" transform="translate(-116.97 -198.36)"/><path class="cls-4" d="M364.91,473.35a11.24,11.24,0,0,1-1.7-.77v.75h-5.88v-.83a15.12,15.12,0,0,1-1.71.83l-.44-.9a8.64,8.64,0,0,0,4.66-3.37l1.2.06a.76.76,0,0,0-.26.29,9.06,9.06,0,0,0,4.54,3.06Zm-5.59,2.19-1.17,2.5a42,42,0,0,0,4.62-.57c-.3-.46-.61-.9-.91-1.28l.79-.37c.66.88,1.41,2,2.09,3.05l-.86.43c-.19-.36-.41-.72-.62-1.07a51.66,51.66,0,0,1-6.71.79c-.37,0-.5.08-.62.22l-.2-1.07,1.37-.06,1.17-2.57h-2.64v-.84h9.25v.84Zm.9-5.37a10.94,10.94,0,0,1-2.87,2.32H363A10.81,10.81,0,0,1,360.22,470.17Z" transform="translate(-116.97 -198.36)"/><path class="cls-4" d="M375.63,478.81c-.76.05-1.44.07-2.09.07-1.28,0-1.7-.17-1.66-1.62l0-.69c0-.66-.15-.94-.86-.94a4.4,4.4,0,0,0-.57.05c-1.54,1.56-3.08,3.18-3.14,3.25l-.72-.75c.87-.72,4.52-4.24,5.24-5.1-1.28.05-3.36.16-4.2.22v-1c4.39,0,5-.17,5.32-.39l.62.79A22.38,22.38,0,0,0,371.1,475c.2,0,.37-.05.53-.05.87,0,1.13.43,1.13,1.51v.29c0,1,.19,1.17.53,1.17h.23a15.31,15.31,0,0,0,2.15-.15Zm-3-7.66c-2.94-.41-3.38-.53-4-.93l.33-.8c.51.33.87.47,3.86.82Z" transform="translate(-116.97 -198.36)"/><path class="cls-4" d="M381.31,479c-1.64,0-2.37-.92-2.37-1.64a1.46,1.46,0,0,1,1.52-1.38c.43,0,1,.35,1.63,1.15l-.57.47c-.41-.58-.81-.9-1.07-.9a.64.64,0,0,0-.71.65c0,.33.51.8,1.36.8,1.74,0,3-1,3-2.1a2.11,2.11,0,0,0-2.18-1.86,6,6,0,0,0-4.27,2.3l-.69-.71a11,11,0,0,1,1.1-.95c1.76-1.75,3.36-3.31,4.14-4-.59.07-2.7.4-3.74.53l-.14-1c1.77-.05,4.61-.35,4.84-.61l.73.72a25,25,0,0,0-3.41,3.17,5.14,5.14,0,0,1,1.57-.23,2.84,2.84,0,0,1,3.05,2.61C385.06,477.9,383.08,479,381.31,479Z" transform="translate(-116.97 -198.36)"/><path class="cls-4" d="M390,478.78l-.19-1c2-.24,2.22-.41,2.22-2.49s-.24-2.49-.77-2.49H390c-.52,2-1.18,4.46-1.73,6.1l-1-.38a44.53,44.53,0,0,0,1.76-5.71,14.19,14.19,0,0,0-2.05.16l0-1h2.31a20,20,0,0,0,.45-2.4l1.19.28c-.27.07-.64,1.86-.7,2.11l1.21,0c1,0,1.48.43,1.48,3.42C393,477.93,392.75,478.31,390,478.78Zm5.56-3c-.8-2.25-1.11-2.81-1.72-3.29l.67-.5c.72.6.9,1,2,3.35Z" transform="translate(-116.97 -198.36)"/><path class="cls-4" d="M403.29,479.09c-2,0-2.91-.89-2.91-2.36a9,9,0,0,1,.1-1.12,21,21,0,0,1-2.73-.48l.1-.94a17.64,17.64,0,0,0,2.77.5c.13-.73.28-1.54.44-2.36a13.08,13.08,0,0,1-2.14-.44l.14-1a6.76,6.76,0,0,0,2.18.55c.15-.78.3-1.52.4-2.12l1.09.16a5.85,5.85,0,0,0-.6,2.07c.56,0,1.12.08,1.62.08H404l-.09.95c-.53,0-1.2-.06-1.94-.14-.16.86-.3,1.67-.42,2.36.68,0,1.32.09,1.77.09h.14l.06.94c-.63,0-1.37,0-2.11-.11a5.63,5.63,0,0,0-.07.77c0,1.18.55,1.68,2,1.68,1.6,0,2.24-.6,2.24-1.4s-.26-1.23-1.68-2.61l.68-.61c1.6,1.63,2,2.24,2,3.27C406.49,478.48,405.05,479.09,403.29,479.09Z" transform="translate(-116.97 -198.36)"/><path class="cls-4" d="M408.65,478.83v-1h1.13v1Zm.88-2.25h-.68l-.15-3.7v-3.57h1v3.57Z" transform="translate(-116.97 -198.36)"/></g></g></svg>