<svg id="レイヤー_1" data-name="レイヤー 1" xmlns="http://www.w3.org/2000/svg" viewBox="0 0 276.34 261.6"><defs><style>.cls-1{fill:#98b5c2;opacity:1;}.cls-1,.cls-106,.cls-22,.cls-27,.cls-3,.cls-4,.cls-46,.cls-5,.cls-50,.cls-70,.cls-71,.cls-80,.cls-98{isolation:isolate;}.cls-2{fill:#fff;}.cls-106,.cls-22,.cls-27,.cls-4,.cls-5,.cls-70,.cls-71,.cls-80,.cls-98{font-size:8.11px;fill:#5c5d5d;}.cls-106,.cls-22,.cls-27,.cls-4,.cls-71{font-family:VDL-V7Gothic-Medium-83pv-RKSJ-H, VDL-V7Gothic;}.cls-46,.cls-5,.cls-50,.cls-70,.cls-80,.cls-98{font-family:VDL-V7Gothic-Bold-83pv-RKSJ-H, VDL-V7Gothic;}.cls-5{letter-spacing:-0.01em;}.cls-6{letter-spacing:0.04em;}.cls-7,.cls-80{letter-spacing:-0.03em;}.cls-8{letter-spacing:0.1em;}.cls-9{letter-spacing:-0.08em;}.cls-10{letter-spacing:-0.09em;}.cls-11{letter-spacing:0.08em;}.cls-12{letter-spacing:0.05em;}.cls-13{letter-spacing:0em;}.cls-14{letter-spacing:-0.02em;}.cls-15{letter-spacing:-0.15em;}.cls-16{letter-spacing:-0.07em;}.cls-17{letter-spacing:0.08em;}.cls-18{letter-spacing:0.06em;}.cls-19{letter-spacing:-0.01em;}.cls-20{letter-spacing:-0.02em;}.cls-21{letter-spacing:-0.07em;}.cls-22{letter-spacing:-0.08em;}.cls-23{letter-spacing:-0.1em;}.cls-24{letter-spacing:-0.07em;}.cls-25{letter-spacing:-0.05em;}.cls-26{letter-spacing:-0.3em;}.cls-27{letter-spacing:0.05em;}.cls-28{letter-spacing:0.03em;}.cls-29{letter-spacing:0em;}.cls-30{letter-spacing:0.04em;}.cls-31{letter-spacing:-0.5em;}.cls-32{letter-spacing:-0.08em;}.cls-33{letter-spacing:-0.12em;}.cls-34{letter-spacing:-0.07em;}.cls-35{letter-spacing:-0.01em;}.cls-36{letter-spacing:0em;}.cls-37{letter-spacing:0.04em;}.cls-38{letter-spacing:0.03em;}.cls-39{letter-spacing:0.02em;}.cls-40{letter-spacing:0.01em;}.cls-41{letter-spacing:0.03em;}.cls-42{letter-spacing:-0.01em;}.cls-43{letter-spacing:-0.14em;}.cls-44{letter-spacing:-0.03em;}.cls-45{letter-spacing:-0.26em;}.cls-46{font-size:14.74px;}.cls-46,.cls-63{fill:#ea5514;}.cls-47{letter-spacing:-0.04em;}.cls-48{letter-spacing:-0.09em;}.cls-49{letter-spacing:-0.1em;}.cls-50{font-size:10.32px;fill:#2d2e2e;}.cls-51{letter-spacing:-0.01em;}.cls-52{letter-spacing:-0.02em;}.cls-53{letter-spacing:0.06em;}.cls-54{letter-spacing:0.02em;}.cls-55{letter-spacing:-0.47em;}.cls-56{letter-spacing:0em;}.cls-57{letter-spacing:-0.08em;}.cls-58{letter-spacing:0.02em;}.cls-59{letter-spacing:0.05em;}.cls-60{letter-spacing:-0.39em;}.cls-61,.cls-62{fill:none;stroke:#ea5514;}.cls-61{stroke-width:1.47px;}.cls-62{stroke-width:1.45px;}.cls-64{fill:#b9b9b9;}.cls-65{letter-spacing:-0.03em;}.cls-66{letter-spacing:-0.05em;}.cls-67{letter-spacing:-0.05em;}.cls-68{letter-spacing:-0.14em;}.cls-69{letter-spacing:-0.21em;}.cls-71{letter-spacing:-0.07em;}.cls-72{letter-spacing:0em;}.cls-73{letter-spacing:-0.2em;}.cls-74{letter-spacing:-0.24em;}.cls-75{letter-spacing:-0.1em;}.cls-76{letter-spacing:-0.22em;}.cls-77{letter-spacing:-0.25em;}.cls-78{letter-spacing:-0.19em;}.cls-79{letter-spacing:0.01em;}.cls-81,.cls-98{letter-spacing:0.02em;}.cls-82{letter-spacing:-0.03em;}.cls-83{letter-spacing:0.01em;}.cls-84{letter-spacing:0.06em;}.cls-85{letter-spacing:0.01em;}.cls-86{letter-spacing:0.01em;}.cls-87{letter-spacing:-0.03em;}.cls-88{letter-spacing:-0.04em;}.cls-89{letter-spacing:-0.07em;}.cls-90{letter-spacing:0.07em;}.cls-91{letter-spacing:-0.08em;}.cls-92{letter-spacing:-0.11em;}.cls-93{letter-spacing:-0.13em;}.cls-94{letter-spacing:0.02em;}.cls-95{letter-spacing:0.01em;}.cls-96{letter-spacing:0.07em;}.cls-97{letter-spacing:-0.25em;}.cls-99{letter-spacing:-0.04em;}.cls-100{letter-spacing:-0.05em;}.cls-101{letter-spacing:-0.07em;}.cls-102{letter-spacing:-0.06em;}.cls-103{letter-spacing:-0.01em;}.cls-104{letter-spacing:-0.08em;}.cls-105{letter-spacing:0em;}.cls-106{letter-spacing:-0.02em;}.cls-107{letter-spacing:-0.01em;}.cls-108{letter-spacing:-0.11em;}.cls-109{letter-spacing:-0.1em;}.cls-110{letter-spacing:-0.03em;}.cls-111{letter-spacing:-0.06em;}</style></defs><title>explain_tab1</title><rect id="長方形_423-2" data-name="長方形 423-2" class="cls-1" y="68.53" width="276.34" height="165.8"/><rect id="長方形_484" data-name="長方形 484" class="cls-2" y="73.69" width="276.34" height="155.49"/><g id="_あなたが取り組みたいことや叶えたいことについて_なぜ_と繰り返し自分に問いかけてみよう_" data-name=" あなたが取り組みたいことや叶えたいことについて なぜ と繰り返し自分に問いかけてみよう " class="cls-3"><text class="cls-4" transform="translate(43.57 128.96)"><tspan xml:space="preserve">  </tspan></text><text class="cls-5" transform="translate(48.69 128.96)">あ<tspan class="cls-6" x="8.05" y="0">な</tspan><tspan class="cls-7" x="16.48" y="0">た</tspan><tspan class="cls-8" x="24.37" y="0">が</tspan><tspan class="cls-9" x="33.31" y="0">取</tspan><tspan class="cls-10" x="40.77" y="0">り</tspan><tspan class="cls-11" x="48.11" y="0">組</tspan><tspan class="cls-12" x="56.86" y="0">み</tspan><tspan class="cls-13" x="65.42" y="0">た</tspan><tspan class="cls-14" x="73.5" y="0">い</tspan><tspan class="cls-15" x="81.42" y="0">こ</tspan><tspan class="cls-16" x="88.31" y="0">と</tspan><tspan class="cls-17" x="95.84" y="0">や</tspan><tspan class="cls-18" x="104.59" y="0">叶</tspan><tspan class="cls-19" x="113.15" y="0">え</tspan><tspan class="cls-13" x="121.18" y="0">た</tspan><tspan class="cls-20" x="129.27" y="0">い</tspan><tspan class="cls-15" x="137.18" y="0">こ</tspan><tspan class="cls-21" x="144.08" y="0">と</tspan></text><text class="cls-22" transform="translate(201.29 128.96)">に<tspan class="cls-23" x="7.49" y="0">つ</tspan><tspan class="cls-24" x="14.82" y="0">い</tspan><tspan class="cls-25" x="22.36" y="0">て</tspan><tspan class="cls-26" x="30.05" y="0">、</tspan></text><text class="cls-27" transform="translate(50.91 145.91)">“<tspan class="cls-28" x="8.49" y="0">な</tspan><tspan class="cls-29" x="16.88" y="0">ぜ</tspan><tspan class="cls-30" x="24.96" y="0">？</tspan><tspan class="cls-31" x="33.43" y="0">”</tspan><tspan class="cls-32" x="37.48" y="0">と</tspan><tspan class="cls-33" x="44.92" y="0">繰り</tspan><tspan class="cls-34" x="59.17" y="0">返</tspan><tspan class="cls-35" x="66.66" y="0">し</tspan><tspan class="cls-11" x="74.67" y="0">自</tspan><tspan class="cls-36" x="83.43" y="0">分</tspan><tspan class="cls-37" x="91.49" y="0">に</tspan><tspan class="cls-38" x="99.93" y="0">問</tspan><tspan class="cls-30" x="108.27" y="0">い</tspan><tspan class="cls-39" x="116.74" y="0">か</tspan><tspan class="cls-40" x="125.03" y="0">け</tspan><tspan class="cls-41" x="133.24" y="0">て</tspan><tspan class="cls-42" x="141.55" y="0">み</tspan><tspan class="cls-43" x="149.56" y="0">よ</tspan><tspan class="cls-44" x="156.53" y="0">う</tspan><tspan class="cls-45" x="164.39" y="0">。</tspan></text></g><g id="分析する" class="cls-3"><text class="cls-46" transform="translate(110.07 51.58)">分<tspan class="cls-47" x="14.74" y="0">析</tspan><tspan class="cls-48" x="28.92" y="0">す</tspan><tspan class="cls-49" x="42.36" y="0">る</tspan></text></g><g id="_なぜ_を考えることで自分を見つめよう_" data-name=" なぜ を考えることで自分を見つめよう " class="cls-3"><text class="cls-50" transform="translate(34.97 98.01)"><tspan class="cls-51">“</tspan><tspan class="cls-52" x="10.25" y="0">な</tspan><tspan class="cls-53" x="20.37" y="0">ぜ</tspan><tspan class="cls-54" x="31.3" y="0">？</tspan><tspan class="cls-55" x="41.77" y="0">”</tspan><tspan class="cls-52" x="47.19" y="0">を</tspan><tspan class="cls-56" x="57.3" y="0">考え</tspan><tspan class="cls-57" x="77.93" y="0">るこ</tspan><tspan class="cls-52" x="96.92" y="0">と</tspan><tspan x="107.03" y="0">で自分を見つ</tspan><tspan class="cls-58" x="168.93" y="0">めよ</tspan><tspan class="cls-59" x="189.97" y="0">う</tspan><tspan class="cls-60" x="200.76" y="0">。</tspan></text></g><g id="グループ_598" data-name="グループ 598"><g id="グループ_350" data-name="グループ 350"><path id="パス_204" data-name="パス 204" class="cls-61" d="M-627.27-36.79c0-.45.57-.82,1.09-1a2,2,0,0,1,.8,0c8.44,1.94,14.77,4.8,18.79,8.39,3.5,3.08,5.41,7.47,5.08,11.3-.4,4.63-3.51,8.25-8.24,7.91s-6.76-3.68-7.73-8.52c-1.4-6.77-3.43-12.57-9.45-17.45A.64.64,0,0,1-627.27-36.79Z" transform="translate(749.87 38.56)"/></g></g><line id="線_100" data-name="線 100" class="cls-62" x1="41.61" y1="103.53" x2="238.96" y2="103.53"/><circle id="楕円形_92" data-name="楕円形 92" class="cls-63" cx="132.59" cy="257.92" r="3.68"/><circle id="楕円形_93" data-name="楕円形 93" class="cls-64" cx="143.65" cy="257.92" r="3.68"/><g id="HOW_やWHAT_ではなくWHY_を深掘りすることで_あなたの本当の気持ちや今まで知らなかった自分の側面_今後につながる新たな発見に出会えるかも_" data-name="HOW やWHAT ではなくWHY を深掘りすることで あなたの本当の気持ちや今まで知らなかった自分の側面 今後につながる新たな発見に出会えるかも " class="cls-3"><text class="cls-4" transform="translate(43.69 172.44)">HOW?やWHAT<tspan class="cls-65" x="60.1" y="0">?</tspan><tspan class="cls-66" x="66.56" y="0">で</tspan><tspan class="cls-67" x="74.22" y="0">は</tspan><tspan class="cls-68" x="81.9" y="0">な</tspan><tspan class="cls-69" x="88.84" y="0">く</tspan></text><text class="cls-70" transform="translate(141.93 172.44)">WHY?</text><text class="cls-71" transform="translate(168.54 172.44)">を<tspan class="cls-72" x="7.55" y="0">深</tspan><tspan class="cls-73" x="15.66" y="0">掘</tspan><tspan class="cls-74" x="22.14" y="0">り</tspan><tspan class="cls-75" x="28.33" y="0">す</tspan><tspan class="cls-76" x="35.65" y="0">る</tspan><tspan class="cls-77" x="41.93" y="0">こ</tspan><tspan class="cls-78" x="48.02" y="0">と</tspan><tspan class="cls-79" x="54.55" y="0">で</tspan><tspan class="cls-26" x="62.74" y="0">、</tspan></text><text class="cls-4" transform="translate(37.94 189.38)"><tspan xml:space="preserve">  </tspan></text><text class="cls-80" transform="translate(36.66 189.38)">あ<tspan class="cls-81" x="7.89" y="0">な</tspan><tspan class="cls-82" x="16.16" y="0">た</tspan><tspan class="cls-83" x="23.99" y="0">の</tspan><tspan class="cls-84" x="32.18" y="0">本</tspan><tspan class="cls-85" x="40.77" y="0">当</tspan><tspan class="cls-86" x="48.96" y="0">の</tspan><tspan class="cls-84" x="57.16" y="0">気</tspan><tspan class="cls-87" x="65.75" y="0">持</tspan><tspan class="cls-82" x="73.63" y="0">ち</tspan><tspan class="cls-84" x="81.46" y="0">や</tspan><tspan class="cls-88" x="90.05" y="0">今</tspan><tspan class="cls-89" x="97.85" y="0">ま</tspan><tspan class="cls-90" x="105.4" y="0">で</tspan><tspan class="cls-91" x="114.07" y="0">知</tspan><tspan class="cls-92" x="121.54" y="0">ら</tspan><tspan class="cls-30" x="128.74" y="0">な</tspan><tspan class="cls-66" x="137.21" y="0">か</tspan><tspan class="cls-93" x="144.87" y="0">っ</tspan><tspan class="cls-94" x="151.95" y="0">た</tspan><tspan class="cls-84" x="160.18" y="0">自</tspan><tspan class="cls-79" x="168.77" y="0">分</tspan><tspan class="cls-95" x="176.96" y="0">の</tspan><tspan class="cls-84" x="185.16" y="0">側</tspan><tspan class="cls-96" x="193.75" y="0">面</tspan><tspan class="cls-97" x="202.45" y="0">、</tspan></text><text class="cls-98" transform="translate(59.92 206.33)"><tspan xml:space="preserve">  今</tspan><tspan class="cls-99" x="13.99" y="0">後</tspan><tspan class="cls-100" x="21.73" y="0">に</tspan><tspan class="cls-101" x="29.45" y="0">つ</tspan><tspan class="cls-102" x="37.02" y="0">な</tspan><tspan class="cls-103" x="44.66" y="0">が</tspan><tspan class="cls-104" x="52.68" y="0">る</tspan><tspan class="cls-36" x="60.12" y="0">新</tspan><tspan class="cls-34" x="68.19" y="0">た</tspan><tspan class="cls-105" x="75.69" y="0">な</tspan><tspan x="83.83" y="0">発見</tspan></text><text class="cls-106" transform="translate(160.97 206.33)">に<tspan class="cls-81" x="7.95" y="0">出</tspan><tspan class="cls-107" x="16.22" y="0">会</tspan><tspan class="cls-108" x="24.2" y="0">え</tspan><tspan class="cls-109" x="31.41" y="0">る</tspan><tspan class="cls-110" x="38.68" y="0">か</tspan><tspan class="cls-111" x="46.5" y="0">も</tspan><tspan class="cls-81" x="54.15" y="0">!</tspan></text></g></svg>