<svg id="レイヤー_1" data-name="レイヤー 1" xmlns="http://www.w3.org/2000/svg" viewBox="0 0 375 357"><defs><style>.cls-1{fill:#9bb9c7;opacity:1;}.cls-1,.cls-3{isolation:isolate;}.cls-2{fill:#fff;}.cls-4{fill:#5d5d5d;}.cls-5{fill:#ed6a4c;}.cls-6,.cls-8,.cls-9{fill:none;}.cls-6{stroke:#ec694b;stroke-width:2px;}.cls-7{fill:#b9b9b9;}.cls-9{stroke:#ed6a4c;stroke-linecap:round;}</style></defs><rect id="長方形_425" data-name="長方形 425" class="cls-1" y="95" width="375" height="225"/><rect id="長方形_485" data-name="長方形 485" class="cls-2" y="102" width="375" height="211"/><g id="深掘りしたものは_あなたの思考回路です_なかなか記録にはできないもの_保存しておきましょう_" data-name="深掘りしたものは あなたの思考回路です なかなか記録にはできないもの 保存しておきましょう " class="cls-3"><g class="cls-3"><path class="cls-4" d="M199,396.39l-1.91-1.3.5-.66,1.92,1.31Zm-.73,4.62a1.35,1.35,0,0,0-.22.64l-.83-.64a18.14,18.14,0,0,0,2-3.63l.71.4A29.44,29.44,0,0,1,198.24,401Zm1-7.24-1.83-1.29.52-.63,1.83,1.27Zm7.7,7.43a9.15,9.15,0,0,1-2.9-3v3.28h-.88v-3.27a9.16,9.16,0,0,1-2.89,2.94l-.6-.64a8.48,8.48,0,0,0,2.85-2.71h-2.41V397h3v-1h1c-.11.07-.15.19-.15.61V397h3.08v.84h-2.43a8.31,8.31,0,0,0,2.83,2.71Zm-4.2-7.34a5.18,5.18,0,0,1-2.07,2.34l-.53-.65a3.73,3.73,0,0,0,2-2.34l1,.25C202.91,393.5,202.84,393.57,202.71,393.86Zm3.27,2h-1.1a.91.91,0,0,1-1-1V392.7H201v1.09h-.8v-1.9H207v1.9h-.81V392.7h-1.49v2c0,.28.14.38.38.38h.75c.23,0,.38-.18.49-.82l.71.37C206.82,395.51,206.55,395.84,206,395.84Z" transform="translate(-115.65 -225.72)"/><path class="cls-4" d="M211.43,397.78v2.79a1,1,0,0,1-1,1h-.93l-.26-.92a4.9,4.9,0,0,0,1,.06.36.36,0,0,0,.37-.34v-2.3c-.33.11-1,.25-1.2.52l-.23-1.06a13.06,13.06,0,0,0,1.43-.35v-2.38h-1.24V394h1.24v-2.27h1a1.9,1.9,0,0,0-.17,1.05V394h1.17v.84h-1.17v2.12a10.26,10.26,0,0,0,1.2-.48l.08.85C212.34,397.43,211.9,397.61,211.43,397.78Zm2.51-3v1.35a14,14,0,0,1-1.13,5.53l-.75-.43a11.08,11.08,0,0,0,1.06-5.11V392h6.11v2.79Zm4.5-2h-4.5V394h4.5Zm.69,6.76v2.07h-.68v-.36H215v.36h-.68V399h.84c-.11.07-.16.27-.16.55v1h1.39v-2.41h-1.2v.3h-.68v-2.68h.83c-.11.06-.15.26-.15.56v1.08h1.2V395h.85c-.11.07-.16.27-.16.57v1.71h1.19v-1.64h.84c-.12.06-.16.26-.16.56v2.12h-.68v-.3h-1.19v2.41h1.4V399h.84C219.18,399,219.13,399.23,219.13,399.51Z" transform="translate(-115.65 -225.72)"/><path class="cls-4" d="M223.23,398.83c-.63,0-1.09-2.19-1.09-3.56a23.27,23.27,0,0,1,.37-3l1.17.13c-.47.33-.62,2.35-.62,2.87a6.61,6.61,0,0,0,.29,2.14c.25,0,.79-1.43,1-1.92l.58.5C224,398,223.61,398.83,223.23,398.83Zm1.63,2.8-.64-.71c2.25-1.65,2.8-3.19,2.8-4.53a36.07,36.07,0,0,0-.19-4.42l1.08-.09a.43.43,0,0,0-.11.34c0,1.42.11,2.85.11,4.27C227.91,398.11,227.36,399.68,224.86,401.63Z" transform="translate(-115.65 -225.72)"/><path class="cls-4" d="M234.08,401.3c-1.5,0-2.27-.73-2.27-2.05,0-.4.05-3.73.05-5.78,0-.77,0-1.35,0-1.54l1.14,0c-.28.38-.29,3.77-.29,4.73v.17c0,1.25,0,2.26,0,2.35,0,.59.3,1.12,1.26,1.12a10.56,10.56,0,0,0,4.4-1.63l.41.86A11.94,11.94,0,0,1,234.08,401.3Z" transform="translate(-115.65 -225.72)"/><path class="cls-4" d="M244.17,395.09c-.51,2.3-1.15,5.17-1.54,6.4l-1-.29a37.23,37.23,0,0,0,1.57-6c-.41,0-.84.06-1.29.06a4,4,0,0,1-.49,0l-.08-1a4.72,4.72,0,0,0,1,.08c.34,0,.71,0,1.08-.05.19-1,.34-2,.39-2.54l1.23.18a.68.68,0,0,0-.27.49l-.39,1.76a17.15,17.15,0,0,0,2-.4l.09.94C245.94,394.79,245.13,395,244.17,395.09Zm3.23,6c-1.75,0-2.09-1-2.09-1.55a5.76,5.76,0,0,1,.3-1.56l.81.15a5.37,5.37,0,0,0-.24,1.12c0,.7.3.93,1.8.93a16.83,16.83,0,0,0,2.74-.26V401C249.22,401.05,248.24,401.09,247.4,401.09Zm2.92-5a10.15,10.15,0,0,0-2.88-.43,5.86,5.86,0,0,0-.75,0l.06-.83a6.48,6.48,0,0,1,.9-.06,14.25,14.25,0,0,1,2.85.34Z" transform="translate(-115.65 -225.72)"/><path class="cls-4" d="M257.53,401.45c-2,0-2.9-.89-2.9-2.35a7.42,7.42,0,0,1,.1-1.13,20.63,20.63,0,0,1-2.73-.48l.1-.94a16.54,16.54,0,0,0,2.77.5c.12-.73.27-1.54.44-2.36a12,12,0,0,1-2.15-.44l.15-1a6.76,6.76,0,0,0,2.18.55c.15-.78.29-1.52.39-2.12l1.09.16a5.64,5.64,0,0,0-.59,2.07c.56.05,1.12.08,1.61.08h.22l-.08,1c-.53,0-1.2-.07-1.94-.15-.17.86-.31,1.68-.43,2.36.68.05,1.32.1,1.77.1h.14l.06.93c-.63,0-1.36,0-2.1-.11a4.71,4.71,0,0,0-.08.77c0,1.18.55,1.69,2,1.69,1.61,0,2.25-.61,2.25-1.4s-.27-1.23-1.69-2.62l.68-.6c1.61,1.62,2,2.23,2,3.26C260.73,400.84,259.29,401.45,257.53,401.45Z" transform="translate(-115.65 -225.72)"/><path class="cls-4" d="M268.67,401.15l-.41-.86c2.43-.94,3.21-2.1,3.21-3.57a3.11,3.11,0,0,0-2.86-3.39c-.41,3.64-1.59,7.13-3.08,7.13-1.08,0-2-1.41-2-3.4a4.71,4.71,0,0,1,4.69-4.68,4.14,4.14,0,0,1,4.21,4.34C272.39,398.67,271.62,399.85,268.67,401.15Zm-4.26-4c0,1.24.52,2.25,1,2.25,1.07,0,2.15-3.64,2.26-6A3.73,3.73,0,0,0,264.41,397.12Z" transform="translate(-115.65 -225.72)"/><path class="cls-4" d="M276,401.44l-.81-.17a28.38,28.38,0,0,1-.26-4.91,38.85,38.85,0,0,1,.39-4.28l1.09.17c-.45.32-.58,3.51-.58,4.08,0,3.05,0,3.58.09,3.58a8.41,8.41,0,0,0,.83-1.57l.63.46C276.75,400,276.24,401.15,276,401.44Zm8.08-.85a12.21,12.21,0,0,0-1.77-.89v.08c0,.78-.57,1.56-2,1.56s-1.91-.84-1.91-1.5a1.71,1.71,0,0,1,1.85-1.44,6.69,6.69,0,0,1,1.12.12c0-.78-.1-2-.17-3.15-.61.05-1.25.07-1.81.07-.41,0-.78,0-1.1,0l0-1a4.51,4.51,0,0,0,1.46.16c.44,0,.92,0,1.43-.06-.07-1.21-.12-2.23-.13-2.52h1.19a1,1,0,0,0-.2.6c0,.6,0,1.23.08,1.83a17.69,17.69,0,0,0,1.92-.3l.07,1c-.49.09-1.18.19-1.95.27.05,1.26.12,2.61.15,3.5a20.79,20.79,0,0,1,2.26.92Zm-2.71-1.2a4.89,4.89,0,0,0-1.21-.17c-.67,0-1,.38-1,.65,0,.45.52.68,1.05.68.69,0,1.14-.17,1.14-1.15Z" transform="translate(-115.65 -225.72)"/><path class="cls-4" d="M288.38,401.13a10.66,10.66,0,0,0-1.75-2.74l.7-.46a12.76,12.76,0,0,1,1.83,2.73Z" transform="translate(-115.65 -225.72)"/><path class="cls-4" d="M300.35,401.64l-.46-.76c2.38-1.1,2.89-1.86,2.89-2.48a1.93,1.93,0,0,0-1.58-1.9,13,13,0,0,1-2.18,3.17,2.21,2.21,0,0,0,.47.82l-.8.6a3.78,3.78,0,0,1-.41-.78,3.49,3.49,0,0,1-2,.69,1.59,1.59,0,0,1-1.53-1.6,3.91,3.91,0,0,1,2.95-3.56c0-.47,0-1,.06-1.48-.71.07-1.39.11-2,.11l-.63,0V393.4a4.45,4.45,0,0,0,1.05.1c.49,0,1.06,0,1.66-.09.05-.54.11-1.09.18-1.67l1.23,0c-.31.15-.44,1.25-.48,1.55a27.46,27.46,0,0,0,3.25-.54l0,.92a28,28,0,0,1-3.4.59c-.05.44-.08.89-.09,1.33a7.24,7.24,0,0,1,1.24-.11c.33,0,.66,0,1,.05.12-.27.22-.55.32-.81l.84.3-.31.69a2.68,2.68,0,0,1,2.16,2.69C303.75,399.58,302.84,400.54,300.35,401.64Zm-2.66-4.9a3,3,0,0,0-2.07,2.54.76.76,0,0,0,.8.79,2.68,2.68,0,0,0,1.59-.62A14.94,14.94,0,0,1,297.69,396.74Zm2.07-.44a5.19,5.19,0,0,0-1.23.16,13.94,13.94,0,0,0,.23,2.28,10.93,10.93,0,0,0,1.62-2.41C300.18,396.31,300,396.3,299.76,396.3Z" transform="translate(-115.65 -225.72)"/><path class="cls-4" d="M308.52,394.43a49.3,49.3,0,0,1-1.8,5.66l-.94-.39a26.38,26.38,0,0,0,1.76-5.09,15,15,0,0,1-1.8.19l-.07-1H306a12.18,12.18,0,0,0,1.82-.17c.16-.75.28-1.43.35-2l1.2.24c-.28.14-.48,1.28-.55,1.55.58-.12,1.18-.26,1.73-.42l.07.93C309.94,394.12,309.22,394.29,308.52,394.43Zm5.92,6.12c-.8-.42-1.52-.78-2.19-1.05v.32a1.68,1.68,0,0,1-1.81,1.6c-1.48,0-2-.85-2-1.68a1.63,1.63,0,0,1,1.81-1.5,5.13,5.13,0,0,1,1.1.11c0-.37,0-.75,0-1.11a7.33,7.33,0,0,1,.05-1.18,2.21,2.21,0,0,1,1.23-1.17,13.82,13.82,0,0,0-1.37-.56l.37-.76a16.63,16.63,0,0,1,3.16,1.45l-.48.81c-.26-.18-.57-.35-.88-.53-.71.28-1.2.68-1.2,1.1,0,.19,0,1.27,0,2.18a24.07,24.07,0,0,1,2.65,1.07Zm-3.07-1.36a4.39,4.39,0,0,0-1.17-.18c-.76,0-1,.42-1,.82s.48.81,1.12.81a1.06,1.06,0,0,0,1-1.13Z" transform="translate(-115.65 -225.72)"/><path class="cls-4" d="M319.6,395.09c-.5,2.3-1.14,5.17-1.54,6.4l-1-.29a36.06,36.06,0,0,0,1.58-6c-.41,0-.84.06-1.29.06a4,4,0,0,1-.49,0l-.08-1a4.59,4.59,0,0,0,1,.08c.34,0,.71,0,1.07-.05.2-1,.35-2,.4-2.54l1.23.18a.68.68,0,0,0-.27.49l-.39,1.76a17.15,17.15,0,0,0,2-.4l.09.94C321.38,394.79,320.57,395,319.6,395.09Zm3.24,6c-1.75,0-2.09-1-2.09-1.55a5.76,5.76,0,0,1,.3-1.56l.81.15a4.75,4.75,0,0,0-.24,1.12c0,.7.3.93,1.8.93a16.83,16.83,0,0,0,2.74-.26V401C324.65,401.05,323.68,401.09,322.84,401.09Zm2.91-5a10.08,10.08,0,0,0-2.87-.43,6.12,6.12,0,0,0-.76,0l.07-.83a6.48,6.48,0,0,1,.9-.06,14.25,14.25,0,0,1,2.85.34Z" transform="translate(-115.65 -225.72)"/><path class="cls-4" d="M333.26,401.15l-.42-.86c2.43-.94,3.21-2.1,3.21-3.57a3.11,3.11,0,0,0-2.86-3.39c-.41,3.64-1.58,7.13-3.08,7.13-1.08,0-2-1.41-2-3.4a4.71,4.71,0,0,1,4.69-4.68,4.14,4.14,0,0,1,4.21,4.34C337,398.67,336.2,399.85,333.26,401.15Zm-4.27-4c0,1.24.53,2.25,1,2.25,1.07,0,2.15-3.64,2.26-6A3.73,3.73,0,0,0,329,397.12Z" transform="translate(-115.65 -225.72)"/></g><g class="cls-3"><path class="cls-4" d="M340.88,398.81a14.58,14.58,0,0,1-1,2.25l-1.2-.55a10.9,10.9,0,0,0,1.2-2.75l1.39.33C341.12,398.13,341.07,398.21,340.88,398.81Zm3.58-1.81,1.05,1.56-1,.57-1.08-1.77.73-.36h-4.32v-5.18h8V397Zm-1.26-4.18h-2v1.09h2Zm0,2.08h-2V396h2Zm1.79,6.56h-2.2c-.86,0-1.24-.43-1.24-1.19v-2.88H343a.9.9,0,0,0-.17.65v1.76a.37.37,0,0,0,.41.41h1.65c.41,0,.61-.26.68-1.22l1.26.45C346.61,401,346.15,401.46,345,401.46Zm1.49-8.64h-2v1.09h2Zm0,2.08h-2V396h2Zm1.41,6.1-1.48-2.72,1.1-.48,1.53,2.65Z" transform="translate(-115.65 -225.72)"/><path class="cls-4" d="M360.32,392.36c-.18,0-.3.09-.65.5a16.83,16.83,0,0,1-1.7,1.66h2.36v1.07h-3.75c-.55.38-1.14.75-1.75,1.11a34.35,34.35,0,0,0,4.4-.64l.5,1.15a.83.83,0,0,0-.45-.12,1.37,1.37,0,0,0-.34,0,42.92,42.92,0,0,1-4.5.59l-.2.53h5.11v1.49c0,1.17-.49,1.72-1.63,1.72h-2.4l-.43-1.18a15.57,15.57,0,0,0,2.42.11c.5,0,.64-.21.64-.78v-.39h-4.06l-.27.73-1.28-.33.73-2c-.72.34-1.47.66-2.23.94l-.68-1.17a20.7,20.7,0,0,0,4.22-1.8h-4.16v-1.07h3.65v-1h-2.56v-1.05h2.56v-.95h1.61c-.19.1-.21.24-.21.85v.1h2.38v.76a9.48,9.48,0,0,0,1.43-1.66l1.3.83Zm-5.05,1.12v1h.78a15.2,15.2,0,0,0,1.28-1Z" transform="translate(-115.65 -225.72)"/><path class="cls-4" d="M370.77,401.53v-.48H364v.48h-1.29v-9.41H372v9.41Zm0-8.19H364v6.54h6.79Zm-2.3,5.49v-.25h-2.2v.25h-1.16v-4.18h4.51v4.18Zm0-3.15h-2.2v1.85h2.2Z" transform="translate(-115.65 -225.72)"/><path class="cls-4" d="M384.37,397.84l-.45-.21v4h-1.17v-.37h-2.27v.37H379.3V397.7c-.15.08-.32.15-.48.22l-.44-1.11a8.22,8.22,0,0,0,2.52-1.41,9.53,9.53,0,0,1-.89-1,8.81,8.81,0,0,1-.94,1l-.63-.76v1h-1.13v1.31h1v1.14h-1v1.64c.47-.11.92-.23,1.33-.35v1.12a27.1,27.1,0,0,1-3.62.85,1,1,0,0,0-.61.26l-.2-1.38.54-.05v-3.57h1.1c-.13.08-.21.33-.21.82V400l.62-.11v-4.31h-1.56v-3.86h3.73v2.6a9.38,9.38,0,0,0,2.13-2.82l1.31.27c-.18.05-.31.17-.55.61h2.36v1a7,7,0,0,1-1.26,1.92,8.28,8.28,0,0,0,2.38,1.35Zm-7.09-4.94h-1.39v1.62h1.39Zm4.39,3.22a10.5,10.5,0,0,1-1.9,1.33h3.79A11.53,11.53,0,0,1,381.67,396.12Zm1.08,2.42h-2.27v1.58h2.27Zm-2.08-5.06a.33.33,0,0,0-.06.08,8.07,8.07,0,0,0,1,1.13,5.34,5.34,0,0,0,.88-1.21Z" transform="translate(-115.65 -225.72)"/></g><g class="cls-3"><path class="cls-4" d="M394.43,393.59c-1.89,1.14-3.45,2.88-3.45,4.38s1.08,2.36,4,2.36h.34l-.07,1h-.15c-3.49,0-5.1-1.08-5.1-3.29,0-1.51,1.23-3,2.94-4.23l-5.8.67-.1-1.08a1.16,1.16,0,0,0,.35,0h.22c2.37-.18,6.33-.59,8.59-1l.09,1C395.85,393.42,395.19,393.51,394.43,393.59Zm1.16,2.56-1-1.08.45-.39,1,1.07Zm1-.75-1-1.09.45-.39,1,1.08Z" transform="translate(-115.65 -225.72)"/><path class="cls-4" d="M404.56,394.24c0,.69,0,1.35,0,1.84a3.41,3.41,0,0,1,.33,1.59c0,1.27-.18,2.56-3.15,4.15l-.52-.8c1.92-1,2.57-1.61,2.71-2.81a1.76,1.76,0,0,1-1.32.73c-.75,0-1.39-.71-1.39-1.87s.74-2,1.52-2a2.42,2.42,0,0,1,1,.19v-1c-.71,0-1.42,0-2.1,0-1,0-2,0-2.7-.06v-1a23.08,23.08,0,0,0,3.37.17h1.41a17.06,17.06,0,0,0-.1-1.81h1.12a1,1,0,0,0-.13.59v1.19a21.84,21.84,0,0,0,3.75-.37v1A27.39,27.39,0,0,1,404.56,394.24ZM402.84,396c-.41,0-.77.51-.77,1.12s.28,1,.72,1,.85-.54.9-1.52A1,1,0,0,0,402.84,396Z" transform="translate(-115.65 -225.72)"/><path class="cls-4" d="M412,401.5v-1.08h1.17v1.08Zm.92-2.34h-.71l-.16-3.84v-3.68h1v3.68Z" transform="translate(-115.65 -225.72)"/></g><g class="cls-3"><path class="cls-4" d="M166.9,414.43a47.4,47.4,0,0,1-1.79,5.66l-1-.39a26.38,26.38,0,0,0,1.76-5.09,14.82,14.82,0,0,1-1.79.19l-.08-1h.29a12.17,12.17,0,0,0,1.81-.17c.17-.75.29-1.43.36-2l1.2.24c-.28.14-.49,1.28-.55,1.55.58-.12,1.17-.26,1.72-.42l.08.93C168.32,414.12,167.61,414.29,166.9,414.43Zm5.92,6.12a23.53,23.53,0,0,0-2.19-1.05v.32a1.67,1.67,0,0,1-1.8,1.6c-1.49,0-2-.85-2-1.68a1.62,1.62,0,0,1,1.81-1.5,5.2,5.2,0,0,1,1.1.11c0-.37,0-.75,0-1.11a9.56,9.56,0,0,1,0-1.18,2.27,2.27,0,0,1,1.24-1.17,13.85,13.85,0,0,0-1.38-.56l.37-.76a16.08,16.08,0,0,1,3.16,1.45l-.47.81c-.26-.18-.57-.35-.88-.53-.72.28-1.2.68-1.2,1.1,0,.19,0,1.27,0,2.18a22.59,22.59,0,0,1,2.65,1.07Zm-3.07-1.36a4.32,4.32,0,0,0-1.16-.18c-.76,0-1,.42-1,.82s.48.81,1.12.81a1.05,1.05,0,0,0,1-1.13Z" transform="translate(-115.65 -225.72)"/><path class="cls-4" d="M178.85,421.14l-.19-1c2-.24,2.22-.4,2.22-2.48s-.24-2.5-.77-2.5H178.9c-.51,2-1.17,4.47-1.72,6.11l-1-.39a44,44,0,0,0,1.76-5.71,12.8,12.8,0,0,0-2.05.17l0-1h2.31a19.59,19.59,0,0,0,.45-2.4l1.19.28c-.27.08-.64,1.86-.7,2.11l1.21,0c1,0,1.48.43,1.48,3.42C181.82,420.29,181.62,420.67,178.85,421.14Zm5.57-3c-.81-2.26-1.12-2.82-1.73-3.29l.67-.51c.72.61.9,1,2,3.36Z" transform="translate(-115.65 -225.72)"/><path class="cls-4" d="M190.13,414.43a47.4,47.4,0,0,1-1.79,5.66l-.94-.39a27.81,27.81,0,0,0,1.76-5.09,15.17,15.17,0,0,1-1.8.19l-.07-1h.28a12.29,12.29,0,0,0,1.82-.17c.16-.75.28-1.43.35-2l1.2.24c-.28.14-.49,1.28-.55,1.55.58-.12,1.17-.26,1.73-.42l.07.93C191.55,414.12,190.84,414.29,190.13,414.43Zm5.92,6.12a22.38,22.38,0,0,0-2.19-1.05v.32a1.67,1.67,0,0,1-1.8,1.6c-1.49,0-2-.85-2-1.68a1.63,1.63,0,0,1,1.81-1.5,5.13,5.13,0,0,1,1.1.11c0-.37,0-.75,0-1.11a7.33,7.33,0,0,1,0-1.18,2.21,2.21,0,0,1,1.23-1.17,13,13,0,0,0-1.38-.56l.38-.76a16.26,16.26,0,0,1,3.15,1.45l-.47.81c-.26-.18-.57-.35-.88-.53-.71.28-1.2.68-1.2,1.1,0,.19,0,1.27,0,2.18a22.59,22.59,0,0,1,2.65,1.07ZM193,419.19a4.27,4.27,0,0,0-1.16-.18c-.76,0-1,.42-1,.82s.48.81,1.12.81a1.05,1.05,0,0,0,1-1.13Z" transform="translate(-115.65 -225.72)"/><path class="cls-4" d="M202.08,421.14l-.19-1c2-.24,2.23-.4,2.23-2.48s-.25-2.5-.77-2.5h-1.21c-.52,2-1.18,4.47-1.73,6.11l-1-.39a42.53,42.53,0,0,0,1.76-5.71,12.8,12.8,0,0,0-2,.17l0-1h2.31a19.59,19.59,0,0,0,.45-2.4l1.19.28c-.26.08-.64,1.86-.69,2.11l1.21,0c1,0,1.47.43,1.47,3.42C205.05,420.29,204.85,420.67,202.08,421.14Zm5.57-3c-.81-2.26-1.11-2.82-1.73-3.29l.67-.51c.73.61.9,1,2,3.36Z" transform="translate(-115.65 -225.72)"/><path class="cls-4" d="M210.62,414.31v-.72h4.58v.72Zm1.14,6.7v.52h-.82v-3.22h3.94V421Zm-.61-8.27V412h3.51v.72Zm0,3.15v-.72h3.51v.72Zm0,1.58v-.72h3.51v.72Zm2.91,1.55h-2.3v1.3h2.3Zm5.14,2.3h-1.9a1.25,1.25,0,0,1-1.4-1.44v-4.17h3.25V413H215.9v-.87H220v5h-.87v-.59h-2.38v3.19c0,.49.18.68.71.68h1.6c.54,0,.72-.35.89-1.77l.81.33C220.52,420.86,220.08,421.32,219.2,421.32Z" transform="translate(-115.65 -225.72)"/><path class="cls-4" d="M226.45,414.24a6.64,6.64,0,0,1-1.51-1.56,8.11,8.11,0,0,1-1.37,1.79h2.66v.75h-1v1.39h1.51v.76h-1.51V420c.56-.14,1.11-.29,1.51-.42l.09.72a25.93,25.93,0,0,1-3.44.88.79.79,0,0,0-.43.22l-.14-1h0a9.29,9.29,0,0,0,1.58-.25v-2.8h-1.52v-.76h1.52v-1.39h-1v-.61l-.37.32-.55-.66a6.51,6.51,0,0,0,2.11-2.72l.91.14a.55.55,0,0,0-.25.3,5.8,5.8,0,0,0,1.67,1.6Zm-3,5.67a7.07,7.07,0,0,0-.58-1.64l.6-.27a9.19,9.19,0,0,1,.56,1.59Zm3-1.47-.32,1-.56-.19.45-1.46.73.27C226.68,418,226.61,418.13,226.51,418.44Zm1,2.56c-.28.2-.37.26-.43.44l-.41-.93a7.9,7.9,0,0,0,2.1-1.56l.23.75A9.85,9.85,0,0,1,227.51,421Zm4.76.34a9.32,9.32,0,0,1-2-2.68v1.68a1,1,0,0,1-1.16,1.19h-.58l-.3-.91a2.35,2.35,0,0,0,.71.08c.36,0,.52-.13.52-.54v-4h-2.51v-.72H231v-1h-3.39v-.72H231v-1h-3.7V412h4.54v3.48h.85v.72h-2.43V417a6,6,0,0,0,.49,1.11l1.34-1.25.62.53c-.14,0-.29.13-.53.33l-1.09,1a8,8,0,0,0,1.74,2Zm-3.69-2.85-1.35-.87.46-.49,1.36.84Z" transform="translate(-115.65 -225.72)"/><path class="cls-4" d="M235.78,421.27l-.78-.17a33.67,33.67,0,0,1-.28-4.78,30.26,30.26,0,0,1,.46-4.23l1.09.2c-.44.27-.68,3.48-.68,4,0,3.05.08,3.5.13,3.5a11.44,11.44,0,0,0,.68-1.46l.48.44A20.61,20.61,0,0,0,235.78,421.27Zm4.3-.83c-1.42,0-2.22-.78-2.22-1.72a3.92,3.92,0,0,1,.33-1.49l.8.19a3.81,3.81,0,0,0-.26,1.11c0,.6.38,1,1.93,1a17.62,17.62,0,0,0,2.79-.24l.09,1A24.34,24.34,0,0,1,240.08,420.44Zm3-6.31a14.79,14.79,0,0,0-1.73-.08c-.94,0-2,.05-3.1.13l-.06-.95c.68,0,2-.08,3.38-.08.55,0,1.1,0,1.59,0Z" transform="translate(-115.65 -225.72)"/><path class="cls-4" d="M246.53,421.44l-.81-.17a27.84,27.84,0,0,1-.27-4.91,38.52,38.52,0,0,1,.4-4.28l1.09.17c-.45.32-.58,3.51-.58,4.08,0,3.05,0,3.58.08,3.58a7.77,7.77,0,0,0,.84-1.57l.63.46C247.25,420,246.74,421.15,246.53,421.44Zm8.08-.85a12.21,12.21,0,0,0-1.77-.89v.08c0,.78-.58,1.56-2,1.56s-1.91-.84-1.91-1.5a1.71,1.71,0,0,1,1.85-1.44,6.69,6.69,0,0,1,1.12.12c-.05-.78-.1-2-.17-3.15-.61.05-1.25.07-1.81.07-.41,0-.78,0-1.1,0l0-1a4.51,4.51,0,0,0,1.46.16c.44,0,.92,0,1.43-.06-.07-1.21-.12-2.23-.13-2.52h1.18a1,1,0,0,0-.19.6c0,.6,0,1.23.07,1.83a17.52,17.52,0,0,0,1.93-.3l.06,1c-.48.09-1.17.19-1.94.27.05,1.26.12,2.61.15,3.5a20.79,20.79,0,0,1,2.26.92Zm-2.71-1.2a5,5,0,0,0-1.21-.17c-.67,0-1,.38-1,.65,0,.45.52.68,1,.68.69,0,1.14-.17,1.14-1.15Z" transform="translate(-115.65 -225.72)"/><path class="cls-4" d="M264.33,413.59c-1.88,1.14-3.44,2.88-3.44,4.38s1.08,2.36,4,2.36h.34l-.06,1H265c-3.48,0-5.09-1.08-5.09-3.29,0-1.51,1.22-3,2.94-4.23l-5.8.67-.1-1.08a1.13,1.13,0,0,0,.34,0h.22c2.38-.18,6.34-.59,8.59-1l.09,1C265.75,413.42,265.09,413.51,264.33,413.59Zm1.17,2.56-1-1.08.45-.39,1,1.07Zm.94-.75-1-1.09.45-.39,1,1.08Z" transform="translate(-115.65 -225.72)"/><path class="cls-4" d="M274.41,415.92c.38.73.87,1.75,1.67,2.08l-.46.73a7.49,7.49,0,0,0-2.53-.45c-.59,0-2.23.09-2.23,1,0,.7.85,1.07,2.23,1.07a19.65,19.65,0,0,0,3-.28l.09,1c-.73.06-2.16.18-3.12.18-2.59,0-3.24-1-3.24-2s1.21-1.8,2.86-1.8a7.47,7.47,0,0,1,1.7.15,9.92,9.92,0,0,1-.87-1.51,34.63,34.63,0,0,1-4.55.92l-.19-.89a18.66,18.66,0,0,0,4.37-.77c-.19-.41-.4-.88-.64-1.42a19.13,19.13,0,0,1-3.46.67l-.16-.82a16.05,16.05,0,0,0,3.3-.61c-.19-.44-.4-.91-.61-1.44l1-.33a.37.37,0,0,0,0,.11,6.54,6.54,0,0,0,.51,1.42,12.08,12.08,0,0,0,2-.77l.38.75a13.23,13.23,0,0,1-2.09.78c.2.48.41,1,.63,1.41a13,13,0,0,0,2.64-1.05l.38.73A12.47,12.47,0,0,1,274.41,415.92Z" transform="translate(-115.65 -225.72)"/><path class="cls-4" d="M281.82,414.43a47.4,47.4,0,0,1-1.79,5.66l-.95-.39a26.38,26.38,0,0,0,1.76-5.09,15,15,0,0,1-1.79.19l-.08-1h.29a12.17,12.17,0,0,0,1.81-.17,18.53,18.53,0,0,0,.35-2l1.2.24c-.27.14-.48,1.28-.55,1.55.59-.12,1.18-.26,1.73-.42l.08.93C283.24,414.12,282.52,414.29,281.82,414.43Zm5.92,6.12a23.53,23.53,0,0,0-2.19-1.05v.32a1.68,1.68,0,0,1-1.8,1.6c-1.49,0-2-.85-2-1.68a1.63,1.63,0,0,1,1.82-1.5,5.26,5.26,0,0,1,1.1.11c0-.37,0-.75,0-1.11a9.56,9.56,0,0,1,0-1.18,2.25,2.25,0,0,1,1.23-1.17,12.9,12.9,0,0,0-1.37-.56l.37-.76a16.08,16.08,0,0,1,3.16,1.45l-.47.81c-.27-.18-.57-.35-.88-.53-.72.28-1.2.68-1.2,1.1,0,.19,0,1.27,0,2.18a23.31,23.31,0,0,1,2.65,1.07Zm-3.07-1.36a4.33,4.33,0,0,0-1.17-.18c-.76,0-1,.42-1,.82s.49.81,1.13.81a1.05,1.05,0,0,0,1-1.13Z" transform="translate(-115.65 -225.72)"/><path class="cls-4" d="M292.41,421c-.73,0-1.76-1.49-1.9-3.8,0-.38,0-.91,0-1.49a29.75,29.75,0,0,1,.13-3l1,.07a8.59,8.59,0,0,0-.28,2.73c0,.74,0,1.36.05,1.65.1,1.61.63,2.59,1,2.59a7.63,7.63,0,0,0,1.28-2.07l.74.46C293.14,420.15,292.73,421,292.41,421Zm5.94-2.23a18.57,18.57,0,0,0-1.6-4.24l.85-.35a21.51,21.51,0,0,1,1.74,4.25Z" transform="translate(-115.65 -225.72)"/><path class="cls-4" d="M306.79,421.45c-2,0-2.9-.89-2.9-2.35A7.42,7.42,0,0,1,304,418a20.32,20.32,0,0,1-2.73-.48l.1-.94a16.54,16.54,0,0,0,2.77.5c.12-.73.27-1.54.44-2.36a12,12,0,0,1-2.15-.44l.15-1a6.68,6.68,0,0,0,2.17.55c.16-.78.3-1.52.4-2.12l1.09.16a5.85,5.85,0,0,0-.6,2.07c.57.05,1.13.08,1.62.08h.22l-.09,1c-.52,0-1.19-.07-1.93-.15-.17.86-.31,1.68-.43,2.36.68.05,1.32.1,1.77.1h.14l.06.93c-.63,0-1.37,0-2.1-.11a4.71,4.71,0,0,0-.08.77c0,1.18.55,1.69,2,1.69,1.61,0,2.24-.61,2.24-1.4s-.26-1.23-1.68-2.62l.68-.6c1.61,1.62,2,2.23,2,3.26C310,420.84,308.55,421.45,306.79,421.45Z" transform="translate(-115.65 -225.72)"/><path class="cls-4" d="M317.09,421.15l-.42-.86c2.43-.94,3.21-2.1,3.21-3.57a3.11,3.11,0,0,0-2.86-3.39c-.41,3.64-1.58,7.13-3.08,7.13-1.08,0-2-1.41-2-3.4a4.71,4.71,0,0,1,4.68-4.68,4.13,4.13,0,0,1,4.21,4.34C320.8,418.67,320,419.85,317.09,421.15Zm-4.27-4c0,1.24.53,2.25,1,2.25,1.07,0,2.15-3.64,2.26-6A3.73,3.73,0,0,0,312.82,417.12Z" transform="translate(-115.65 -225.72)"/><path class="cls-4" d="M325.16,421.13a10.39,10.39,0,0,0-1.75-2.74l.71-.46a12.37,12.37,0,0,1,1.82,2.73Z" transform="translate(-115.65 -225.72)"/><path class="cls-4" d="M334.85,412.26a13.45,13.45,0,0,1-1.13,2.86h.48c-.11.09-.13.21-.13.64v5.77h-.88v-5.47a10,10,0,0,1-1.3,1.72l-.54-.87a11.8,11.8,0,0,0,2.73-5.33l1.12.18C335,411.8,334.92,412,334.85,412.26Zm6.32,9.12a12.65,12.65,0,0,1-2.53-3.34v3.49h-.88V418a13,13,0,0,1-2.53,3.35l-.62-.73a10.72,10.72,0,0,0,2.53-3.08h-2.31v-.82h2.93v-1.13h-2.27V412h5.4v3.62h-2.25v1.13h2.95v.82h-2.35a10.93,10.93,0,0,0,2.54,3.08ZM340,412.82h-3.63v2H340Z" transform="translate(-115.65 -225.72)"/><path class="cls-4" d="M347.77,413.73a20.11,20.11,0,0,1-1.5,2.47h.31c-.12.12-.16.21-.16.61v4.71h-.88v-4.37a16.4,16.4,0,0,1-1.34,1.42l-.56-.84a13,13,0,0,0,3.1-4h-2.8v-.87h3.22a9.58,9.58,0,0,0,.46-1.32l1.19.15c-.2.05-.51.93-.62,1.17h5.3v.87Zm3.16,4.81v1.86c0,.7-.31,1.13-1,1.13h-1l-.28-.93a5.24,5.24,0,0,0,1.11.09c.22,0,.34-.13.34-.41v-1.74h-2.8v-.82h2.8V417h.32a7.08,7.08,0,0,0,1.53-1.22h-3.74v-.81H353v.72a9.8,9.8,0,0,1-2.08,1.79v.29h2.77v.82Z" transform="translate(-115.65 -225.72)"/><path class="cls-4" d="M358.48,421.3c-1.5,0-2.27-.73-2.27-2.05,0-.4.05-3.73.05-5.78,0-.77,0-1.35,0-1.54l1.14,0c-.28.38-.29,3.77-.29,4.73v.17c0,1.25,0,2.26,0,2.35,0,.59.3,1.12,1.26,1.12a10.56,10.56,0,0,0,4.4-1.63l.41.86A11.94,11.94,0,0,1,358.48,421.3Z" transform="translate(-115.65 -225.72)"/><path class="cls-4" d="M372.44,413.59c-1.88,1.14-3.44,2.88-3.44,4.38s1.07,2.36,4,2.36h.34l-.06,1h-.16c-3.49,0-5.09-1.08-5.09-3.29,0-1.5,1.22-3,2.92-4.23-2.22.28-4.73.56-5.74.67l-.11-1.08a1.25,1.25,0,0,0,.35,0h.22c2.39-.18,6.23-.57,8.55-1l.09,1C373.85,413.42,373.2,413.51,372.44,413.59Z" transform="translate(-115.65 -225.72)"/><path class="cls-4" d="M383.2,421.06c-.69,0-1.22-.44-1.76-1.72l.7-.38c.42,1,.77,1.17,1.06,1.17a1.45,1.45,0,0,0,1.43-1.42c0-1.12-.74-1.68-2-1.68a6.09,6.09,0,0,0-2.23.48c0,1.2,0,2.16,0,2.38,0,.94.08,1,.14,1.16l-.95.47a10.15,10.15,0,0,0-2.27-2.15l-.43.37-.46-.91a21.25,21.25,0,0,1,3.05-1.89c0-.68,0-1.41,0-2.09-.51,0-1.05.07-1.57.07-.33,0-.66,0-1,0l0-1a5.07,5.07,0,0,0,1.32.13c.39,0,.81,0,1.24,0v-2.22l1.12.07c-.11.07-.13.22-.16.53s0,.95-.05,1.54a14.24,14.24,0,0,0,1.67-.26l.07.92c-.43.07-1.05.16-1.75.22v1.78a6.44,6.44,0,0,1,2.22-.44c1.84,0,3,.92,3,2.62A2.44,2.44,0,0,1,383.2,421.06Zm-3.73-3.14a12.16,12.16,0,0,0-1.61,1,11.69,11.69,0,0,0,1.63,1.34C379.49,419.89,379.48,419,379.47,417.92Zm6.07-2.48c-1.41-1.2-1.85-1.52-2.42-1.67l.45-.77a9.41,9.41,0,0,1,2.56,1.66Z" transform="translate(-115.65 -225.72)"/><path class="cls-4" d="M393.93,415.92c.39.73.87,1.75,1.68,2.08l-.47.73a7.4,7.4,0,0,0-2.53-.45c-.58,0-2.22.09-2.22,1,0,.7.85,1.07,2.22,1.07a19.65,19.65,0,0,0,3-.28l.09,1c-.73.06-2.16.18-3.13.18-2.58,0-3.23-1-3.23-2s1.21-1.8,2.86-1.8a7.38,7.38,0,0,1,1.69.15,10.87,10.87,0,0,1-.87-1.51,34.49,34.49,0,0,1-4.54.92l-.2-.89a18.65,18.65,0,0,0,4.38-.77c-.2-.41-.41-.88-.65-1.42a19,19,0,0,1-3.45.67l-.17-.82a15.94,15.94,0,0,0,3.3-.61c-.18-.44-.39-.91-.6-1.44l1-.33a.37.37,0,0,0,0,.11,6.5,6.5,0,0,0,.5,1.42,11.92,11.92,0,0,0,2-.77l.37.75a12.85,12.85,0,0,1-2.09.78c.21.48.42,1,.64,1.41a13.26,13.26,0,0,0,2.64-1.05l.37.73A12.25,12.25,0,0,1,393.93,415.92Z" transform="translate(-115.65 -225.72)"/><path class="cls-4" d="M403.42,416.86c0,.75.06,1.43.08,1.95.82.29,1.74.68,2.74,1.15l-.47.91a15.92,15.92,0,0,0-2.22-1.14v0a1.74,1.74,0,0,1-2,1.7c-1.54,0-2.52-.78-2.52-1.59s.95-1.52,2.32-1.52a4.92,4.92,0,0,1,1.21.18c0-.45,0-1-.07-1.61-.72,0-1.45,0-2.12,0a16.21,16.21,0,0,1-1.89-.08l0-1a7.48,7.48,0,0,0,2.11.18c.57,0,1.2,0,1.84-.05,0-.6-.07-1.23-.09-1.8-.71,0-1.44.07-2.08.07a10.41,10.41,0,0,1-1.35-.06l0-1a6,6,0,0,0,1.6.13c.52,0,1.13,0,1.76,0l-.08-1.54h1.2a.8.8,0,0,0-.21.59l0,.89c1-.08,1.87-.17,2.49-.28l0,.94c-.51.08-1.43.18-2.48.25,0,.59.05,1.2.08,1.82a23.56,23.56,0,0,0,2.84-.34l0,1A23.42,23.42,0,0,1,403.42,416.86Zm-.8,2.54a4.45,4.45,0,0,0-1.25-.22c-1,0-1.42.33-1.42.74s.78.77,1.56.77a1,1,0,0,0,1.11-1.15Z" transform="translate(-115.65 -225.72)"/><path class="cls-4" d="M410.94,421.3c-1.5,0-2.27-.73-2.27-2.05,0-.4.05-3.73.05-5.78,0-.77,0-1.35,0-1.54l1.15,0c-.28.38-.29,3.77-.29,4.73v.17c0,1.25,0,2.26,0,2.35,0,.59.31,1.12,1.27,1.12a10.56,10.56,0,0,0,4.4-1.63l.41.86A11.94,11.94,0,0,1,410.94,421.3Z" transform="translate(-115.65 -225.72)"/><path class="cls-4" d="M423,420.66c-.65-.4-1.36-.79-2-1.11a1.49,1.49,0,0,1-1.48,1.34c-1.13,0-2-.58-2-1.42s.73-1.28,1.56-1.28a3.42,3.42,0,0,1,1.19.26c0-1-.06-2.56-.19-4.87h1a.78.78,0,0,0-.17.5l.05,1.7a15.06,15.06,0,0,0,2.24-.28l.06.77a18.85,18.85,0,0,1-2.28.25c0,.87.06,1.7.07,2.24.62.27,1.38.66,2.35,1.16Zm-3.89-1.78c-.56,0-.84.26-.84.6s.57.7,1.23.7c.44,0,.7-.24.77-1A3.59,3.59,0,0,0,419.13,418.88Z" transform="translate(-115.65 -225.72)"/><path class="cls-4" d="M427.32,421.68l-.48-.84c3.69-1.33,5.14-2.51,5.14-3.72s-.88-1.8-2.34-1.8a14.63,14.63,0,0,0-3.91,1.23l-.39-.93c.84-.11,3.21-1.19,4.31-1.19,1.84,0,3.29.94,3.29,2.71S431,420.32,427.32,421.68Zm3.42-8.12c-2.61-.52-3.27-.82-3.78-1.22l.41-.77c.51.36.95.62,3.59,1.1Z" transform="translate(-115.65 -225.72)"/><path class="cls-4" d="M437.36,421a1.79,1.79,0,0,1-1.81-1.79,1.82,1.82,0,1,1,1.81,1.79Zm0-3a1.2,1.2,0,0,0-1.2,1.17,1.18,1.18,0,0,0,2.35,0A1.15,1.15,0,0,0,437.37,418Z" transform="translate(-115.65 -225.72)"/></g></g><g id="記録する" class="cls-3"><g class="cls-3"><path class="cls-5" d="M264.45,286.24v-1.76h8.44v1.76Zm2.66,12.22v.84H265v-6h7.34v5.18Zm-1.74-15.16v-1.74H272v1.74Zm0,5.86v-1.74H272v1.74Zm0,2.92v-1.74H272v1.74Zm4.86,2.86h-3.12v1.84h3.12Zm9.9,4h-3.64c-1.66,0-2.64-.86-2.64-2.82v-7.8h5.8v-4.2h-5.8v-2.26h8.08v9.64h-2.28v-.94h-3.54v5.14c0,.68.26.94,1,.94h2.66c.82,0,1.06-.72,1.34-2.92l2.08.86C282.71,298,281.83,298.94,280.13,298.94Z" transform="translate(-115.65 -225.72)"/><path class="cls-5" d="M302.13,299a17.29,17.29,0,0,1-3-4.06V297a2,2,0,0,1-2.24,2.28h-1.28l-.54-1.94c-.52.4-1.88,1.18-2.08,1.7l-.68-1.82a45.62,45.62,0,0,1-6,1.48,1.42,1.42,0,0,0-.9.44L285,296.8a18.21,18.21,0,0,0,2.78-.36v-4.82h-2.58v-1.9h2.58V287.8H286v-.66a1,1,0,0,1-.16.14l-1.4-1.76A10,10,0,0,0,288,280.9l2.24.16a1.09,1.09,0,0,0-.4.6,11.75,11.75,0,0,0,2.94,2.78l-1.32,1.64,0,0v1.76h-1.64v1.92h2.48v1.9h-2.48V296c.9-.2,1.76-.44,2.44-.64l.06,1.26a14.7,14.7,0,0,0,3.66-2.38l.44,2c-.28.26-.62.56-1,.88a5.8,5.8,0,0,0,.9.06c.52,0,.74-.16.74-.74v-6.6h-4.42v-1.74h7v-1.44h-5.84v-1.76h5.84v-1.42h-6.38V281.7h8.58v6.38h1.4v1.74h-4.14v1.24a9.75,9.75,0,0,0,.7,1.6l2.12-2.08,1.46,1.3c-.26,0-.58.3-1.16.8l-1.58,1.4a14.72,14.72,0,0,0,2.9,3.3Zm-15.9-2.9A13.24,13.24,0,0,0,285,293.2l1.36-.7a15,15,0,0,1,1.2,2.76Zm2.8-12.58a13.92,13.92,0,0,1-1.8,2.5h4.12A15.94,15.94,0,0,1,289,283.48Zm3,10.16-.72,1.68-1.28-.58,1.06-2.56,1.62.72C292.43,292.92,292.29,293.08,292.05,293.64Zm3.24.2-2.22-1.92,1.28-1,2.24,1.84Z" transform="translate(-115.65 -225.72)"/><path class="cls-5" d="M315.79,286.16v3.08a4.76,4.76,0,0,1,.86,2.86c0,3.18-.78,5-6.2,7.7L309,297.62c3.88-1.64,4.84-2.26,5.06-4a3.8,3.8,0,0,1-2.48,1.24c-1.56,0-2.84-1.16-2.84-3.64a3.45,3.45,0,0,1,3.28-3.68,5.91,5.91,0,0,1,1.5.2c0-.48,0-1,0-1.52-1.3,0-2.64,0-4,0-1.52,0-3,0-4.36-.06v-2.62a58.88,58.88,0,0,0,6.1.26c.7,0,1.42,0,2.14,0a23.77,23.77,0,0,0-.22-2.84h2.92a2.2,2.2,0,0,0-.3,1.3v1.48a39.58,39.58,0,0,0,6.42-.6l.08,2.54A52.55,52.55,0,0,1,315.79,286.16Zm-3.52,3.48A1.46,1.46,0,0,0,311,291.2c0,.88.52,1.44,1.18,1.44.9,0,1.3-.82,1.38-2.32A1.58,1.58,0,0,0,312.27,289.64Z" transform="translate(-115.65 -225.72)"/><path class="cls-5" d="M332.37,299.18c-3.16,0-4.54-1.8-4.54-3.34A3,3,0,0,1,331,293c.88,0,1.92.62,3.1,2l-1.4,1.2c-.64-.9-1.3-1.42-1.72-1.42h0a1,1,0,0,0-1.06,1c0,.48.72,1.22,2.12,1.22,3,0,4.9-1.8,4.9-3.4a3.49,3.49,0,0,0-3.62-3.16,10.26,10.26,0,0,0-7.34,4l-1.8-1.84a19.4,19.4,0,0,1,2-1.7c3.18-3.08,5.76-5.42,7.08-6.54-1.06.08-4.58.66-6.26.94l-.36-2.72c4.56-.14,8.8-.64,9.24-1.08l1.7,1.82c-1.06.44-3.76,3-5.78,5a12.19,12.19,0,0,1,2.14-.18c3.28,0,5.76,2.3,5.76,5.18C339.59,296.8,336.09,299.18,332.37,299.18Z" transform="translate(-115.65 -225.72)"/></g></g><g id="思考の足あとを残そう_" data-name="思考の足あとを残そう " class="cls-3"><g class="cls-3"><path d="M230.89,359.29a18.69,18.69,0,0,1-1.24,2.87l-1.53-.7a14.26,14.26,0,0,0,1.53-3.5l1.76.42C231.2,358.42,231.13,358.53,230.89,359.29Zm4.57-2.3,1.33,2-1.29.73-1.37-2.25.92-.45h-5.49v-6.6h10.17V357Zm-1.61-5.32h-2.56v1.38h2.56Zm0,2.64h-2.56v1.4h2.56Zm2.28,8.35h-2.8c-1.09,0-1.58-.54-1.58-1.51v-3.67h1.89c-.13.1-.22.35-.22.83v2.24a.46.46,0,0,0,.51.52H236c.53,0,.78-.33.86-1.56l1.61.57C238.19,362.06,237.6,362.66,236.13,362.66Zm1.89-11h-2.53v1.38H238Zm0,2.64h-2.53v1.4H238Zm1.8,7.76-1.88-3.46,1.4-.61,1.95,3.37Z" transform="translate(-115.65 -225.72)"/><path d="M256.48,351.08c-.23,0-.38.11-.83.63a19.77,19.77,0,0,1-2.16,2.11h3v1.36h-4.77c-.71.49-1.45,1-2.23,1.42a41.93,41.93,0,0,0,5.6-.82l.65,1.47a1.08,1.08,0,0,0-.58-.15,3.28,3.28,0,0,0-.43,0,52.45,52.45,0,0,1-5.73.76l-.25.67h6.5v1.91c0,1.48-.62,2.18-2.08,2.18h-3l-.55-1.5a20,20,0,0,0,3.08.14c.63,0,.82-.26.82-1v-.51H248.3l-.35.94-1.63-.42.93-2.55c-.91.44-1.87.84-2.83,1.19l-.87-1.48a25.84,25.84,0,0,0,5.36-2.3h-5.29v-1.36h4.65v-1.31H245v-1.35h3.26V350h2c-.23.12-.26.31-.26,1.08v.12h3v1a13,13,0,0,0,1.82-2.12l1.65,1.07Zm-6.43,1.43v1.31h1a20.46,20.46,0,0,0,1.64-1.31Z" transform="translate(-115.65 -225.72)"/><path d="M265.83,362.42l-.8-1.58c3-1.23,3.84-2.6,3.84-4.22a3.59,3.59,0,0,0-3-3.87c-.54,4.74-1.94,8.88-4.1,8.88-1.5,0-2.81-1.94-2.81-4.61a6.12,6.12,0,0,1,6.12-6.08,5.46,5.46,0,0,1,5.52,5.71C270.58,359.16,269.65,360.69,265.83,362.42Zm-5.21-5.35c0,1.46.56,2.52,1.09,2.52,1.12,0,2.23-3.81,2.46-6.84A4.39,4.39,0,0,0,260.62,357.07Z" transform="translate(-115.65 -225.72)"/><path d="M285.42,362.65H279.8a6.17,6.17,0,0,1-3.95-1.85,10.91,10.91,0,0,1-1.58,2.25l-1.42-1.16a10.29,10.29,0,0,0,2.79-5.49l1.89.41c-.24,0-.28.23-.45.81s-.36,1.2-.57,1.76a5.88,5.88,0,0,0,2.25,1.42v-5.1h-4.12v-5.27h9.74v5.27h-3.9v1.72h3.66v1.49h-3.66V361c2.41,0,4.36-.1,5.47-.21Zm-2.78-10.73h-6.26v2.3h6.26Z" transform="translate(-115.65 -225.72)"/><path d="M295.86,363l-.84-1.39c2.94-1.36,3.54-2.16,3.54-2.87a2.17,2.17,0,0,0-1.47-2,14.39,14.39,0,0,1-2.62,3.81,3,3,0,0,0,.51.86l-1.49,1.06a4.87,4.87,0,0,1-.5-.77,5,5,0,0,1-2.53.69,2.31,2.31,0,0,1-2.11-2.3c0-2.28,1.61-3.94,3.82-4.69,0-.48,0-1,0-1.51-.9.08-1.75.14-2.51.14a6,6,0,0,1-.61,0l0-1.9a4.65,4.65,0,0,0,1.23.11c.57,0,1.26,0,2-.1,0-.59.07-1.2.11-1.86l2.12,0c-.3.15-.38,1.31-.44,1.65a38.33,38.33,0,0,0,3.95-.66l.12,1.72c-1,.21-2.55.49-4.23.7,0,.45-.06.89-.07,1.31a9.28,9.28,0,0,1,1.19-.07,10.08,10.08,0,0,1,1.24.07c.13-.31.24-.62.34-.93l1.48.45-.33.8a3.48,3.48,0,0,1,2.65,3.44C300.4,360.37,299.3,361.51,295.86,363Zm-3.69-6A3.44,3.44,0,0,0,290,359.8a.79.79,0,0,0,.86.85,3.2,3.2,0,0,0,1.62-.51A17.74,17.74,0,0,1,292.17,357Zm2.85-.7a5.6,5.6,0,0,0-1.21.13,20,20,0,0,0,.2,2.35,12.55,12.55,0,0,0,1.62-2.45C295.42,356.34,295.23,356.33,295,356.33Z" transform="translate(-115.65 -225.72)"/><path d="M311.65,362.42c-2.3.13-3.58.21-4.59.21-2.34,0-4.29-.95-4.29-3.5,0-1.62.88-2.74,3.08-3.64a27.44,27.44,0,0,1-.28-5.31l1.95-.08a1.27,1.27,0,0,0-.2.77,26.76,26.76,0,0,0,.17,4.06c1-.28,2.16-.56,3.52-.81l.18,1.79c-5.25.74-6.64,1.68-6.64,3.12,0,1.24.85,1.89,2.51,1.89,1.27,0,3.53-.23,4.68-.37Z" transform="translate(-115.65 -225.72)"/><path d="M322.4,357.87c0,.67,0,1.49,0,1.88l-1.75.22c0-.32,0-1,0-1.52-1.75.67-2.19,1.23-2.19,1.8v0c0,.56.52.86,1.88.86a25,25,0,0,0,4-.48l0,1.81c-1.76,0-3.49.22-4.26.22-1.64,0-3.25-.56-3.25-2.34,0-1.44,1.1-2.48,3.82-3.6a1,1,0,0,0-1.06-1c-1,0-2.54,1.1-3.38,2l-.71,1-1.39-.88a36.24,36.24,0,0,0,3.17-4.5l-1.12,0c-.48,0-.9,0-1.22,0l-.16-1.8a7.57,7.57,0,0,0,1.89.19c.44,0,.91,0,1.42-.06a8.28,8.28,0,0,0,.52-1.88l1.78.27a13.55,13.55,0,0,1-.44,1.44,27.88,27.88,0,0,0,3.25-.56v1.73a33.89,33.89,0,0,1-4.05.55,24.09,24.09,0,0,1-1.36,2.22l0,0a5.4,5.4,0,0,1,2.7-1,1.66,1.66,0,0,1,1.75,1.56c.77-.28,1.63-.56,2.59-.85l.46,1.79C324.18,357.35,323.21,357.62,322.4,357.87Z" transform="translate(-115.65 -225.72)"/><path d="M330.76,352c0,.43-.09.87-.16,1.3h2.72v1.33a10,10,0,0,1-4.17,8.3l-1.07-1.26a7,7,0,0,0,2.82-3.2l-1.36-.91.68-1.25,1.21.79a14.79,14.79,0,0,0,.48-2.31h-1.63a11.44,11.44,0,0,1-1.53,3.37l-1.13-1.05a10.06,10.06,0,0,0,1.72-5.11h-1.4v-1.55h5.58V352Zm8.39,10.87c-.74,0-1.5-.64-2.15-1.81a16.35,16.35,0,0,1-3.05,1.74l-.76-1.32a14.27,14.27,0,0,0,3.27-1.63,14.55,14.55,0,0,1-.59-1.95l-2.31.29-.14-1.36,2.2-.25c0-.29-.09-.6-.13-.92l-1.44.16-.16-1.31,1.49-.17,0-.92-1.59.16-.09-1.31,1.66-.19V350H337c-.21.16-.23.39-.23,1.19V352l1.88-.19-.62-1.21,1.1-.5,1.06,1.81-.71.36.08.74-2.77.31c0,.31,0,.62,0,.93l2.93-.34.13,1.32-2.94.33c0,.31.08.62.12.91l3.41-.39.12,1.28-3.27.42q.16.69.36,1.26a9.51,9.51,0,0,0,1.5-1.43l1.09.92h-.08c-.31,0-1.68,1.44-2,1.71.39.7.8,1.06,1.14,1.06s.49-.18.82-1.06l.9.91C340.56,362.31,340,362.9,339.15,362.9Z" transform="translate(-115.65 -225.72)"/><path d="M355.23,355.76H355a20.73,20.73,0,0,0-3,.35c-1.78,1.2-2.79,2.71-2.79,3.37,0,1,.66,1.63,3.21,1.63.42,0,.9,0,1.43-.06l-.17,1.79c-.37,0-.73,0-1.08,0-3.4,0-5.16-1.12-5.16-3a4.71,4.71,0,0,1,2.05-3.23c-2.36.5-4.73,1.1-5.84,1.47l-.47-1.94a11.55,11.55,0,0,0,2.17-.35c1.61-1.28,4-3.46,4.75-4a17.17,17.17,0,0,1-4.43.69l-.19-1.7h.51c3.25,0,5.24-.36,5.7-.75l1,1.26c-1.53,1.33-3.49,2.88-4.73,4a58,58,0,0,1,7.32-1.2Z" transform="translate(-115.65 -225.72)"/><path d="M360.44,363l-.91-1.6c4.83-1.66,6.54-3,6.54-4.23s-.84-2-2.72-2.06a17.49,17.49,0,0,0-5,1.63l-.74-1.72c1.23-.14,4.2-1.54,5.74-1.54,2.55,0,4.51,1.24,4.51,3.71C367.89,359.54,365.55,361.16,360.44,363ZM365,352.9c-3.43-.6-4.65-1-5.3-1.54l.75-1.44c.65.46,1.39.75,4.92,1.35Z" transform="translate(-115.65 -225.72)"/><path d="M373.58,362.23a2.42,2.42,0,1,1,0-4.83,2.42,2.42,0,1,1,0,4.83Zm0-3.78a1.39,1.39,0,1,0,1.36,1.37A1.37,1.37,0,0,0,373.6,358.45Z" transform="translate(-115.65 -225.72)"/></g></g><line id="線_101" data-name="線 101" class="cls-6" x1="111.5" y1="143.5" x2="262.5" y2="143.5"/><circle id="楕円形_97" data-name="楕円形 97" class="cls-7" cx="180" cy="352" r="5"/><circle id="楕円形_96" data-name="楕円形 96" class="cls-5" cx="195" cy="352" r="5"/><g id="グループ_726" data-name="グループ 726"><g id="グループ_521" data-name="グループ 521"><g id="パス_220" data-name="パス 220"><path class="cls-8" d="M289.65,227.72v38h28.2l.09-27.62L310,227.72Z" transform="translate(-115.65 -225.72)"/><path class="cls-5" d="M289.65,227.72v38h28.2l.09-27.63L310,227.72H289.65m0-2H310a2,2,0,0,1,1.59.79l7.9,10.41a2,2,0,0,1,.41,1.22l-.09,27.62a2,2,0,0,1-2,2h-28.2a2,2,0,0,1-2-2v-38A2,2,0,0,1,289.65,225.72Z" transform="translate(-115.65 -225.72)"/></g><g id="パス_221" data-name="パス 221"><path class="cls-8" d="M309.81,227.86v10.33h7.94Z" transform="translate(-115.65 -225.72)"/><path class="cls-5" d="M309.81,227.86v10.33h7.95l-7.95-10.33m0-2a2,2,0,0,1,1.59.78L319.34,237a2,2,0,0,1-1.58,3.22h-7.95a2,2,0,0,1-2-2V227.86a2,2,0,0,1,1.36-1.9A2,2,0,0,1,309.81,225.86Z" transform="translate(-115.65 -225.72)"/></g></g><line id="線_121" data-name="線 121" class="cls-9" x1="179.67" y1="19.78" x2="195.87" y2="19.78"/><line id="線_122" data-name="線 122" class="cls-9" x1="179.67" y1="24.64" x2="195.87" y2="24.64"/><line id="線_123" data-name="線 123" class="cls-9" x1="179.67" y1="29.5" x2="195.87" y2="29.5"/></g><g id="アーカイブから見返してさらに自分を深めるもよし_何かをするときにヒントとして役立てるもよし_また_SNSでシェアして客観的な視点をとりこむのも_" data-name="アーカイブから見返してさらに自分を深めるもよし 何かをするときにヒントとして役立てるもよし また SNSでシェアして客観的な視点をとりこむのも " class="cls-3"><g class="cls-3"><path class="cls-4" d="M177.73,443.28l-1-.95a7.28,7.28,0,0,0,1.93-2.24H172v-1.33h6.34c.67,0,.92-.11,1.1-.31l1,1.14A14.61,14.61,0,0,1,177.73,443.28Zm-1.49-1.61c0,2.57-.47,3.62-2.33,5.91l-1.08-.77c2-2.45,2.07-2.88,2.07-5.66h1.56A.79.79,0,0,0,176.24,441.67Z" transform="translate(-115.65 -225.72)"/><path class="cls-4" d="M183.19,443.4v-1.46h8.57v1.46Z" transform="translate(-115.65 -225.72)"/><path class="cls-4" d="M199.21,447.36l-.45-1.26c1.81-.18,2-.4,2-1.73v-2.86h-2.42c-.24,2.46-1,3.64-2.79,5.78l-1.07-.94a7.36,7.36,0,0,0,2.49-4.84h-2.22v-1.34h2.33c0-.64,0-1.36,0-2.18h1.57a.75.75,0,0,0-.24.6c0,.58,0,1.1,0,1.58h3.67v4.23C202.07,446.38,201.62,446.93,199.21,447.36Z" transform="translate(-115.65 -225.72)"/><path class="cls-4" d="M212.15,439.33a13.67,13.67,0,0,1-2.9,2.53H210c-.14.07-.25.46-.25.83s0,1.39,0,2.35,0,1.92,0,2.43h-1.37v-5.05c-.91.62-2,1.3-3.29,2.11l-.74-1.2c3.86-2.16,6.22-3.92,7.17-5.47l1.22,1C212.59,438.9,212.39,439,212.15,439.33Z" transform="translate(-115.65 -225.72)"/><path class="cls-4" d="M216.77,447.44l-.88-1.12c3.43-2,4.56-4,5.14-6h-6.37V439h5.86a2.05,2.05,0,0,0,1.22-.26l.94,1.12A12.13,12.13,0,0,1,216.77,447.44Zm5.52-8.18-.83-1.27.59-.39.84,1.27Zm1.1-.41-.81-1.23.59-.38.81,1.22Z" transform="translate(-115.65 -225.72)"/></g><g class="cls-3"><path class="cls-4" d="M230.72,447.14l-.19-1c2-.24,2.22-.4,2.22-2.48s-.24-2.5-.77-2.5h-1.21c-.52,2-1.18,4.47-1.73,6.11l-1-.39a44,44,0,0,0,1.76-5.71,12.69,12.69,0,0,0-2.05.17l0-1h2.31a19.59,19.59,0,0,0,.45-2.4l1.19.28c-.27.08-.64,1.86-.7,2.11l1.21,0c1,0,1.48.43,1.48,3.42C233.69,446.29,233.49,446.67,230.72,447.14Zm5.56-3c-.8-2.26-1.11-2.82-1.72-3.29l.67-.51c.72.61.9,1,2,3.36Z" transform="translate(-115.65 -225.72)"/><path class="cls-4" d="M241.36,447.53l-.25-.87c3.35-.72,4-1.53,4-2.27s-.57-1.16-1.63-1.16a3.83,3.83,0,0,0-3.47,2.26l-.84-.09a19.9,19.9,0,0,1,.42-5.39l1.15.26a1.14,1.14,0,0,0-.42.74,17.8,17.8,0,0,0-.2,2.62c0,.11,0,.22,0,.32a4.75,4.75,0,0,1,3.41-1.63c1.32,0,2.55.7,2.55,2.15C246.07,445.52,245.36,446.61,241.36,447.53Zm2.73-7.8a12.62,12.62,0,0,0-3.25-1.38l.37-.75a16.76,16.76,0,0,1,3.31,1.29Z" transform="translate(-115.65 -225.72)"/><path class="cls-4" d="M251.81,445.15a5.92,5.92,0,0,1-3,2.53l-.57-.79a4.68,4.68,0,0,0,3-2.52l1,.45C252.06,444.83,252,444.93,251.81,445.15Zm5,2.23h-2.18a1,1,0,0,1-1.06-1.05v-2.05h-4v-6.37h7v6.37H254.5v1.83a.36.36,0,0,0,.38.39h1.79c.46,0,.65-.29.77-1.25l.83.4C258.07,446.93,257.65,447.38,256.82,447.38Zm-1.17-8.75h-5.14v1.21h5.14Zm0,1.86h-5.14v1.21h5.14Zm0,1.85h-5.14v1.22h5.14Z" transform="translate(-115.65 -225.72)"/><path class="cls-4" d="M269.83,447.39h-5.51a2.75,2.75,0,0,1-2.34-1.13l-1.06.84a.84.84,0,0,0-.35.44l-.48-.83,1.47-1.13v-2.94h-1.35v-.89h2.2v3.72a2,2,0,0,0,2,1.07c3.62,0,5,0,5.81-.09ZM262,439.9l-1.58-1.14.5-.64,1.59,1.1Zm7.82,5.88a8.57,8.57,0,0,1-2.59-1.52,8.51,8.51,0,0,1-2.38,1.51l-.44-.73a7.53,7.53,0,0,0,2.24-1.32,8.71,8.71,0,0,1-1.47-1.94l.64-.35a7.4,7.4,0,0,0,1.37,1.76,5.71,5.71,0,0,0,1.34-2.25h-3.9a9.71,9.71,0,0,1-1.21,4.64l-.73-.44a8.44,8.44,0,0,0,1.1-4.57V438h5.92v.8H264.6v1.36h4.72v.78a6.76,6.76,0,0,1-1.55,2.78,8.42,8.42,0,0,0,2.42,1.33Z" transform="translate(-115.65 -225.72)"/><path class="cls-4" d="M275,447.3c-1.5,0-2.27-.73-2.27-2.05,0-.4.05-3.73.05-5.78,0-.77,0-1.35,0-1.54l1.15,0c-.28.38-.29,3.77-.29,4.73v.17c0,1.25,0,2.26,0,2.35,0,.59.31,1.12,1.27,1.12a10.56,10.56,0,0,0,4.4-1.63l.41.86A11.94,11.94,0,0,1,275,447.3Z" transform="translate(-115.65 -225.72)"/><path class="cls-4" d="M288.91,439.59c-1.88,1.14-3.45,2.88-3.45,4.38s1.08,2.36,4,2.36h.34l-.07,1h-.15c-3.49,0-5.09-1.08-5.09-3.29,0-1.5,1.22-3,2.92-4.23-2.22.28-4.73.56-5.74.67l-.11-1.08a1.25,1.25,0,0,0,.35,0h.22c2.39-.18,6.23-.57,8.55-1l.09,1C290.32,439.42,289.67,439.51,288.91,439.59Z" transform="translate(-115.65 -225.72)"/><path class="cls-4" d="M297.91,440.46a25.41,25.41,0,0,0,1.48,2.56,2.91,2.91,0,0,0,1,.94l-.49.73a7.68,7.68,0,0,0-3.09-.83c-.68,0-2.19.19-2.19,1.17,0,.77.95,1.35,2.54,1.35a16.44,16.44,0,0,0,2.86-.21l.05,1c-.71.08-1.93.17-2.9.17-2.66,0-3.52-1.19-3.52-2.26s1.23-2,2.89-2a9.25,9.25,0,0,1,2,.31c-.06-.07-.69-1.12-1.48-2.63a25.73,25.73,0,0,1-4.09.91l-.26-1a15,15,0,0,0,3.93-.75c-.31-.61-.63-1.28-.94-2l1-.38a.25.25,0,0,0,0,.09,10.52,10.52,0,0,0,.83,2,12.16,12.16,0,0,0,2.45-1.09l.51.76A13.47,13.47,0,0,1,297.91,440.46Z" transform="translate(-115.65 -225.72)"/><path class="cls-4" d="M304.58,447.53l-.25-.87c3.34-.72,4-1.53,4-2.27s-.57-1.16-1.64-1.16c-1.49,0-3.18,1.12-3.46,2.26l-.84-.09a19.9,19.9,0,0,1,.42-5.39l1.14.26c-.22.11-.34.45-.42.74a19.6,19.6,0,0,0-.19,2.62c0,.11,0,.22,0,.32a4.73,4.73,0,0,1,3.41-1.63c1.32,0,2.55.7,2.55,2.15C309.29,445.52,308.58,446.61,304.58,447.53Zm2.73-7.8a12.51,12.51,0,0,0-3.26-1.38l.38-.75a16.76,16.76,0,0,1,3.31,1.29Z" transform="translate(-115.65 -225.72)"/><path class="cls-4" d="M312.27,447.27l-.78-.17a31.25,31.25,0,0,1-.29-4.78,28.63,28.63,0,0,1,.47-4.23l1.08.2c-.44.27-.68,3.48-.68,4,0,3.05.09,3.5.13,3.5a11.11,11.11,0,0,0,.69-1.46l.48.44A20.61,20.61,0,0,0,312.27,447.27Zm4.29-.83c-1.42,0-2.21-.78-2.21-1.72a3.92,3.92,0,0,1,.33-1.49l.79.19a3.63,3.63,0,0,0-.25,1.11c0,.6.37,1,1.92,1a17.74,17.74,0,0,0,2.8-.24l.09,1A24.39,24.39,0,0,1,316.56,446.44Zm3-6.31a14.68,14.68,0,0,0-1.73-.08c-.93,0-2,.05-3.1.13l-.05-.95c.68,0,2-.08,3.37-.08.55,0,1.1,0,1.6,0Z" transform="translate(-115.65 -225.72)"/><path class="cls-4" d="M330,447.5v-.3h-6v.3h-.92v-8.84H326l.41-1.14,1.06.22c-.14,0-.22.15-.34.47l-.18.45h4v8.84Zm0-8h-6v1.77h6Zm0,2.58h-6v1.76h6Zm0,2.56h-6v1.78h6Z" transform="translate(-115.65 -225.72)"/><path class="cls-4" d="M337.91,438.42a10.65,10.65,0,0,1-3.37,3.94l-.63-.81a8.34,8.34,0,0,0,3.33-4l1.1.35C338.15,437.94,338.07,438.11,337.91,438.42Zm3,9.11h-1.65l-.35-1a11.31,11.31,0,0,0,1.85.1.7.7,0,0,0,.71-.74v-3.35h-2.81a7,7,0,0,1-3.43,5.15l-.61-.83a5.67,5.67,0,0,0,3.1-4.32h-1.9v-.9h6.57V446A1.42,1.42,0,0,1,340.87,447.53Zm2.93-5.13a10.49,10.49,0,0,1-3.74-4.51l.86-.31a8.76,8.76,0,0,0,3.39,4Z" transform="translate(-115.65 -225.72)"/><path class="cls-4" d="M352.1,443.5c0,.62,0,1.54,0,1.73l-.95.13c0-.15,0-.95,0-1.53-1.64.64-2.11,1.21-2.12,1.82s.48.85,1.64.85a23.64,23.64,0,0,0,3.16-.3l0,1c-1.25,0-2.67.16-3.38.16-1.16,0-2.31-.43-2.31-1.7s.94-1.9,3-2.73c-.07-.73-.46-1-1-1a5.56,5.56,0,0,0-2.91,1.78l-.39.57-.75-.48a27.68,27.68,0,0,0,2.71-3.87c-.42,0-.83,0-1.2,0a8.35,8.35,0,0,1-1.07,0l-.11-1a4.77,4.77,0,0,0,1.42.15c.42,0,.89,0,1.38-.06a5.18,5.18,0,0,0,.4-1.53l1,.17a7.67,7.67,0,0,1-.42,1.28,24.27,24.27,0,0,0,2.7-.43v1a30.38,30.38,0,0,1-3.14.41c-.34.63-.79,1.34-1.43,2.29l0,0a4.43,4.43,0,0,1,2.2-.95,1.35,1.35,0,0,1,1.48,1.36c.67-.23,1.42-.49,2.26-.75l.26,1C353.6,443.05,352.78,443.28,352.1,443.5Z" transform="translate(-115.65 -225.72)"/><path class="cls-4" d="M358.4,442.39l-1.9-1.3.5-.66,1.92,1.31Zm-.72,4.62a1.25,1.25,0,0,0-.22.64l-.84-.64a18.14,18.14,0,0,0,2-3.63l.72.4A29.44,29.44,0,0,1,357.68,447Zm1-7.24-1.83-1.29.52-.63,1.82,1.27Zm7.7,7.43a9.19,9.19,0,0,1-2.91-3v3.28h-.88v-3.27a9.12,9.12,0,0,1-2.88,2.94l-.6-.64a8.44,8.44,0,0,0,2.84-2.71h-2.4V443h3v-1h1c-.11.07-.16.19-.16.61V443h3.08v.84h-2.43a8.34,8.34,0,0,0,2.84,2.71Zm-4.2-7.34a5.18,5.18,0,0,1-2.07,2.34l-.53-.65a3.76,3.76,0,0,0,2-2.34l1,.25C362.34,439.5,362.28,439.57,362.15,439.86Zm3.26,2h-1.1a.9.9,0,0,1-1-1V438.7h-2.86v1.09h-.8v-1.9h6.79v1.9h-.8V438.7h-1.5v2c0,.28.15.38.39.38h.75c.23,0,.37-.18.48-.82l.72.37C366.26,441.51,366,441.84,365.41,441.84Z" transform="translate(-115.65 -225.72)"/><path class="cls-4" d="M375.18,447.27l-.57-.74c2.89-1.38,3.09-2.16,3.09-3,0-1.32-1.45-2.41-2.81-2.55a17.68,17.68,0,0,1-1.78,3.93q.31.45.72,1l-.76.63-.56-.77a2.84,2.84,0,0,1-2.14,1.13A1.66,1.66,0,0,1,369,445a4.67,4.67,0,0,1,1.53-3.36,14.91,14.91,0,0,1-.24-2.9l1.06,0a1,1,0,0,0-.15.47,14.1,14.1,0,0,0,.11,1.84,6.24,6.24,0,0,1,3-1c.18-.59.35-1.23.51-1.91l1,.22c-.21.1-.53,1.44-.62,1.7a3.8,3.8,0,0,1,3.48,3.51C378.66,444.83,378.11,445.74,375.18,447.27Zm-4.44-4.75a3.66,3.66,0,0,0-1,2.39.88.88,0,0,0,.76,1,2.16,2.16,0,0,0,1.48-1A10.41,10.41,0,0,1,370.74,442.52Zm.72-.65a8,8,0,0,0,1.09,2.19,16.1,16.1,0,0,0,1.4-3.12A5.29,5.29,0,0,0,371.46,441.87Z" transform="translate(-115.65 -225.72)"/><path class="cls-4" d="M385.08,447.39c-1.64,0-2.37-.92-2.37-1.63a1.46,1.46,0,0,1,1.52-1.39c.43,0,1,.35,1.63,1.15l-.57.48c-.41-.59-.8-.9-1.07-.9a.62.62,0,0,0-.71.64c0,.33.51.81,1.36.81,1.74,0,3-1.05,3-2.1a2.1,2.1,0,0,0-2.18-1.86,6,6,0,0,0-4.27,2.3l-.69-.72a10.73,10.73,0,0,1,1.1-.94c1.76-1.75,3.36-3.32,4.14-4-.59.06-2.7.39-3.74.53l-.14-1.05a19,19,0,0,0,4.85-.6l.72.71a25.62,25.62,0,0,0-3.41,3.17,5.47,5.47,0,0,1,1.57-.23,2.85,2.85,0,0,1,3.05,2.62C388.83,446.26,386.85,447.39,385.08,447.39Z" transform="translate(-115.65 -225.72)"/><path class="cls-4" d="M396.28,447.45c-2,0-2.91-.89-2.91-2.35a9,9,0,0,1,.1-1.13,20.42,20.42,0,0,1-2.72-.48l.09-.94a16.7,16.7,0,0,0,2.78.5c.12-.73.27-1.54.44-2.36a12,12,0,0,1-2.15-.44l.14-1a6.84,6.84,0,0,0,2.18.55c.16-.78.3-1.52.4-2.12l1.09.16a5.85,5.85,0,0,0-.6,2.07c.56.05,1.13.08,1.62.08H397l-.09,1c-.53,0-1.2-.07-1.93-.15-.17.86-.31,1.68-.43,2.36.68.05,1.32.1,1.77.1h.14l.06.93c-.63,0-1.37,0-2.1-.11a4.71,4.71,0,0,0-.08.77c0,1.18.55,1.69,2,1.69,1.6,0,2.24-.61,2.24-1.4s-.26-1.23-1.68-2.62l.68-.6c1.61,1.62,2,2.23,2,3.26C399.48,446.84,398,447.45,396.28,447.45Z" transform="translate(-115.65 -225.72)"/><path class="cls-4" d="M408.61,447.23c-.89-.54-1.86-1.08-2.73-1.51a1.84,1.84,0,0,1-1.9,1.74c-1.5,0-2.59-.69-2.59-1.81s.93-1.68,2-1.68a4.51,4.51,0,0,1,1.59.37c0-1.36-.23-3.72-.26-6.56H406a1.1,1.1,0,0,0-.23.7c0,.6,0,1.35,0,2.13a21.07,21.07,0,0,0,3.07-.39l.09,1c-.6.11-1.88.26-3.12.34,0,1.24.08,2.45.11,3.2.81.38,1.83.9,3.16,1.6Zm-5.18-2.38c-.74,0-1.12.34-1.12.8s.77.94,1.64.94c.58,0,.94-.27,1-1.29A4.88,4.88,0,0,0,403.43,444.85Z" transform="translate(-115.65 -225.72)"/><path class="cls-4" d="M413.78,447.3c-1.5,0-2.27-.73-2.27-2.05,0-.4.05-3.73.05-5.78,0-.77,0-1.35,0-1.54l1.14,0c-.28.38-.29,3.77-.29,4.73v.17c0,1.25,0,2.26,0,2.35,0,.59.3,1.12,1.26,1.12a10.56,10.56,0,0,0,4.4-1.63l.41.86A11.94,11.94,0,0,1,413.78,447.3Z" transform="translate(-115.65 -225.72)"/><path class="cls-4" d="M422.84,447.13a10.14,10.14,0,0,0-1.75-2.74l.71-.46a12.37,12.37,0,0,1,1.82,2.73Z" transform="translate(-115.65 -225.72)"/></g><g class="cls-3"><path class="cls-4" d="M185.79,458.18a15.17,15.17,0,0,1-1,2.93h.53c-.12.08-.13.2-.13.63v5.79h-.86v-5.45a9.82,9.82,0,0,1-1,1.55l-.48-.87a12.55,12.55,0,0,0,2.13-5.27l1.08.17C185.94,457.72,185.85,457.88,185.79,458.18Zm6.53.69v7.41a1.21,1.21,0,0,1-1.29,1.25h-1.39l-.34-1a14.57,14.57,0,0,0,1.6.07.52.52,0,0,0,.51-.5v-7.25h-5.2V458h6.92v.9Zm-4.93,5.79v.7h-.76v-4.81h3.56v4.11Zm2-3.25h-2v2.41h2Z" transform="translate(-115.65 -225.72)"/><path class="cls-4" d="M198.82,467.14l-.19-1c2-.24,2.22-.4,2.22-2.48s-.24-2.5-.77-2.5h-1.21c-.52,2-1.18,4.47-1.73,6.11l-1-.39a44,44,0,0,0,1.76-5.71,12.69,12.69,0,0,0-2.05.17l0-1h2.31a19.59,19.59,0,0,0,.45-2.4l1.19.28c-.27.08-.64,1.86-.7,2.11l1.21,0c1,0,1.48.43,1.48,3.42C201.79,466.29,201.59,466.67,198.82,467.14Zm5.56-3c-.8-2.26-1.11-2.82-1.72-3.29l.67-.51c.72.61.9,1,2,3.36Z" transform="translate(-115.65 -225.72)"/><path class="cls-4" d="M212.78,463.5c0,.62,0,1.54,0,1.73l-1,.13c0-.15,0-.95,0-1.53-1.64.64-2.11,1.21-2.12,1.82s.48.85,1.64.85a23.79,23.79,0,0,0,3.17-.3l0,1c-1.26,0-2.68.16-3.38.16-1.17,0-2.31-.43-2.31-1.7s.93-1.9,3-2.73c-.06-.73-.46-1-1-1a5.53,5.53,0,0,0-2.9,1.78c-.13.18-.27.37-.4.57l-.75-.48a26.84,26.84,0,0,0,2.71-3.87c-.42,0-.83,0-1.2,0a8.35,8.35,0,0,1-1.07,0l-.11-1a4.81,4.81,0,0,0,1.42.15c.42,0,.89,0,1.39-.06a5.89,5.89,0,0,0,.4-1.53l1,.17a7.67,7.67,0,0,1-.42,1.28,23.9,23.9,0,0,0,2.7-.43v1a30,30,0,0,1-3.14.41c-.34.63-.79,1.34-1.43,2.29l.05,0a4.39,4.39,0,0,1,2.2-.95,1.35,1.35,0,0,1,1.47,1.36c.67-.23,1.42-.49,2.27-.75l.25,1C214.27,463.05,213.46,463.28,212.78,463.5Z" transform="translate(-115.65 -225.72)"/><path class="cls-4" d="M222.61,460.24c0,.69,0,1.35,0,1.84a3.41,3.41,0,0,1,.33,1.59c0,1.27-.18,2.56-3.15,4.15l-.51-.8c1.91-1,2.56-1.61,2.7-2.81a1.76,1.76,0,0,1-1.32.73c-.75,0-1.38-.71-1.38-1.87s.73-2,1.51-2a2.35,2.35,0,0,1,1,.19v-1c-.7,0-1.42,0-2.1,0-1,0-2,0-2.7-.06v-1a23.08,23.08,0,0,0,3.37.17h1.41a12.85,12.85,0,0,0-.1-1.81h1.12a1,1,0,0,0-.13.59v1.19a21.84,21.84,0,0,0,3.75-.37v1A27.24,27.24,0,0,1,222.61,460.24ZM220.89,462c-.4,0-.77.51-.77,1.12s.28,1,.72,1,.86-.54.9-1.52A1,1,0,0,0,220.89,462Z" transform="translate(-115.65 -225.72)"/><path class="cls-4" d="M233.56,467.39c-1.64,0-2.37-.92-2.37-1.63a1.46,1.46,0,0,1,1.52-1.39c.43,0,1,.35,1.63,1.15l-.58.48c-.4-.59-.8-.9-1.06-.9a.63.63,0,0,0-.72.64c0,.33.52.81,1.37.81,1.73,0,3-1.05,3-2.1a2.1,2.1,0,0,0-2.18-1.86,5.94,5.94,0,0,0-4.27,2.3l-.69-.72a9.76,9.76,0,0,1,1.1-.94c1.76-1.75,3.35-3.32,4.13-4-.58.06-2.69.39-3.74.53l-.13-1.05a19,19,0,0,0,4.84-.6l.73.71a25,25,0,0,0-3.41,3.17,5.42,5.42,0,0,1,1.57-.23,2.85,2.85,0,0,1,3.05,2.62C237.31,466.26,235.33,467.39,233.56,467.39Z" transform="translate(-115.65 -225.72)"/><path class="cls-4" d="M246.57,467.2c-1.79.1-2.7.15-3.5.15-1.78,0-3.18-.8-3.19-2.68,0-1.25.68-2.07,2.42-2.72a16.63,16.63,0,0,1-.22-3.77v-.46l1.06,0a.85.85,0,0,0-.12.5,16.66,16.66,0,0,0,.16,3.47c.79-.23,1.75-.44,2.88-.65l.11.95c-4.25.61-5.33,1.35-5.33,2.7,0,1.12.76,1.79,2.18,1.79,1,0,2.69-.17,3.58-.27Z" transform="translate(-115.65 -225.72)"/><path class="cls-4" d="M254.79,461.92c.38.73.86,1.75,1.67,2.08l-.46.73a7.49,7.49,0,0,0-2.53-.45c-.59,0-2.23.09-2.23,1,0,.7.85,1.07,2.23,1.07a19.65,19.65,0,0,0,3-.28l.09,1c-.73.06-2.16.18-3.12.18-2.59,0-3.24-1-3.24-2s1.21-1.8,2.86-1.8a7.47,7.47,0,0,1,1.7.15,9.92,9.92,0,0,1-.87-1.51,34.63,34.63,0,0,1-4.55.92l-.2-.89a18.65,18.65,0,0,0,4.38-.77c-.2-.41-.4-.88-.65-1.42a18.89,18.89,0,0,1-3.45.67l-.17-.82a15.82,15.82,0,0,0,3.3-.61c-.18-.44-.39-.91-.6-1.44l1-.33a.37.37,0,0,0,0,.11,6.06,6.06,0,0,0,.51,1.42,12.08,12.08,0,0,0,2-.77l.37.75a12.49,12.49,0,0,1-2.09.78c.21.48.42,1,.64,1.41a13.26,13.26,0,0,0,2.64-1.05l.38.73A12.7,12.7,0,0,1,254.79,461.92Z" transform="translate(-115.65 -225.72)"/><path class="cls-4" d="M261.08,467.27l-.78-.17a31.25,31.25,0,0,1-.29-4.78,30.26,30.26,0,0,1,.46-4.23l1.09.2c-.44.27-.68,3.48-.68,4,0,3.05.09,3.5.13,3.5a11.44,11.44,0,0,0,.68-1.46l.49.44A18.88,18.88,0,0,0,261.08,467.27Zm4.29-.83c-1.42,0-2.21-.78-2.21-1.72a3.92,3.92,0,0,1,.33-1.49l.79.19a3.63,3.63,0,0,0-.25,1.11c0,.6.37,1,1.92,1a17.74,17.74,0,0,0,2.8-.24l.08,1A24.34,24.34,0,0,1,265.37,466.44Zm3-6.31a14.79,14.79,0,0,0-1.73-.08c-.93,0-2,.05-3.1.13l-.06-.95c.69,0,2-.08,3.38-.08.55,0,1.1,0,1.6,0Z" transform="translate(-115.65 -225.72)"/><path class="cls-4" d="M273.5,466.5c-1.11,0-1.6-.44-1.6-1.57v-6h1.18c-.16.06-.27.44-.27.66v3.28a16.27,16.27,0,0,0,5-3.16l.85.87h-.06a.73.73,0,0,0-.56.25,24.15,24.15,0,0,1-5.24,3V465a.53.53,0,0,0,.51.56h5.56v.93Z" transform="translate(-115.65 -225.72)"/><path class="cls-4" d="M281.87,466.66a1,1,0,0,0-.63.45l-.45-1.09a17.79,17.79,0,0,0,8.22-4.93l.59.73A18.88,18.88,0,0,1,281.87,466.66Zm1.88-4.87a10.43,10.43,0,0,0-2.79-2.35l.5-.71a11.93,11.93,0,0,1,2.94,2.37Z" transform="translate(-115.65 -225.72)"/><path class="cls-4" d="M296.91,464.46,293.26,462v1.63c0,1.62,0,3.16,0,4h-.94V457.8h1.12c-.13.1-.21.36-.21.84,0,.71,0,1.78,0,2.95l.34-.48,3.84,2.61Z" transform="translate(-115.65 -225.72)"/><path class="cls-4" d="M306.71,467.2c-1.8.1-2.7.15-3.5.15-1.79,0-3.18-.8-3.19-2.68,0-1.25.68-2.07,2.42-2.72a16.63,16.63,0,0,1-.22-3.77v-.46l1,0a.85.85,0,0,0-.12.5,15.61,15.61,0,0,0,.17,3.47c.79-.23,1.75-.44,2.88-.65l.11.95c-4.26.61-5.34,1.35-5.34,2.7,0,1.12.76,1.79,2.18,1.79,1,0,2.7-.17,3.59-.27Z" transform="translate(-115.65 -225.72)"/><path class="cls-4" d="M311.85,467.3c-1.49,0-2.26-.73-2.26-2.05,0-.4,0-3.73,0-5.78,0-.77,0-1.35,0-1.54l1.14,0c-.27.38-.28,3.77-.28,4.73v.17c0,1.25,0,2.26,0,2.35,0,.59.31,1.12,1.26,1.12a10.64,10.64,0,0,0,4.41-1.63l.4.86A11.94,11.94,0,0,1,311.85,467.3Z" transform="translate(-115.65 -225.72)"/><path class="cls-4" d="M326.25,459.59c-1.88,1.14-3.44,2.88-3.44,4.38s1.08,2.36,4,2.36h.35l-.07,1h-.16c-3.48,0-5.09-1.08-5.09-3.29,0-1.5,1.22-3,2.93-4.23-2.23.28-4.73.56-5.75.67l-.1-1.08a1.16,1.16,0,0,0,.35,0h.22c2.38-.18,6.22-.57,8.55-1l.08,1C327.66,459.42,327,459.51,326.25,459.59Z" transform="translate(-115.65 -225.72)"/><path class="cls-4" d="M333.82,461.05a12.33,12.33,0,0,1-1.14,1.79h.47c-.11.07-.17.2-.17.66v4h-.85v-4.05a7,7,0,0,1-1.12,1l-.46-.79a8.2,8.2,0,0,0,2.68-3.37l.94.33C334,460.68,333.9,460.9,333.82,461.05Zm-.19-2.71a9,9,0,0,1-2.54,2.6l-.49-.71a7.78,7.78,0,0,0,2.52-2.55l.89.36C333.88,458,333.75,458.16,333.63,458.34Zm6.47,9.16a10.28,10.28,0,0,1-3-1.56,12.07,12.07,0,0,1-2.86,1.49l-.45-.78a9.55,9.55,0,0,0,2.68-1.25,7.21,7.21,0,0,1-1.28-1.61l.68-.4a5.79,5.79,0,0,0,1.28,1.52,6.48,6.48,0,0,0,1.6-1.81h-4.39v-.81h5.27v.84a5.87,5.87,0,0,1-1.82,2.28,9.7,9.7,0,0,0,2.74,1.31Zm-.75-6h-.77c-.59,0-.93-.36-.93-1v-1.73h-1.73v.4a4,4,0,0,1-1.4,2.93l-.68-.61a3.21,3.21,0,0,0,1.23-2.39v-1.18h3.4v2.37c0,.31.1.39.3.39h.48c.37,0,.43-.11.6-1l.71.29C340.32,461.33,340.05,461.52,339.35,461.52Z" transform="translate(-115.65 -225.72)"/><path class="cls-4" d="M342.76,467.27v-.87h5.5l1.57-5.63,1.05.3c-.16.06-.24.16-.38.68l-1.32,4.65h3.39v.87Zm.59-7.26v-.88h3.86v-1.41h1.08c-.14.1-.17.19-.17.59v.82H352V460Zm2.36,5.93a24,24,0,0,0-1.33-4.9l.87-.28a23.34,23.34,0,0,1,1.31,4.94Z" transform="translate(-115.65 -225.72)"/><path class="cls-4" d="M362,459.59c-1.88,1.14-3.44,2.88-3.44,4.38s1.08,2.36,4,2.36h.34l-.07,1h-.15c-3.49,0-5.1-1.08-5.1-3.29,0-1.5,1.22-3,2.93-4.23-2.22.28-4.73.56-5.74.67l-.11-1.08a1.2,1.2,0,0,0,.35,0h.22c2.39-.18,6.22-.57,8.55-1l.08,1C363.42,459.42,362.77,459.51,362,459.59Z" transform="translate(-115.65 -225.72)"/><path class="cls-4" d="M370.19,467.39c-1.64,0-2.37-.92-2.37-1.63a1.46,1.46,0,0,1,1.52-1.39c.43,0,1,.35,1.63,1.15l-.57.48c-.41-.59-.81-.9-1.07-.9a.63.63,0,0,0-.72.64c0,.33.52.81,1.37.81,1.74,0,3-1.05,3-2.1a2.1,2.1,0,0,0-2.18-1.86,5.94,5.94,0,0,0-4.27,2.3l-.69-.72a9.76,9.76,0,0,1,1.1-.94c1.76-1.75,3.35-3.32,4.13-4-.58.06-2.69.39-3.74.53l-.13-1.05a19,19,0,0,0,4.84-.6l.73.71a25,25,0,0,0-3.41,3.17,5.42,5.42,0,0,1,1.57-.23,2.85,2.85,0,0,1,3.05,2.62C373.94,466.26,372,467.39,370.19,467.39Z" transform="translate(-115.65 -225.72)"/><path class="cls-4" d="M381.83,467.45c-2,0-2.91-.89-2.91-2.35A7.42,7.42,0,0,1,379,464a20.63,20.63,0,0,1-2.73-.48l.1-.94a16.54,16.54,0,0,0,2.77.5c.12-.73.28-1.54.44-2.36a12.11,12.11,0,0,1-2.14-.44l.14-1a6.76,6.76,0,0,0,2.18.55c.15-.78.3-1.52.39-2.12l1.09.16a6.06,6.06,0,0,0-.59,2.07c.56.05,1.12.08,1.62.08h.22l-.09,1c-.53,0-1.2-.07-1.94-.15-.16.86-.31,1.68-.43,2.36.69.05,1.32.1,1.78.1H382l0,.93c-.62,0-1.36,0-2.1-.11a6.22,6.22,0,0,0-.08.77c0,1.18.55,1.69,2,1.69,1.61,0,2.25-.61,2.25-1.4s-.27-1.23-1.68-2.62l.68-.6c1.6,1.62,2,2.23,2,3.26C385,466.84,383.58,467.45,381.83,467.45Z" transform="translate(-115.65 -225.72)"/><path class="cls-4" d="M394.6,467.23c-.89-.54-1.86-1.08-2.73-1.51a1.84,1.84,0,0,1-1.91,1.74c-1.49,0-2.58-.69-2.58-1.81s.92-1.68,2-1.68a4.51,4.51,0,0,1,1.59.37c0-1.36-.23-3.72-.26-6.56H392a1.1,1.1,0,0,0-.23.7c0,.6,0,1.35,0,2.13a21.07,21.07,0,0,0,3.07-.39l.09,1c-.61.11-1.88.26-3.13.34.05,1.24.09,2.45.11,3.2.82.38,1.84.9,3.17,1.6Zm-5.18-2.38c-.74,0-1.13.34-1.13.8s.77.94,1.64.94c.58,0,.95-.27,1.05-1.29A4.88,4.88,0,0,0,389.42,464.85Z" transform="translate(-115.65 -225.72)"/><path class="cls-4" d="M400.21,467.3c-1.5,0-2.27-.73-2.27-2.05,0-.4,0-3.73,0-5.78,0-.77,0-1.35,0-1.54l1.15,0c-.28.38-.29,3.77-.29,4.73v.17c0,1.25,0,2.26,0,2.35,0,.59.31,1.12,1.27,1.12a10.61,10.61,0,0,0,4.4-1.63l.41.86A12,12,0,0,1,400.21,467.3Z" transform="translate(-115.65 -225.72)"/><path class="cls-4" d="M409.78,467a1.79,1.79,0,0,1-1.82-1.79,1.82,1.82,0,1,1,3.64,0A1.81,1.81,0,0,1,409.78,467Zm0-3a1.2,1.2,0,0,0-1.2,1.17,1.17,1.17,0,0,0,2.34,0A1.15,1.15,0,0,0,409.79,464Z" transform="translate(-115.65 -225.72)"/></g><g class="cls-3"><path class="cls-4" d="M170,482.86c0,.75.07,1.43.09,1.95.81.29,1.74.68,2.74,1.15l-.48.91a15.38,15.38,0,0,0-2.22-1.14v0a1.74,1.74,0,0,1-2,1.7c-1.54,0-2.52-.78-2.52-1.59s1-1.52,2.32-1.52a4.86,4.86,0,0,1,1.21.18c0-.45,0-1-.06-1.61-.73,0-1.45,0-2.12,0a16.4,16.4,0,0,1-1.9-.08l0-1a7.57,7.57,0,0,0,2.12.18c.57,0,1.2,0,1.83-.05,0-.6-.06-1.23-.08-1.8-.72,0-1.44.07-2.08.07a10.67,10.67,0,0,1-1.36-.06l0-1a6,6,0,0,0,1.59.13c.53,0,1.13,0,1.76,0,0-.76-.06-1.35-.08-1.54H170a.84.84,0,0,0-.21.59l0,.89c.95-.08,1.87-.17,2.48-.28l0,.94c-.51.08-1.43.18-2.48.25,0,.59,0,1.2.08,1.82a23.56,23.56,0,0,0,2.84-.34l0,1A23.62,23.62,0,0,1,170,482.86Zm-.79,2.54a4.46,4.46,0,0,0-1.26-.22c-1,0-1.41.33-1.41.74s.78.77,1.56.77a1,1,0,0,0,1.11-1.15Z" transform="translate(-115.65 -225.72)"/><path class="cls-4" d="M177.55,481.09c-.51,2.3-1.15,5.17-1.54,6.4l-1-.29a37.23,37.23,0,0,0,1.57-6c-.4,0-.83.06-1.29.06a4,4,0,0,1-.49,0l-.08-1a4.72,4.72,0,0,0,1,.08c.34,0,.72,0,1.08-.05.2-1,.34-2,.39-2.54l1.24.18a.68.68,0,0,0-.28.49c-.09.41-.23,1-.38,1.76a16.85,16.85,0,0,0,2-.4l.09.94C179.32,480.79,178.52,481,177.55,481.09Zm3.23,6c-1.75,0-2.09-1-2.09-1.55A5.76,5.76,0,0,1,179,484l.81.15a5.37,5.37,0,0,0-.24,1.12c0,.7.3.93,1.81.93a17,17,0,0,0,2.74-.26V487C182.6,487.05,181.62,487.09,180.78,487.09Zm2.92-5a10.14,10.14,0,0,0-2.87-.43,5.92,5.92,0,0,0-.76,0l.06-.83a6.62,6.62,0,0,1,.91-.06,14.42,14.42,0,0,1,2.85.34Z" transform="translate(-115.65 -225.72)"/><path class="cls-4" d="M188.46,487.13a10.39,10.39,0,0,0-1.75-2.74l.71-.46a12.37,12.37,0,0,1,1.82,2.73Z" transform="translate(-115.65 -225.72)"/></g><g class="cls-3"><path class="cls-4" d="M202.09,487h-.52c-2.23,0-3.47-1.3-3.47-3h1.46c0,.91.56,1.73,2.06,1.73h.44c1.47,0,1.9-.61,1.9-1.15v-.13c0-.69-.41-.91-1.32-1.17l-2-.59c-1.53-.44-2.28-1.11-2.28-2.2v-.14c0-1.35,1-2.39,3.23-2.39h.55a2.83,2.83,0,0,1,3.12,2.86h-1.43a1.49,1.49,0,0,0-1.7-1.6h-.56c-1.2,0-1.76.39-1.76,1.12v.09c0,.45.27.72,1.28,1l2.06.6c1.65.49,2.34,1.2,2.34,2.33v.19C205.49,485.87,204.26,487,202.09,487Z" transform="translate(-115.65 -225.72)"/><path class="cls-4" d="M213.12,486.72l-4.1-6.85.09,6.86h-1.46v-8.64h1.81l4,6.72-.1-6.72h1.48v8.63Z" transform="translate(-115.65 -225.72)"/><path class="cls-4" d="M221,487h-.52c-2.23,0-3.47-1.3-3.47-3h1.46c0,.91.56,1.73,2.06,1.73H221c1.47,0,1.9-.61,1.9-1.15v-.13c0-.69-.41-.91-1.32-1.17l-2-.59c-1.53-.44-2.28-1.11-2.28-2.2v-.14c0-1.35,1.05-2.39,3.24-2.39h.55a2.83,2.83,0,0,1,3.11,2.86h-1.43a1.49,1.49,0,0,0-1.7-1.6h-.56c-1.2,0-1.76.39-1.76,1.12v.09c0,.45.27.72,1.28,1l2.06.6c1.65.49,2.34,1.2,2.34,2.33v.19C224.42,485.87,223.19,487,221,487Z" transform="translate(-115.65 -225.72)"/><path class="cls-4" d="M233.69,479.84c-1.69,1.11-3.06,2.75-3.06,4s.9,2.14,4.11,2.14l-.14,1.4c-3.72,0-5.44-1.09-5.44-3.49,0-1.23,1-2.64,2.49-3.85l-5.19.63-.14-1.56a1.2,1.2,0,0,0,.28,0h.34a86.91,86.91,0,0,0,8.67-1l.13,1.48Zm1.14,2.59-1-1.16.55-.44,1,1.15Zm1-.73-1-1.17.55-.43,1,1.15Z" transform="translate(-115.65 -225.72)"/><path class="cls-4" d="M240.73,483.35a9,9,0,0,0-2.53-1.92l.73-1.05a9.86,9.86,0,0,1,2.66,1.87ZM240,487a1,1,0,0,0-.64.46l-.61-1.55a13.53,13.53,0,0,0,7.62-4.81l1,1A15.34,15.34,0,0,1,240,487Zm2.82-6.19a9.07,9.07,0,0,0-2.69-1.66l.64-1.12a9.81,9.81,0,0,1,2.8,1.61Z" transform="translate(-115.65 -225.72)"/><path class="cls-4" d="M249.24,486.61v-1.16h3.14v-3.34h-2.31v-1.17h5.7v1.17H253.5v3.34h3.15v1.16Z" transform="translate(-115.65 -225.72)"/><path class="cls-4" d="M264.22,483.28l-1.05-.95a7.28,7.28,0,0,0,1.93-2.24h-6.58v-1.33h6.34c.67,0,.92-.11,1.1-.31l1,1.14A14.61,14.61,0,0,1,264.22,483.28Zm-1.49-1.61c0,2.57-.47,3.62-2.33,5.91l-1.08-.77c2-2.45,2.07-2.88,2.07-5.66H263A.74.74,0,0,0,262.73,481.67Z" transform="translate(-115.65 -225.72)"/></g><g class="cls-3"><path class="cls-4" d="M272.81,487.3c-1.5,0-2.27-.73-2.27-2.05,0-.4,0-3.73,0-5.78,0-.77,0-1.35,0-1.54l1.15,0c-.28.38-.29,3.77-.29,4.73v.17c0,1.25,0,2.26,0,2.35,0,.59.31,1.12,1.27,1.12a10.56,10.56,0,0,0,4.4-1.63l.41.86A11.94,11.94,0,0,1,272.81,487.3Z" transform="translate(-115.65 -225.72)"/><path class="cls-4" d="M286.77,479.59c-1.88,1.14-3.45,2.88-3.45,4.38s1.08,2.36,4,2.36h.34l-.07,1h-.15c-3.49,0-5.09-1.08-5.09-3.29,0-1.5,1.22-3,2.92-4.23-2.22.28-4.73.56-5.74.67l-.11-1.08a1.25,1.25,0,0,0,.35,0H280c2.39-.18,6.23-.57,8.55-1l.09,1C288.18,479.42,287.53,479.51,286.77,479.59Z" transform="translate(-115.65 -225.72)"/><path class="cls-4" d="M300.46,484.42c-.6-.09-1.16-.21-1.68-.34v3.45h-.93v-.39h-4.41v.39h-.93v-3.34c-.51.14-1.06.26-1.64.37l-.32-.76a14.81,14.81,0,0,0,4.4-1.28,10,10,0,0,1-1.51-1.19,9,9,0,0,1-1.68,1.1l-.53-.62a7.61,7.61,0,0,0,3.21-2.59l1,.28c-.27.05-.44.36-.62.53h3.73v.61a7.42,7.42,0,0,1-2.06,1.87,16.17,16.17,0,0,0,4.24,1.11Zm-1.27-4.11v-1.16H292.1v1.16h-.9V478.4h4v-.8h1.06c-.11.1-.15.22-.15.58v.22h4v1.91ZM295.72,483a14.29,14.29,0,0,1-2.6,1.06h5.4A13.11,13.11,0,0,1,295.72,483Zm2.13,1.78h-4.41v1.68h4.41Zm-3.65-4.05a1.71,1.71,0,0,1-.2.18,8.26,8.26,0,0,0,1.71,1.24,6.8,6.8,0,0,0,1.72-1.42Z" transform="translate(-115.65 -225.72)"/><path class="cls-4" d="M309.92,485.23a5.07,5.07,0,0,1-1.82,2.46l-.5-.56h-3.35v.37h-.78v-4.14a5.18,5.18,0,0,1-.63.61l-.38-.81a6.54,6.54,0,0,0,1.87-2.43h-1.57V480h1.88a8.52,8.52,0,0,0,.29-1H304a7.64,7.64,0,0,1-.65.94l-.58-.48a5.86,5.86,0,0,0,1.09-2l.92.19a1.06,1.06,0,0,0-.41.64h3.24V479h-1.88a8.31,8.31,0,0,1-.27,1h2.38v.75h-2.67a8.79,8.79,0,0,1-.56,1.1h1.19l.33-.89.83.18c-.11,0-.18.13-.28.38l-.12.33h1.28v.66h-1.36v.88h1.1V484h-1.1v.89h1.1v.66h-1.1v.88h1.36V487a3.93,3.93,0,0,0,1.52-2.43l.85.28C310.09,484.85,310,485,309.92,485.23Zm-4.2-2.74h-1.47v.88h1.47Zm0,1.54h-1.47v.89h1.47Zm0,1.55h-1.47v.88h1.47Zm6.26,1.8h-.61c-.6,0-.83-.29-.83-1V484.3h-2v-6.41h3.89v6.41h-1.15v1.82c0,.34.09.41.26.41h.37c.36,0,.46-.21.54-1.16l.64.25C312.93,487,312.69,487.38,312,487.38Zm-.34-8.75h-2.35v1.2h2.35Zm0,1.86h-2.35v1.19h2.35Zm0,1.87h-2.35v1.21h2.35Z" transform="translate(-115.65 -225.72)"/><path class="cls-4" d="M316.14,486.15v.65h-.83v-8h1l.47-1.27,1,.17c-.16.08-.23.14-.39.56l-.2.54h1.48v7.36Zm1.71-6.52h-1.71V482h1.71Zm0,3.22h-1.71v2.47h1.71Zm5.13,4.58h-1.31l-.3-1a10,10,0,0,0,1.42.09c.55,0,.87-.44.87-1.92V480h-2.85a10.32,10.32,0,0,1-1.32,2.34l-.68-.58a9.88,9.88,0,0,0,1.79-4.15l1.07.13c-.22.08-.43,1.1-.52,1.38h3.37v5.65C324.52,486.62,324,487.43,323,487.43Zm-1.16-2.83c-.07-.26-1-2.1-1.15-2.3l.71-.35c.11.21,1.1,2.11,1.16,2.32Z" transform="translate(-115.65 -225.72)"/><path class="cls-4" d="M329.7,480.43a47.4,47.4,0,0,1-1.79,5.66l-1-.39a26.38,26.38,0,0,0,1.76-5.09,15,15,0,0,1-1.79.19l-.08-1h.29a12.17,12.17,0,0,0,1.81-.17,18.53,18.53,0,0,0,.35-2l1.2.24c-.27.14-.48,1.28-.55,1.55.59-.12,1.18-.26,1.73-.42l.08.93C331.12,480.12,330.4,480.29,329.7,480.43Zm5.92,6.12a23.53,23.53,0,0,0-2.19-1.05v.32a1.68,1.68,0,0,1-1.81,1.6c-1.48,0-2-.85-2-1.68a1.63,1.63,0,0,1,1.82-1.5,5.26,5.26,0,0,1,1.1.11c0-.37,0-.75,0-1.11a9.56,9.56,0,0,1,0-1.18,2.25,2.25,0,0,1,1.23-1.17,12.9,12.9,0,0,0-1.37-.56l.37-.76A16.35,16.35,0,0,1,336,481l-.47.81c-.27-.18-.58-.35-.88-.53-.72.28-1.2.68-1.2,1.1,0,.19,0,1.27,0,2.18a23.31,23.31,0,0,1,2.65,1.07Zm-3.07-1.36a4.39,4.39,0,0,0-1.17-.18c-.76,0-1,.42-1,.82s.49.81,1.12.81a1.06,1.06,0,0,0,1-1.13Z" transform="translate(-115.65 -225.72)"/><path class="cls-4" d="M342,484.57l-1.46-1.22v4.2h-.88V483.6A10.26,10.26,0,0,1,338.3,485l-.47-.84a11.38,11.38,0,0,0,3.22-4h-2.84v-.85h1.46v-1.64h1a.91.91,0,0,0-.19.68v1H342v.8a9.71,9.71,0,0,1-1.32,2.39l1.85,1.44Zm2.41.61a5.14,5.14,0,0,1-2.16,2.5l-.5-.68a4,4,0,0,0,2.08-2.51l.9.29C344.63,484.82,344.55,484.92,344.44,485.18Zm2.71,2.2h-.73c-.69,0-1.07-.36-1.07-1.13V484.3h-2.48v-6.41h4.53v6.41h-1.25v1.79c0,.33.13.45.43.45h.51c.39,0,.51-.27.62-1.16l.68.3C348.18,487,347.92,487.38,347.15,487.38Zm-.6-8.75h-2.84v1.2h2.84Zm0,1.86h-2.84v1.19h2.84Zm0,1.87h-2.84v1.21h2.84Z" transform="translate(-115.65 -225.72)"/><path class="cls-4" d="M352.13,485.45a10,10,0,0,1-1.22,2.08l-.76-.47a6.59,6.59,0,0,0,1.39-2.34l.95.3C352.35,485,352.25,485.14,352.13,485.45Zm3.42-6v1.19h3.28v3.56h-7.3v-3.56h3.06v-3.09h1.11c-.13.11-.15.26-.15.73v.38h4.29v.79Zm2.32,2h-5.39v1.9h5.39Zm-4.25,5.9-.09-2.25.8,0,.17,2.26Zm2.88,0-.66-2.23.75-.15.74,2.18Zm2.94-.05L358,485.16l.7-.35,1.48,2.12Z" transform="translate(-115.65 -225.72)"/><path class="cls-4" d="M368.15,483.5c0,.62,0,1.54,0,1.73l-1,.13c0-.15,0-.95,0-1.53-1.64.64-2.11,1.21-2.12,1.82s.48.85,1.64.85a23.79,23.79,0,0,0,3.17-.3l0,1c-1.25,0-2.67.16-3.37.16-1.17,0-2.31-.43-2.31-1.7s.93-1.9,3-2.73c-.06-.73-.46-1-1-1a5.53,5.53,0,0,0-2.9,1.78c-.14.18-.27.37-.4.57l-.75-.48a27.68,27.68,0,0,0,2.71-3.87c-.42,0-.83,0-1.2,0a8.35,8.35,0,0,1-1.07,0l-.11-1a4.81,4.81,0,0,0,1.42.15c.42,0,.89,0,1.39-.06a5.46,5.46,0,0,0,.39-1.53l1,.17a7.67,7.67,0,0,1-.42,1.28,23.9,23.9,0,0,0,2.7-.43v1a30,30,0,0,1-3.14.41c-.34.63-.79,1.34-1.43,2.29l.05,0a4.35,4.35,0,0,1,2.2-.95,1.35,1.35,0,0,1,1.47,1.36c.67-.23,1.42-.49,2.27-.75l.25,1C369.64,483.05,368.83,483.28,368.15,483.5Z" transform="translate(-115.65 -225.72)"/><path class="cls-4" d="M379.22,487.2c-1.79.1-2.69.15-3.5.15-1.78,0-3.18-.8-3.19-2.68,0-1.25.69-2.07,2.42-2.72a16.63,16.63,0,0,1-.22-3.77v-.46l1.06,0a.85.85,0,0,0-.12.5,16.66,16.66,0,0,0,.16,3.47c.8-.23,1.75-.44,2.89-.65l.11.95c-4.26.61-5.34,1.35-5.34,2.7,0,1.12.76,1.79,2.18,1.79,1,0,2.69-.17,3.59-.27Z" transform="translate(-115.65 -225.72)"/><path class="cls-4" d="M382.26,484.83c-.64,0-1.09-2.19-1.09-3.56a24.91,24.91,0,0,1,.36-3l1.18.13c-.47.33-.63,2.35-.63,2.87a6.2,6.2,0,0,0,.3,2.14c.24,0,.78-1.43,1-1.92l.57.5C383,484,382.63,484.83,382.26,484.83Zm1.63,2.8-.64-.71c2.24-1.65,2.79-3.19,2.79-4.53a38.06,38.06,0,0,0-.18-4.42l1.07-.09a.47.47,0,0,0-.11.34c0,1.42.11,2.85.11,4.27C386.93,484.11,386.38,485.68,383.89,487.63Z" transform="translate(-115.65 -225.72)"/><path class="cls-4" d="M393,486.76c-2.78,0-4-.82-4-2a6.05,6.05,0,0,1,.71-1.86l.77.33a3.24,3.24,0,0,0-.59,1.4c0,.6.81,1.15,3.06,1.15a36.42,36.42,0,0,0,3.87-.28l0,1C395.36,486.68,394.16,486.76,393,486.76Zm.18-6.41c-.83,0-1.88,0-3.22-.12v-1a28.78,28.78,0,0,0,3.19.18,7.31,7.31,0,0,0,2.76-.33l.21.92A8.22,8.22,0,0,1,393.16,480.35Z" transform="translate(-115.65 -225.72)"/><path class="cls-4" d="M404.35,487.5c-2.66,0-3.05-.74-3.05-1.5a3.52,3.52,0,0,1,.13-.86,1.6,1.6,0,0,1-.79.22c-.57,0-1.19-.5-1.19-1.61a2.13,2.13,0,0,1,2-2.05h.24v-1.17a15.26,15.26,0,0,1-1.82.13l-.53,0-.05-1a2.89,2.89,0,0,0,.77.07,15.49,15.49,0,0,0,1.65-.1c0-.58.05-1.19.09-1.79l1.18.07c-.37.21-.34,1.21-.35,1.6.61-.08,1.25-.19,1.88-.31l.08.95c-.66.07-1.34.17-2,.26,0,.54,0,1.09,0,1.52a.91.91,0,0,1,.48.81c0,.57-.84,2.18-.84,3,0,.54.64.79,2.12.79,2,0,2.44-.34,2.74-2.62l.94.28C407.51,486.89,407,487.5,404.35,487.5Zm-2.67-4.43s0-.24,0-.54a1,1,0,0,0-.27,0,1.21,1.21,0,0,0-1.07,1.15c0,.58.21.86.46.86.43,0,.9-.47.9-1.24A1.34,1.34,0,0,0,401.68,483.07Zm6.61-.43a5.84,5.84,0,0,0-2.49-1.81l.5-.73a8.07,8.07,0,0,1,2.61,1.87Z" transform="translate(-115.65 -225.72)"/><path class="cls-4" d="M416,487.15l-.42-.86c2.43-.94,3.21-2.1,3.21-3.57a3.11,3.11,0,0,0-2.86-3.39c-.4,3.64-1.58,7.13-3.08,7.13-1.08,0-2-1.41-2-3.4a4.71,4.71,0,0,1,4.68-4.68,4.14,4.14,0,0,1,4.22,4.34C419.76,484.67,419,485.85,416,487.15Zm-4.27-4c0,1.24.53,2.25,1.05,2.25,1.06,0,2.14-3.64,2.25-6A3.73,3.73,0,0,0,411.77,483.12Z" transform="translate(-115.65 -225.72)"/><path class="cls-4" d="M427.21,487.45c-2,0-2.91-.89-2.91-2.35a7.42,7.42,0,0,1,.1-1.13,20.63,20.63,0,0,1-2.73-.48l.1-.94a16.54,16.54,0,0,0,2.77.5c.12-.73.28-1.54.44-2.36a12.11,12.11,0,0,1-2.14-.44l.14-1a6.76,6.76,0,0,0,2.18.55c.15-.78.3-1.52.39-2.12l1.09.16a6.06,6.06,0,0,0-.59,2.07c.56.05,1.12.08,1.62.08h.22l-.09,1c-.53,0-1.2-.07-1.94-.15-.16.86-.31,1.68-.43,2.36.69.05,1.32.1,1.78.1h.14l0,.93c-.62,0-1.36,0-2.1-.11a6.22,6.22,0,0,0-.08.77c0,1.18.55,1.69,2,1.69,1.61,0,2.25-.61,2.25-1.4s-.27-1.23-1.69-2.62l.69-.6c1.6,1.62,2,2.23,2,3.26C430.41,486.84,429,487.45,427.21,487.45Z" transform="translate(-115.65 -225.72)"/><path class="cls-4" d="M437.41,487.41a4.85,4.85,0,1,1,4.85-4.84A4.86,4.86,0,0,1,437.41,487.41Zm0-9.16a4.32,4.32,0,1,0,4.33,4.32A4.3,4.3,0,0,0,437.41,478.25Zm0,7.12a2.81,2.81,0,1,1,2.81-2.8A2.8,2.8,0,0,1,437.41,485.37Zm0-5.1a2.3,2.3,0,1,0,2.3,2.3A2.3,2.3,0,0,0,437.41,480.27Z" transform="translate(-115.65 -225.72)"/></g></g><g id="あなた次第でいろいろな使い道があるはず_" data-name="あなた次第でいろいろな使い道があるはず " class="cls-3"><g class="cls-3"><path class="cls-4" d="M200.68,515.64l-.47-.76c2.38-1.1,2.89-1.86,2.89-2.48a1.93,1.93,0,0,0-1.58-1.9,13,13,0,0,1-2.18,3.17,2.36,2.36,0,0,0,.47.82l-.8.6a3.78,3.78,0,0,1-.41-.78,3.49,3.49,0,0,1-2,.69,1.59,1.59,0,0,1-1.53-1.6,3.91,3.91,0,0,1,2.95-3.56c0-.47,0-1,.06-1.48-.71.07-1.39.11-2,.11l-.63,0V507.4a4.45,4.45,0,0,0,1.05.1c.49,0,1.06,0,1.66-.09,0-.54.11-1.09.18-1.67l1.23,0c-.31.15-.44,1.25-.48,1.55a27.46,27.46,0,0,0,3.25-.54l0,.92a27.67,27.67,0,0,1-3.4.59c-.05.44-.08.89-.09,1.33a7.24,7.24,0,0,1,1.24-.11c.33,0,.66,0,1,.05.12-.27.22-.55.32-.81l.84.3-.31.69a2.68,2.68,0,0,1,2.16,2.69C204.07,513.58,203.16,514.54,200.68,515.64Zm-2.67-4.9a3,3,0,0,0-2.07,2.54.76.76,0,0,0,.8.79,2.68,2.68,0,0,0,1.59-.62A14.94,14.94,0,0,1,198,510.74Zm2.07-.44a5.19,5.19,0,0,0-1.23.16,13.94,13.94,0,0,0,.23,2.28,10.93,10.93,0,0,0,1.62-2.41C200.5,510.31,200.29,510.3,200.08,510.3Z" transform="translate(-115.65 -225.72)"/><path class="cls-4" d="M208.62,508.43a47.42,47.42,0,0,1-1.8,5.66l-.94-.39a26.38,26.38,0,0,0,1.76-5.09,15,15,0,0,1-1.8.19l-.07-1h.28a12.18,12.18,0,0,0,1.82-.17c.16-.75.29-1.43.35-2l1.2.24c-.27.14-.48,1.28-.55,1.55.58-.12,1.18-.26,1.73-.42l.07.93C210,508.12,209.32,508.29,208.62,508.43Zm5.92,6.12c-.8-.42-1.52-.78-2.19-1v.32a1.68,1.68,0,0,1-1.81,1.6c-1.48,0-2-.85-2-1.68a1.63,1.63,0,0,1,1.82-1.5,5.26,5.26,0,0,1,1.1.11c0-.37,0-.75,0-1.11a8.84,8.84,0,0,1,.05-1.18,2.21,2.21,0,0,1,1.23-1.17,13.82,13.82,0,0,0-1.37-.56l.37-.76a16.63,16.63,0,0,1,3.16,1.45l-.48.81c-.26-.18-.57-.35-.88-.53-.71.28-1.2.68-1.2,1.1,0,.19,0,1.27,0,2.18a24.07,24.07,0,0,1,2.65,1.07Zm-3.07-1.36a4.39,4.39,0,0,0-1.17-.18c-.76,0-1,.42-1,.82s.48.81,1.12.81a1.06,1.06,0,0,0,1-1.13Z" transform="translate(-115.65 -225.72)"/><path class="cls-4" d="M219.49,509.09c-.51,2.3-1.15,5.17-1.54,6.4l-1-.29a37.23,37.23,0,0,0,1.57-6c-.41,0-.84.06-1.29.06a4,4,0,0,1-.49,0l-.08-1a4.72,4.72,0,0,0,1,.08c.34,0,.71,0,1.08-.05.19-1,.34-2,.39-2.54l1.23.18a.68.68,0,0,0-.27.49l-.39,1.76a17.15,17.15,0,0,0,2-.4l.09.94C221.26,508.79,220.45,509,219.49,509.09Zm3.23,6c-1.75,0-2.09-1-2.09-1.55a5.76,5.76,0,0,1,.3-1.56l.81.15a4.75,4.75,0,0,0-.24,1.12c0,.7.3.93,1.8.93a16.83,16.83,0,0,0,2.74-.26V515C224.54,515.05,223.56,515.09,222.72,515.09Zm2.92-5a10.2,10.2,0,0,0-2.88-.43,6.12,6.12,0,0,0-.76,0l.07-.83a6.48,6.48,0,0,1,.9-.06,14.25,14.25,0,0,1,2.85.34Z" transform="translate(-115.65 -225.72)"/><path class="cls-4" d="M229.71,508.13l-1.89-1.47.51-.66,1.92,1.41Zm-.75,6.73a.69.69,0,0,0-.14.39s0,.07,0,.1l-.92-.64a22.73,22.73,0,0,0,2.11-3.79l.73.43A27.18,27.18,0,0,1,229,514.86Zm8.18.72a7.9,7.9,0,0,1-3.09-3.65,7,7,0,0,1-3.45,3.62l-.6-.79a5.47,5.47,0,0,0,3.54-4.89v-1.69h-1.12a12,12,0,0,1-1.66,2.44L230,510a11.62,11.62,0,0,0,2.5-4.25l1.06.26c-.31.05-.6,1-.72,1.26h4.75v.9c0,.14-1.43,2.42-1.55,2.66l-.72-.4c.09-.18.81-1.41,1.27-2.29h-2.18v2a6.54,6.54,0,0,0,3.28,4.64Z" transform="translate(-115.65 -225.72)"/><path class="cls-4" d="M243.21,507.18l.28.85-.81.21-.33-1.06h-.91a7.82,7.82,0,0,1-1,1l-.66-.63a6.07,6.07,0,0,0,1.75-2.05l1.08.31c-.27.05-.46.39-.6.61h2.66v.76Zm4.77,7.93h-1.09l-.31-.86a5.57,5.57,0,0,0,1.19.08c.58,0,.69-.52.69-1v-.68h-3.18v2.88h-.91v-2.36a13.15,13.15,0,0,1-4.11,2.34l-.45-.79a10.47,10.47,0,0,0,4-2.07h-2.34l0,.26h-.9l.47-2.85.73.11h2.68v-1h-3.82v-.72h8.27v2.47h-3.54v1h4.1v1.47C249.38,514.34,249,515.11,248,515.11Zm-3.61-4.23h-2.65l-.17,1h2.82Zm3.61-3.7.29.85-.82.21-.35-1.06h-1a6.5,6.5,0,0,1-1,1l-.63-.62a6,6,0,0,0,1.74-2l1.08.32c-.29.06-.44.37-.6.6h3v.76Zm-.08,1.95h-2.62v1h2.62Z" transform="translate(-115.65 -225.72)"/><path class="cls-4" d="M258.87,507.59c-1.89,1.14-3.45,2.88-3.45,4.38s1.08,2.36,4,2.36h.34l-.07,1h-.15c-3.49,0-5.1-1.08-5.1-3.29,0-1.51,1.23-3,2.94-4.23l-5.8.67-.1-1.08a1.16,1.16,0,0,0,.35,0h.22c2.37-.18,6.33-.59,8.59-1l.09,1C260.29,507.42,259.62,507.51,258.87,507.59Zm1.16,2.56-1-1.08.45-.39,1,1.07Zm1-.75-1-1.09.45-.39,1,1.08Z" transform="translate(-115.65 -225.72)"/><path class="cls-4" d="M265.42,515c-.74,0-1.76-1.49-1.9-3.8,0-.38,0-.91,0-1.49a29.75,29.75,0,0,1,.13-3l1,.07a8.59,8.59,0,0,0-.28,2.73c0,.74,0,1.36.05,1.65.1,1.61.63,2.59,1,2.59a7.48,7.48,0,0,0,1.27-2.07l.75.46C266.15,514.15,265.74,515,265.42,515Zm5.94-2.23a19,19,0,0,0-1.6-4.24l.84-.35a21,21,0,0,1,1.75,4.25Z" transform="translate(-115.65 -225.72)"/><path class="cls-4" d="M277.54,515.69l-.26-.89c2.77-.64,4-1.32,4-2.35a2,2,0,0,0-2.05-1.8,6.75,6.75,0,0,0-4.46,2.45l-.69-.73a13.19,13.19,0,0,1,1.07-.91c1.72-1.75,3.35-3.5,4.14-4.31-.5.07-2.6.43-3.64.57l-.11-1a17.94,17.94,0,0,0,4.76-.63l.69.67a28.88,28.88,0,0,0-3.49,3.37,5.06,5.06,0,0,1,1.76-.35,2.83,2.83,0,0,1,3,2.61C282.24,514.21,280.36,515,277.54,515.69Z" transform="translate(-115.65 -225.72)"/><path class="cls-4" d="M286.24,515c-.73,0-1.76-1.49-1.9-3.8,0-.38,0-.91,0-1.49a29.75,29.75,0,0,1,.13-3l1,.07a8.59,8.59,0,0,0-.28,2.73c0,.74,0,1.36.05,1.65.1,1.61.63,2.59,1,2.59a7.63,7.63,0,0,0,1.28-2.07l.75.46C287,514.15,286.56,515,286.24,515Zm5.95-2.23a18.59,18.59,0,0,0-1.61-4.24l.85-.35a22.18,22.18,0,0,1,1.75,4.25Z" transform="translate(-115.65 -225.72)"/><path class="cls-4" d="M298.37,515.69l-.27-.89c2.78-.64,4-1.32,4-2.35a2,2,0,0,0-2-1.8,6.75,6.75,0,0,0-4.47,2.45l-.68-.73a10.47,10.47,0,0,1,1.07-.91c1.71-1.75,3.34-3.5,4.13-4.31-.49.07-2.59.43-3.64.57l-.11-1a17.87,17.87,0,0,0,4.76-.63l.7.67a28.78,28.78,0,0,0-3.5,3.37,5.1,5.1,0,0,1,1.76-.35,2.82,2.82,0,0,1,3,2.61C303.06,514.21,301.18,515,298.37,515.69Z" transform="translate(-115.65 -225.72)"/><path class="cls-4" d="M307.61,508.43a49.3,49.3,0,0,1-1.8,5.66l-.94-.39a26.38,26.38,0,0,0,1.76-5.09,15,15,0,0,1-1.8.19l-.07-1H305a12.18,12.18,0,0,0,1.82-.17c.16-.75.28-1.43.35-2l1.2.24c-.28.14-.48,1.28-.55,1.55.58-.12,1.18-.26,1.73-.42l.07.93C309,508.12,308.31,508.29,307.61,508.43Zm5.92,6.12c-.8-.42-1.52-.78-2.19-1v.32a1.68,1.68,0,0,1-1.81,1.6c-1.48,0-2-.85-2-1.68a1.63,1.63,0,0,1,1.81-1.5,5.29,5.29,0,0,1,1.11.11c0-.37,0-.75,0-1.11a8.84,8.84,0,0,1,.05-1.18,2.21,2.21,0,0,1,1.23-1.17,13,13,0,0,0-1.38-.56l.38-.76a16.63,16.63,0,0,1,3.16,1.45l-.48.81c-.26-.18-.57-.35-.88-.53-.71.28-1.2.68-1.2,1.1,0,.19,0,1.27,0,2.18a24.07,24.07,0,0,1,2.65,1.07Zm-3.07-1.36a4.39,4.39,0,0,0-1.17-.18c-.76,0-1,.42-1,.82s.48.81,1.12.81a1.06,1.06,0,0,0,1-1.13Z" transform="translate(-115.65 -225.72)"/><path class="cls-4" d="M318.44,506.21a17.87,17.87,0,0,1-1,2.9h.51c-.12.08-.13.2-.13.63v5.79h-.86v-5.45a10,10,0,0,1-.95,1.53l-.49-.87a13.92,13.92,0,0,0,2.19-5.27l1.07.2C318.58,505.74,318.51,505.89,318.44,506.21Zm7.12,9.45a11,11,0,0,1-4.3-1.7,7.08,7.08,0,0,1-2.32,1.67l-.55-.75a5.83,5.83,0,0,0,2.22-1.42,8.47,8.47,0,0,1-1.46-1.65l.61-.42a6.18,6.18,0,0,0,1.32,1.45,4.54,4.54,0,0,0,.6-1.61H319v-3.05h2.71v-.9h-3.08v-.8h3.08v-.92h1c-.13.09-.16.18-.16.59v.33h3.12v.8h-3.12v.9h2.72v3.05h-2.79a5.62,5.62,0,0,1-.82,2.11,10.75,10.75,0,0,0,4.19,1.5Zm-3.81-6.73h-1.9v1.56h1.9Zm2.79,0h-1.91v1.56h1.91Z" transform="translate(-115.65 -225.72)"/><path class="cls-4" d="M329.86,515c-.74,0-1.76-1.49-1.9-3.8,0-.38,0-.91,0-1.49a29.68,29.68,0,0,1,.14-3l1,.07c-.29.28-.29,2.3-.29,2.73,0,.74,0,1.36.06,1.65.1,1.61.63,2.59,1,2.59a7.48,7.48,0,0,0,1.27-2.07l.75.46C330.59,514.15,330.18,515,329.86,515Zm5.94-2.23a18.59,18.59,0,0,0-1.61-4.24l.85-.35a21,21,0,0,1,1.75,4.25Z" transform="translate(-115.65 -225.72)"/><path class="cls-4" d="M348.23,515.39H343a3,3,0,0,1-2.49-1.15l-1.13.78a.77.77,0,0,0-.42.56l-.56-.93,1.67-1.09v-2.93h-1.52v-.89H341v3.74a2.32,2.32,0,0,0,2.12,1.07c3.62,0,4.64,0,5.48-.09Zm-7.82-7.49-1.6-1.14.5-.64,1.63,1.11Zm5.07-.27-.32.84h2.58v5.47h-.9v-.35h-3.53v.35h-.88v-5.47h1.82l.31-.84h-2.8v-.74h1.78a7.88,7.88,0,0,0-.51-1.15l.77-.25a8.35,8.35,0,0,1,.58,1.32l-.28.08h1.63l.66-1.36.95.26c-.1,0-.22.11-.34.42l-.37.68h1.92v.74Zm1.36,1.48h-3.53V510h3.53Zm0,1.49h-3.53v.85h3.53Zm0,1.48h-3.53V513h3.53Z" transform="translate(-115.65 -225.72)"/><path class="cls-4" d="M353.33,515.19l-.18-1c2-.24,2.22-.41,2.22-2.49s-.24-2.51-.77-2.51h-1.23c-.52,2-1.17,4.48-1.73,6.12l-1-.39a42.27,42.27,0,0,0,1.76-5.7,12.85,12.85,0,0,0-2,.15l-.05-1h2.29a17.7,17.7,0,0,0,.45-2.39l1.19.27c-.26.09-.63,1.85-.69,2.1l1.23,0c1,0,1.46.44,1.46,3.44C356.29,514.35,356.11,514.71,353.33,515.19Zm5.33-3c-.79-2.17-1.1-2.83-1.74-3.33l.62-.46c.73.61.95,1,2,3.34Zm.11-3.7-.95-1.09.44-.4.95,1.1Zm.83-.69-.94-1.11.44-.38.94,1.11Z" transform="translate(-115.65 -225.72)"/><path class="cls-4" d="M367.36,515.64l-.46-.76c2.37-1.1,2.88-1.86,2.88-2.48a1.93,1.93,0,0,0-1.57-1.9,13.26,13.26,0,0,1-2.18,3.17,2.2,2.2,0,0,0,.46.82l-.79.6a3.36,3.36,0,0,1-.42-.78,3.49,3.49,0,0,1-2,.69,1.59,1.59,0,0,1-1.53-1.6,3.9,3.9,0,0,1,2.95-3.56c0-.47,0-1,.05-1.48-.7.07-1.39.11-2,.11l-.64,0V507.4a4.48,4.48,0,0,0,1.06.1c.48,0,1.05,0,1.66-.09,0-.54.11-1.09.17-1.67l1.23,0c-.3.15-.43,1.25-.48,1.55a27.71,27.71,0,0,0,3.26-.54l0,.92a27.67,27.67,0,0,1-3.4.59c0,.44-.08.89-.09,1.33a7.36,7.36,0,0,1,1.25-.11c.33,0,.66,0,1,.05.13-.27.22-.55.32-.81l.84.3-.31.69a2.67,2.67,0,0,1,2.17,2.69C370.76,513.58,369.85,514.54,367.36,515.64Zm-2.66-4.9a3,3,0,0,0-2.07,2.54.76.76,0,0,0,.79.79,2.71,2.71,0,0,0,1.6-.62A13.34,13.34,0,0,1,364.7,510.74Zm2.07-.44a5.27,5.27,0,0,0-1.24.16,13.94,13.94,0,0,0,.23,2.28,10.93,10.93,0,0,0,1.62-2.41C367.18,510.31,367,510.3,366.77,510.3Z" transform="translate(-115.65 -225.72)"/><path class="cls-4" d="M376.84,515.39c-1.64,0-2.36-.92-2.36-1.63a1.45,1.45,0,0,1,1.51-1.39c.43,0,1,.35,1.63,1.15l-.57.48c-.41-.59-.8-.9-1.07-.9a.62.62,0,0,0-.71.64c0,.33.52.81,1.36.81,1.74,0,3-1,3-2.1a2.1,2.1,0,0,0-2.18-1.86,6,6,0,0,0-4.27,2.3l-.69-.72a10.73,10.73,0,0,1,1.1-.94c1.76-1.75,3.36-3.32,4.14-4-.58.06-2.7.39-3.74.53l-.13-1.05a19,19,0,0,0,4.84-.6l.72.71A25.62,25.62,0,0,0,376,510a5.52,5.52,0,0,1,1.57-.23,2.85,2.85,0,0,1,3,2.62C380.59,514.26,378.61,515.39,376.84,515.39Z" transform="translate(-115.65 -225.72)"/><path class="cls-4" d="M383.36,515.44l-.81-.17a28.38,28.38,0,0,1-.26-4.91,38.85,38.85,0,0,1,.39-4.28l1.09.17c-.45.32-.58,3.51-.58,4.08,0,3.05,0,3.58.09,3.58a8.41,8.41,0,0,0,.83-1.57l.63.46C384.08,514,383.57,515.15,383.36,515.44Zm8.08-.85a12.21,12.21,0,0,0-1.77-.89v.08c0,.78-.57,1.56-2,1.56s-1.91-.84-1.91-1.5a1.72,1.72,0,0,1,1.85-1.44,6.69,6.69,0,0,1,1.12.12c0-.78-.1-2-.17-3.15-.61.05-1.25.07-1.81.07s-.78,0-1.1,0l0-1a4.51,4.51,0,0,0,1.46.16c.44,0,.92,0,1.43-.06-.07-1.21-.12-2.23-.13-2.52h1.19a1,1,0,0,0-.2.6c0,.6,0,1.23.08,1.83a17.69,17.69,0,0,0,1.92-.3l.07,1c-.49.09-1.18.19-1.95.27,0,1.26.12,2.61.15,3.5a20.79,20.79,0,0,1,2.26.92Zm-2.71-1.2a4.89,4.89,0,0,0-1.21-.17c-.67,0-1,.38-1,.65,0,.45.52.68,1,.68.69,0,1.14-.17,1.14-1.15Z" transform="translate(-115.65 -225.72)"/><path class="cls-4" d="M399.24,508.24c0,.69,0,1.35,0,1.84a3.41,3.41,0,0,1,.33,1.59c0,1.27-.18,2.56-3.15,4.15l-.52-.8c1.92-1,2.57-1.61,2.71-2.81a1.76,1.76,0,0,1-1.32.73c-.75,0-1.39-.71-1.39-1.87s.74-2,1.52-2a2.42,2.42,0,0,1,1,.19v-1c-.7,0-1.42,0-2.1,0-1,0-2,0-2.7-.06v-1a23.08,23.08,0,0,0,3.37.17h1.41a14.66,14.66,0,0,0-.1-1.81h1.12a1,1,0,0,0-.13.59v1.19A21.84,21.84,0,0,0,403,507v1A27.39,27.39,0,0,1,399.24,508.24ZM397.52,510c-.41,0-.77.51-.77,1.12s.28,1,.72,1,.86-.54.9-1.52A1,1,0,0,0,397.52,510Zm4.22-2.95-.75-1.25.53-.29.73,1.24Zm1.25-.22-.75-1.24.52-.29.75,1.25Z" transform="translate(-115.65 -225.72)"/><path class="cls-4" d="M407,515.5v-1.08h1.17v1.08Zm.91-2.34h-.7l-.17-3.84v-3.68h1v3.68Z" transform="translate(-115.65 -225.72)"/></g></g></svg>